# Blender 3.6.1
# www.blender.org
mtllib Trigger.mtl
o Trigger
v -0.000139 -0.014977 0.001982
v -0.000273 0.000421 0.001982
v -0.000139 -0.014977 -0.001982
v -0.000273 0.000421 -0.001982
v 0.000982 -0.014967 0.001982
v 0.000848 0.000430 0.001982
v 0.000982 -0.014967 -0.001982
v 0.000848 0.000430 -0.001982
v -0.003826 -0.025195 -0.001982
v -0.003826 -0.025195 0.001982
v -0.002705 -0.025185 -0.001982
v -0.002705 -0.025185 0.001982
vn -1.0000 -0.0087 -0.0000
vn -0.0000 -0.0000 -1.0000
vn 1.0000 0.0087 -0.0000
vn -0.0000 -0.0000 1.0000
vn 0.9406 -0.3394 -0.0000
vn -0.0087 1.0000 -0.0000
vn 0.0087 -1.0000 -0.0000
vn -0.9406 0.3394 -0.0000
vt 0.375000 0.000000
vt 0.625000 0.000000
vt 0.625000 0.250000
vt 0.375000 0.250000
vt 0.625000 0.500000
vt 0.375000 0.500000
vt 0.625000 0.750000
vt 0.375000 0.750000
vt 0.625000 1.000000
vt 0.375000 1.000000
vt 0.875000 0.500000
vt 0.875000 0.750000
vt 0.125000 0.500000
vt 0.125000 0.750000
s 0
f 1/1/1 2/2/1 4/3/1 3/4/1
f 3/4/2 4/3/2 8/5/2 7/6/2
f 7/6/3 8/5/3 6/7/3 5/8/3
f 5/8/4 6/7/4 2/9/4 1/10/4
f 7/6/5 5/8/5 12/8/5 11/6/5
f 8/5/6 4/11/6 2/12/6 6/7/6
f 9/13/7 11/6/7 12/8/7 10/14/7
f 5/8/4 1/10/4 10/10/4 12/8/4
f 3/4/2 7/6/2 11/6/2 9/4/2
f 1/1/8 3/4/8 9/4/8 10/1/8
