# Blender 3.6.1
# www.blender.org
o release_LOD0
v -0.005717 -0.358516 -0.059363
v -0.004417 -0.358516 -0.059363
v -0.005617 -0.363776 -0.036989
v -0.004417 -0.363776 -0.036989
v -0.004417 -0.363776 -0.036989
v -0.004417 -0.358516 -0.059363
v -0.004418 -0.375522 -0.039132
v -0.004417 -0.364853 -0.061188
v -0.004417 -0.366173 -0.062112
v -0.004417 -0.367330 -0.063310
v -0.004418 -0.368155 -0.064965
v -0.004418 -0.368604 -0.066166
v -0.004418 -0.369139 -0.068371
v -0.004418 -0.369179 -0.070796
v -0.005617 -0.363776 -0.036989
v -0.004417 -0.363776 -0.036989
v -0.005518 -0.375312 -0.039054
v -0.004418 -0.375522 -0.039132
v -0.005418 -0.376040 -0.039279
v -0.004918 -0.376547 -0.039326
v -0.000018 -0.376547 -0.039326
v -0.000018 -0.375522 -0.039132
v -0.005617 -0.363776 -0.036989
v -0.005518 -0.375312 -0.039054
v -0.005717 -0.358516 -0.059363
v -0.005657 -0.364854 -0.061200
v -0.005645 -0.366174 -0.062125
v -0.005636 -0.367331 -0.063325
v -0.005630 -0.368293 -0.064736
v -0.005625 -0.369035 -0.066158
v -0.005616 -0.369608 -0.067541
v -0.004417 -0.364853 -0.061188
v -0.005657 -0.364854 -0.061200
v -0.004417 -0.366173 -0.062112
v -0.005645 -0.366174 -0.062125
v -0.004417 -0.367330 -0.063310
v -0.005636 -0.367331 -0.063325
v -0.005630 -0.368293 -0.064736
v -0.004418 -0.368155 -0.064965
v -0.005625 -0.369035 -0.066158
v -0.004418 -0.368604 -0.066166
v -0.005616 -0.369608 -0.067541
v -0.004418 -0.369139 -0.068371
v -0.004418 -0.369179 -0.070796
v -0.005418 -0.370075 -0.069163
v -0.004818 -0.370228 -0.070961
v -0.005518 -0.375312 -0.039054
v -0.005418 -0.376040 -0.039279
v -0.005616 -0.369608 -0.067541
v -0.005418 -0.370075 -0.069163
v -0.004918 -0.376547 -0.039326
v -0.004818 -0.370228 -0.070961
v -0.004418 -0.369179 -0.070796
v -0.004092 -0.369067 -0.071410
v -0.003161 -0.368914 -0.072248
v -0.001768 -0.368797 -0.072893
v -0.000018 -0.368755 -0.073120
v -0.000018 -0.375522 -0.039132
v -0.004418 -0.375522 -0.039132
v -0.005717 -0.358516 -0.059363
v -0.005657 -0.364854 -0.061200
v -0.004417 -0.358516 -0.059363
v -0.004417 -0.364853 -0.061188
v -0.004418 -0.369179 -0.070796
v -0.004818 -0.370228 -0.070961
v -0.004092 -0.369067 -0.071410
v -0.004092 -0.370091 -0.071733
v -0.003161 -0.368914 -0.072248
v -0.003161 -0.369953 -0.072516
v -0.001768 -0.368797 -0.072893
v -0.001768 -0.369839 -0.073162
v -0.000018 -0.368755 -0.073120
v -0.000018 -0.369798 -0.073389
v 0.005683 -0.358516 -0.059363
v 0.005583 -0.363776 -0.036989
v 0.004383 -0.358516 -0.059363
v 0.004383 -0.363776 -0.036989
v 0.004383 -0.363776 -0.036989
v 0.004382 -0.375522 -0.039132
v 0.004383 -0.358516 -0.059363
v 0.004383 -0.364853 -0.061188
v 0.004383 -0.366173 -0.062112
v 0.004383 -0.367330 -0.063310
v 0.004382 -0.368155 -0.064965
v 0.004382 -0.368604 -0.066166
v 0.004382 -0.369139 -0.068371
v 0.004382 -0.369179 -0.070796
v 0.005583 -0.363776 -0.036989
v 0.005482 -0.375312 -0.039054
v 0.004383 -0.363776 -0.036989
v 0.004382 -0.375522 -0.039132
v 0.005382 -0.376040 -0.039279
v 0.004882 -0.376547 -0.039326
v -0.000018 -0.376547 -0.039326
v -0.000018 -0.375522 -0.039132
v 0.005583 -0.363776 -0.036989
v 0.005683 -0.358516 -0.059363
v 0.005482 -0.375312 -0.039054
v 0.005623 -0.364854 -0.061200
v 0.005611 -0.366174 -0.062125
v 0.005602 -0.367331 -0.063325
v 0.005594 -0.368293 -0.064736
v 0.005589 -0.369035 -0.066158
v 0.005580 -0.369608 -0.067541
v 0.005382 -0.370075 -0.069163
v 0.004382 -0.369179 -0.070796
v 0.004782 -0.370228 -0.070961
v 0.005580 -0.369608 -0.067541
v 0.004382 -0.369139 -0.068371
v 0.004382 -0.368604 -0.066166
v 0.005589 -0.369035 -0.066158
v 0.004382 -0.368155 -0.064965
v 0.005594 -0.368293 -0.064736
v 0.004383 -0.367330 -0.063310
v 0.005602 -0.367331 -0.063325
v 0.005611 -0.366174 -0.062125
v 0.004383 -0.366173 -0.062112
v 0.005623 -0.364854 -0.061200
v 0.004383 -0.364853 -0.061188
v 0.005482 -0.375312 -0.039054
v 0.005580 -0.369608 -0.067541
v 0.005382 -0.376040 -0.039279
v 0.005382 -0.370075 -0.069163
v 0.004882 -0.376547 -0.039326
v 0.004782 -0.370228 -0.070961
v 0.004382 -0.369179 -0.070796
v 0.004056 -0.369067 -0.071410
v 0.004782 -0.370228 -0.070961
v 0.004056 -0.370091 -0.071733
v 0.003125 -0.368914 -0.072248
v 0.003125 -0.369953 -0.072516
v 0.001732 -0.368797 -0.072893
v 0.001732 -0.369839 -0.073162
v -0.000018 -0.368755 -0.073120
v -0.000018 -0.369798 -0.073389
v 0.001732 -0.369839 -0.073162
v 0.004056 -0.370091 -0.071733
v 0.003125 -0.369953 -0.072516
v 0.004782 -0.370228 -0.070961
v -0.000018 -0.369798 -0.073389
v -0.000018 -0.376547 -0.039326
v 0.004882 -0.376547 -0.039326
v -0.004818 -0.370228 -0.070961
v -0.004918 -0.376547 -0.039326
v -0.001767 -0.369839 -0.073162
v -0.003160 -0.369953 -0.072516
v -0.004091 -0.370091 -0.071733
v 0.004382 -0.369179 -0.070796
v 0.003125 -0.368914 -0.072248
v 0.004056 -0.369067 -0.071410
v 0.001732 -0.368797 -0.072893
v -0.000018 -0.368755 -0.073120
v -0.000018 -0.375522 -0.039132
v 0.004382 -0.375522 -0.039132
v 0.005683 -0.358516 -0.059363
v 0.004383 -0.358516 -0.059363
v 0.005623 -0.364854 -0.061200
v 0.004383 -0.364853 -0.061188
vn -0.0000 0.9735 0.2289
vn 1.0000 -0.0000 -0.0000
vn 0.0245 -0.2267 0.9737
vn 0.0021 -0.1764 0.9843
vn -0.0000 -0.1762 0.9844
vn 0.0038 -0.2111 0.9775
vn -0.0277 -0.2231 0.9744
vn -0.0337 -0.1700 0.9849
vn -0.0000 -0.1694 0.9855
vn -1.0000 -0.0091 0.0023
vn -0.9999 -0.0099 0.0016
vn -0.9999 -0.0102 0.0015
vn -1.0000 -0.0096 0.0017
vn -1.0000 -0.0098 0.0017
vn -0.9999 -0.0099 0.0017
vn -0.9999 -0.0162 0.0002
vn 0.0074 0.6410 -0.7675
vn 0.0080 0.5868 -0.8097
vn 0.0075 0.5692 -0.8221
vn 0.0078 0.6498 -0.7601
vn -0.0310 0.7915 -0.6104
vn 0.0071 0.7760 -0.6307
vn -0.1488 0.8638 -0.4813
vn -0.2156 0.8814 -0.4204
vn -0.2876 0.8798 -0.3784
vn -0.3551 0.8807 -0.3135
vn -0.4907 0.8447 -0.2139
vn -0.4000 0.9119 -0.0921
vn -0.7939 0.5412 -0.2771
vn -0.8349 0.4859 -0.2585
vn -0.8641 0.3814 -0.3284
vn -0.9692 -0.2415 -0.0482
vn -0.8989 -0.4300 -0.0841
vn -0.9891 -0.1459 -0.0220
vn -0.7191 -0.6770 -0.1566
vn -0.7171 -0.6809 -0.1488
vn -0.6369 -0.7507 -0.1758
vn 0.0016 0.9795 0.2013
vn -0.0003 0.9838 0.1793
vn 0.0063 0.9814 0.1918
vn -0.0003 0.9839 0.1788
vn 0.0065 0.9789 0.2043
vn 0.0008 0.9805 0.1963
vn -0.0000 0.9805 0.1964
vn 0.0011 0.2642 -0.9645
vn 0.0080 0.2769 -0.9609
vn -0.0000 0.2784 -0.9605
vn 0.0091 0.2751 -0.9614
vn -0.7461 0.2660 -0.6104
vn -0.7840 0.2751 -0.5565
vn -0.8435 0.3812 -0.3783
vn -0.6951 0.2071 -0.6884
vn -0.5505 0.2175 -0.8060
vn -0.5384 0.2105 -0.8160
vn -0.2829 0.2397 -0.9287
vn -0.2926 0.2424 -0.9250
vn -0.1304 0.2477 -0.9600
vn -0.1303 0.2476 -0.9601
vn -1.0000 -0.0000 -0.0000
vn -0.0021 -0.1764 0.9843
vn -0.0245 -0.2267 0.9737
vn -0.0038 -0.2111 0.9775
vn 0.0277 -0.2231 0.9744
vn 0.0337 -0.1700 0.9849
vn 1.0000 -0.0091 0.0023
vn 0.9999 -0.0099 0.0016
vn 0.9999 -0.0102 0.0015
vn 1.0000 -0.0096 0.0017
vn 1.0000 -0.0098 0.0017
vn 0.9999 -0.0099 0.0017
vn 0.9999 -0.0162 0.0002
vn 0.8641 0.3814 -0.3284
vn 0.7940 0.5411 -0.2771
vn 0.8349 0.4859 -0.2586
vn 0.4907 0.8446 -0.2139
vn 0.4000 0.9119 -0.0921
vn 0.3551 0.8807 -0.3135
vn 0.2876 0.8798 -0.3784
vn 0.2156 0.8814 -0.4204
vn 0.1488 0.8638 -0.4813
vn 0.0310 0.7915 -0.6104
vn -0.0071 0.7760 -0.6307
vn -0.0078 0.6498 -0.7601
vn -0.0074 0.6410 -0.7675
vn -0.0080 0.5868 -0.8097
vn -0.0074 0.5692 -0.8221
vn 0.8989 -0.4300 -0.0841
vn 0.9692 -0.2415 -0.0482
vn 0.9890 -0.1459 -0.0219
vn 0.7191 -0.6771 -0.1566
vn 0.7171 -0.6809 -0.1488
vn 0.6368 -0.7507 -0.1758
vn 0.7840 0.2750 -0.5565
vn 0.7461 0.2660 -0.6104
vn 0.8435 0.3812 -0.3783
vn 0.6951 0.2071 -0.6884
vn 0.5505 0.2175 -0.8060
vn 0.5384 0.2105 -0.8160
vn 0.2829 0.2397 -0.9287
vn 0.2926 0.2424 -0.9250
vn 0.1304 0.2477 -0.9600
vn 0.1303 0.2476 -0.9601
vn -0.0002 -0.9849 -0.1733
vn 0.0015 -0.9844 -0.1760
vn -0.0005 -0.9849 -0.1733
vn 0.0083 -0.9814 -0.1916
vn -0.0000 -0.9819 -0.1893
vn -0.0000 -0.9843 -0.1763
vn -0.0000 -0.9771 -0.2127
vn -0.0084 -0.9814 -0.1916
vn 0.0005 -0.9849 -0.1733
vn -0.0004 -0.9846 -0.1746
vn -0.0048 -0.9838 -0.1791
vn 0.0003 0.9838 0.1793
vn -0.0015 0.9795 0.2013
vn -0.0063 0.9814 0.1918
vn 0.0003 0.9839 0.1788
vn -0.0063 0.9789 0.2043
vn -0.0007 0.9805 0.1963
vn -0.0080 0.2769 -0.9609
vn -0.0012 0.2642 -0.9645
vn -0.0091 0.2751 -0.9614
vt 1.974810 0.484353
vt 1.971860 0.541199
vt 1.975050 0.541199
vt 1.971860 0.484353
vt 1.613570 0.685085
vt 1.670450 0.653671
vt 1.614080 0.655559
vt 1.671780 0.669926
vt 1.673370 0.673577
vt 1.675690 0.676964
vt 1.679280 0.679769
vt 1.681950 0.681440
vt 1.687000 0.683809
vt 1.692810 0.685085
vt 1.743660 0.114877
vt 1.714920 0.112024
vt 1.714910 0.114991
vt 1.744220 0.112158
vt 1.745530 0.114634
vt 1.746780 0.113394
vt 1.746780 0.101272
vt 1.744220 0.101271
vt 1.212500 0.683915
vt 1.181870 0.741327
vt 1.210620 0.740731
vt 1.196360 0.682539
vt 1.192740 0.680937
vt 1.189380 0.678590
vt 1.186390 0.675635
vt 1.183920 0.672545
vt 1.181870 0.669472
vt 1.988960 0.941236
vt 1.985830 0.945396
vt 1.988960 0.945170
vt 1.985830 0.941456
vt 1.988960 0.937170
vt 1.985830 0.937388
vt 1.985830 0.933217
vt 1.988960 0.932653
vt 1.985830 0.929300
vt 1.988960 0.929519
vt 1.985830 0.925640
vt 1.988960 0.923961
vt 1.988960 0.918054
vt 1.985310 0.921478
vt 1.986600 0.917008
vt 1.351900 0.184063
vt 1.280820 0.181929
vt 1.280620 0.183818
vt 1.355590 0.182093
vt 1.280690 0.180167
vt 1.359850 0.180167
vt 1.084810 0.823956
vt 1.082720 0.821654
vt 1.081190 0.820845
vt 1.086420 0.827400
vt 1.086980 0.831728
vt 1.001950 0.831728
vt 1.001950 0.820845
vt 1.953770 0.610331
vt 1.956880 0.626649
vt 1.956880 0.610331
vt 1.953770 0.626649
vt 1.866400 0.993461
vt 1.868520 0.996195
vt 1.868520 0.993461
vt 1.866400 0.996195
vt 1.863430 0.993461
vt 1.863430 0.996195
vt 1.859750 0.993461
vt 1.859750 0.996195
vt 1.855540 0.993461
vt 1.855540 0.996195
vt 0.971863 0.541199
vt 0.974807 0.484353
vt 0.975053 0.541199
vt 0.971863 0.484353
vt 0.670446 0.653671
vt 0.613575 0.685085
vt 0.614080 0.655559
vt 0.671780 0.669926
vt 0.673368 0.673577
vt 0.675692 0.676964
vt 0.679278 0.679769
vt 0.681950 0.681440
vt 0.686996 0.683809
vt 0.692812 0.685085
vt 0.714923 0.112024
vt 0.743662 0.114877
vt 0.714909 0.114991
vt 0.744215 0.112158
vt 0.745531 0.114634
vt 0.746777 0.113394
vt 0.746781 0.101272
vt 0.744218 0.101271
vt 0.181872 0.741327
vt 0.212500 0.683915
vt 0.210622 0.740731
vt 0.196365 0.682539
vt 0.192742 0.680937
vt 0.189381 0.678590
vt 0.186387 0.675635
vt 0.183917 0.672545
vt 0.181872 0.669472
vt 0.986603 0.917008
vt 0.988963 0.918054
vt 0.985305 0.921478
vt 0.985833 0.925640
vt 0.988963 0.923961
vt 0.988963 0.929519
vt 0.985833 0.929300
vt 0.988963 0.932653
vt 0.985833 0.933217
vt 0.988963 0.937170
vt 0.985833 0.937388
vt 0.985833 0.941456
vt 0.988963 0.941236
vt 0.985833 0.945396
vt 0.988963 0.945170
vt 0.280819 0.181929
vt 0.351904 0.184063
vt 0.280621 0.183818
vt 0.355588 0.182093
vt 0.280692 0.180167
vt 0.359846 0.180167
vt 0.868524 0.996195
vt 0.866403 0.993461
vt 0.868524 0.993461
vt 0.866403 0.996195
vt 0.863433 0.993461
vt 0.863433 0.996195
vt 0.859753 0.993461
vt 0.859753 0.996195
vt 0.855536 0.993461
vt 0.855536 0.996195
vt 0.523406 0.721064
vt 0.521455 0.723365
vt 0.525015 0.717619
vt 0.519532 0.725164
vt 0.525580 0.713291
vt 0.440377 0.713291
vt 0.440377 0.725411
vt 0.519532 0.701418
vt 0.440377 0.701171
vt 0.525015 0.708963
vt 0.523406 0.705518
vt 0.521455 0.703217
vt 0.082720 0.821654
vt 0.084809 0.823956
vt 0.081187 0.820845
vt 0.086419 0.827400
vt 0.086984 0.831728
vt 0.001953 0.831728
vt 0.001953 0.820845
vt 0.956883 0.626649
vt 0.953768 0.610331
vt 0.956883 0.610331
vt 0.953768 0.626649
s 0
f 3/1/1 2/2/1 1/3/1
f 2/2/1 3/1/1 4/4/1
f 7/5/2 6/6/2 5/7/2
f 8/8/2 6/6/2 7/5/2
f 9/9/2 8/8/2 7/5/2
f 10/10/2 9/9/2 7/5/2
f 11/11/2 10/10/2 7/5/2
f 12/12/2 11/11/2 7/5/2
f 7/5/2 13/13/2 12/12/2
f 7/5/2 14/14/2 13/13/2
s 1
f 17/15/3 16/16/4 15/17/5
f 16/16/4 17/15/3 18/18/6
f 19/19/7 18/18/6 17/15/3
f 20/20/8 18/18/6 19/19/7
f 21/21/9 18/18/6 20/20/8
f 18/18/6 21/21/9 22/22/9
s 0
f 25/23/10 24/24/10 23/25/10
f 26/26/11 24/24/11 25/23/11
f 26/26/12 27/27/12 24/24/12
f 28/28/13 24/24/13 27/27/13
f 29/29/14 24/24/14 28/28/14
f 30/30/15 24/24/15 29/29/15
f 31/31/16 24/24/16 30/30/16
s 1
f 34/32/17 33/33/18 32/34/19
f 33/33/18 34/32/17 35/35/20
f 36/36/21 35/35/20 34/32/17
f 35/35/20 36/36/21 37/37/22
f 36/36/21 38/38/23 37/37/22
f 38/38/23 36/36/21 39/39/24
f 39/39/24 40/40/25 38/38/23
f 40/40/25 39/39/24 41/41/26
f 41/41/26 42/42/27 40/40/25
f 42/42/27 41/41/26 43/43/28
f 42/42/27 43/43/28 44/44/29
f 42/42/27 44/44/29 45/45/30
f 44/44/29 46/46/31 45/45/30
f 49/47/32 48/48/33 47/49/34
f 48/48/33 49/47/32 50/50/35
f 50/50/35 51/51/36 48/48/33
f 51/51/36 50/50/35 52/52/37
f 55/53/38 54/54/39 53/55/40
f 53/55/40 56/56/41 55/53/38
f 56/56/41 53/55/40 57/57/42
f 53/55/40 58/58/43 57/57/42
f 58/58/43 53/55/40 59/59/44
f 62/60/45 61/61/46 60/62/47
f 61/61/46 62/60/45 63/63/48
f 66/64/49 65/65/50 64/66/51
f 65/65/50 66/64/49 67/67/52
f 68/68/53 67/67/52 66/64/49
f 67/67/52 68/68/53 69/69/54
f 70/70/55 69/69/54 68/68/53
f 69/69/54 70/70/55 71/71/56
f 72/72/57 71/71/56 70/70/55
f 71/71/56 72/72/57 73/73/58
s 0
f 76/74/1 75/75/1 74/76/1
f 75/75/1 76/74/1 77/77/1
f 80/78/59 79/79/59 78/80/59
f 80/78/59 81/81/59 79/79/59
f 81/81/59 82/82/59 79/79/59
f 82/82/59 83/83/59 79/79/59
f 83/83/59 84/84/59 79/79/59
f 84/84/59 85/85/59 79/79/59
f 86/86/59 79/79/59 85/85/59
f 87/87/59 79/79/59 86/86/59
s 1
f 90/88/60 89/89/61 88/90/5
f 89/89/61 90/88/60 91/91/62
f 91/91/62 92/92/63 89/89/61
f 91/91/62 93/93/64 92/92/63
f 91/91/62 94/94/9 93/93/64
f 94/94/9 91/91/62 95/95/9
s 0
f 98/96/65 97/97/65 96/98/65
f 98/96/66 99/99/66 97/97/66
f 100/100/67 99/99/67 98/96/67
f 98/96/68 101/101/68 100/100/68
f 98/96/69 102/102/69 101/101/69
f 98/96/70 103/103/70 102/102/70
f 98/96/71 104/104/71 103/103/71
s 1
f 107/105/72 106/106/73 105/107/74
f 106/106/73 108/108/75 105/107/74
f 109/109/76 108/108/75 106/106/73
f 110/110/77 108/108/75 109/109/76
f 108/108/75 110/110/77 111/111/78
f 112/112/79 111/111/78 110/110/77
f 111/111/78 112/112/79 113/113/80
f 114/114/81 113/113/80 112/112/79
f 113/113/80 114/114/81 115/115/82
f 114/114/81 116/116/83 115/115/82
f 116/116/83 114/114/81 117/117/84
f 117/117/84 118/118/85 116/116/83
f 118/118/85 117/117/84 119/119/86
f 122/120/87 121/121/88 120/122/89
f 121/121/88 122/120/87 123/123/90
f 124/124/91 123/123/90 122/120/87
f 123/123/90 124/124/91 125/125/92
f 128/126/93 127/127/94 126/128/95
f 127/127/94 128/126/93 129/129/96
f 129/129/96 130/130/97 127/127/94
f 130/130/97 129/129/96 131/131/98
f 131/131/98 132/132/99 130/130/97
f 132/132/99 131/131/98 133/133/100
f 133/133/100 134/134/101 132/132/99
f 134/134/101 133/133/100 135/135/102
f 138/136/103 137/137/104 136/138/105
f 139/139/106 136/138/105 137/137/104
f 136/138/105 139/139/106 140/140/107
f 139/139/106 141/141/108 140/140/107
f 141/141/108 139/139/106 142/142/109
f 141/141/108 143/143/110 140/140/107
f 143/143/110 141/141/108 144/144/109
f 143/143/110 145/145/111 140/140/107
f 145/145/111 143/143/110 146/146/112
f 147/147/113 146/146/112 143/143/110
f 150/148/114 149/149/115 148/150/116
f 151/151/117 148/150/116 149/149/115
f 148/150/116 151/151/117 152/152/118
f 153/153/119 148/150/116 152/152/118
f 148/150/116 153/153/119 154/154/44
f 157/155/120 156/156/121 155/157/47
f 156/156/121 157/155/120 158/158/122
