# Blender 3.6.1
# www.blender.org
o Reciever
v -0.010712 -0.005227 0.057305
v -0.012380 0.010000 0.060000
v -0.012380 -0.010000 -0.060000
v -0.009910 0.010000 -0.052415
v 0.010712 -0.005227 0.057305
v 0.012380 0.010000 0.060000
v 0.012380 -0.010000 -0.060000
v 0.009910 0.010000 -0.052415
v -0.012380 -0.010000 -0.020000
v -0.010712 -0.005227 0.022695
v 0.010712 -0.005227 0.022695
v 0.012380 -0.010000 -0.020000
v -0.004127 -0.007413 0.060000
v 0.004127 -0.007413 0.060000
v -0.004127 -0.010000 -0.020000
v -0.004127 -0.007413 0.020000
v 0.004127 -0.010000 -0.020000
v 0.004127 -0.007413 0.020000
v 0.012380 -0.010000 -0.020000
v -0.012380 -0.010000 -0.020000
v -0.004127 -0.010000 -0.020000
v 0.004127 -0.010000 -0.020000
v 0.010602 -0.090000 -0.076408
v -0.010602 -0.090000 -0.076408
v -0.010602 -0.090000 -0.041411
v 0.010602 -0.090000 -0.041411
v 0.012380 -0.090000 -0.078909
v -0.012380 -0.090000 -0.078909
v -0.004127 -0.090000 -0.038909
v -0.012380 -0.090000 -0.038909
v 0.004127 -0.090000 -0.038909
v 0.012380 -0.090000 -0.038909
v -0.012380 0.010000 0.020000
v -0.002310 0.014566 -0.019943
v 0.002310 0.014566 -0.019943
v 0.012380 0.010000 0.020000
v 0.004127 0.010000 0.060000
v -0.004127 0.010000 0.060000
v 0.004127 0.010000 0.020000
v -0.004127 0.010000 0.020000
v -0.012380 0.010000 -0.020000
v -0.012380 0.010000 -0.060000
v 0.004127 0.010000 -0.060000
v 0.012380 0.010000 -0.060000
v -0.004127 0.010000 -0.060000
v 0.012380 0.010000 -0.020000
v 0.004127 0.010000 -0.008292
v -0.004127 0.010000 -0.008292
v 0.004127 -0.001426 0.060000
v -0.004127 -0.001426 0.060000
v 0.004127 -0.001426 0.020000
v 0.004127 -0.001426 -0.008292
v -0.004127 -0.001426 0.020000
v -0.004127 -0.001426 -0.008292
v -0.001376 0.010000 -0.008292
v 0.001376 0.010000 -0.008292
v -0.001376 -0.001426 -0.008292
v 0.001376 -0.001426 -0.008292
v -0.004127 0.002383 -0.008292
v -0.004127 0.006191 -0.008292
v 0.004127 0.006191 -0.008292
v 0.004127 0.002383 -0.008292
v 0.001376 0.006191 -0.008292
v 0.001376 0.002383 -0.008292
v -0.001376 0.006191 -0.008292
v -0.001376 0.002383 -0.008292
v 0.001376 0.006191 0.063413
v 0.001376 0.002383 0.063413
v -0.001376 0.006191 0.063413
v -0.001376 0.002383 0.063413
v 0.004127 0.024324 -0.008292
v 0.001376 0.024324 -0.008292
v -0.004127 0.024324 -0.008292
v -0.002310 0.019759 -0.019943
v 0.002310 0.019759 -0.019943
v -0.001376 0.024324 -0.008292
v 0.004127 0.029417 -0.008292
v 0.001376 0.029417 -0.008292
v -0.004127 0.029417 -0.008292
v -0.009910 0.029417 -0.022501
v 0.009910 0.029417 -0.022501
v -0.001376 0.029417 -0.008292
v -0.004127 0.014775 -0.008292
v -0.004127 0.019549 -0.008292
v 0.004127 0.014775 -0.008292
v 0.004127 0.019549 -0.008292
v -0.001376 0.010000 0.069435
v 0.001376 0.010000 0.069435
v -0.001376 0.024324 0.069435
v 0.001376 0.024324 0.069435
v 0.001376 0.014775 0.069435
v -0.001376 0.019549 0.069435
v -0.004127 0.014775 0.069435
v -0.004127 0.019549 0.069435
v 0.004127 0.014775 0.069435
v 0.004127 0.019549 0.069435
v 0.001376 0.019549 0.069435
v -0.001376 0.014775 0.069435
v -0.009910 0.010000 -0.022501
v 0.009910 0.010000 -0.022501
v -0.009910 0.024324 -0.022501
v 0.009910 0.024324 -0.022501
v -0.006685 0.011636 -0.022501
v 0.006685 0.011636 -0.022501
v 0.006685 0.022688 -0.022501
v -0.006685 0.022688 -0.022501
vn -0.9989 -0.0455 0.0079
vn -0.0000 -0.0000 -1.0000
vn 0.9989 -0.0455 0.0079
vn -0.1506 -0.1088 0.9826
vn 0.3150 -0.9491 -0.0000
vn -0.0000 1.0000 -0.0000
vn -0.3150 -0.9491 -0.0000
vn -0.0000 -1.0000 -0.0000
vn -0.1290 -0.9875 0.0905
vn -0.0000 -0.9979 0.0645
vn 0.1290 -0.9875 0.0905
vn -0.0000 0.2300 -0.9732
vn -0.0000 0.1858 -0.9826
vn -1.0000 -0.0000 -0.0000
vn -0.0000 -0.2300 0.9732
vn 1.0000 -0.0000 -0.0000
vn 0.9262 -0.0000 0.3770
vn 1.0000 -0.0069 -0.0000
vn -1.0000 -0.0069 -0.0000
vn -0.0000 -0.2333 0.9724
vn -0.0000 -0.0000 1.0000
vn 0.1506 -0.1088 0.9826
vn 0.9999 -0.0000 -0.0105
vn -0.9262 -0.0000 0.3770
vn -0.8665 0.4993 -0.0000
vn 0.8665 -0.4993 -0.0000
vn 0.8665 0.4993 -0.0000
vn -0.8665 -0.4993 -0.0000
vn -0.0000 1.0000 -0.0023
vn -0.0000 -1.0000 -0.0023
vn -0.9999 -0.0000 -0.0105
vn 0.5046 -0.0000 -0.8633
vn -0.5046 -0.0000 -0.8633
vn -0.0000 -0.6577 -0.7533
vn -0.0000 0.6577 -0.7533
vt 0.375000 0.000000
vt 0.625000 0.000000
vt 0.625000 0.083333
vt 0.625000 0.166667
vt 0.625000 0.250000
vt 0.375000 0.250000
vt 0.375000 0.166667
vt 0.375000 0.083333
vt 0.625000 0.333333
vt 0.625000 0.416667
vt 0.625000 0.500000
vt 0.375000 0.500000
vt 0.625000 0.583333
vt 0.625000 0.666667
vt 0.625000 0.750000
vt 0.375000 0.750000
vt 0.375000 0.666667
vt 0.375000 0.583333
vt 0.375000 1.000000
vt 0.625000 0.916667
vt 0.625000 1.000000
vt 0.291667 0.666667
vt 0.291667 0.750000
vt 0.791667 0.666667
vt 0.875000 0.666667
vt 0.875000 0.750000
vt 0.791667 0.750000
vt 0.125000 0.666667
vt 0.208333 0.666667
vt 0.208333 0.750000
vt 0.125000 0.750000
vt 0.291667 0.583333
vt 0.125000 0.583333
vt 0.208333 0.583333
vt 0.850059 0.558392
vt 0.649941 0.558392
vt 0.362876 0.559546
vt 0.190990 0.517343
vt 0.369168 0.505832
vt 0.326965 0.333946
vt 0.708333 0.583333
vt 0.708333 0.666667
vt 0.708333 0.750000
vt 0.791667 0.583333
vt 0.875000 0.583333
vt 0.850059 0.524941
vt 0.875000 0.500000
vt 0.649941 0.524941
vt 0.708333 0.500000
vt 0.791667 0.500000
vt 0.736111 0.583333
vt 0.763889 0.583333
vt 0.625000 0.833333
vt 0.375000 0.833333
vt 0.375000 0.916667
vt 0.763889 0.583333
vt 0.783967 0.558392
vt 0.783967 0.558392
vt 0.716033 0.558392
vt 0.817013 0.558392
vt 0.682987 0.558392
vt 0.817013 0.558392
s 0
f 1/1/1 2/2/1 33/3/1 41/4/1 42/5/1 3/6/1 9/7/1 10/8/1
f 3/6/2 42/5/2 45/9/2 43/10/2 44/11/2 7/12/2
f 7/12/3 44/11/3 46/13/3 36/14/3 6/15/3 5/16/3 11/17/3 12/18/3
f 1/19/4 50/20/4 38/20/4 2/21/4
f 18/22/5 11/17/5 5/16/5 14/23/5
f 40/24/6 33/25/6 2/26/6 38/27/6
f 10/28/7 16/29/7 13/30/7 1/31/7
f 16/29/8 18/22/8 14/23/8 13/30/8
f 12/18/6 17/32/6 22/32/6 19/18/6
f 9/33/9 15/34/9 16/29/9 10/28/9
f 17/32/6 15/34/6 21/34/6 22/32/6
f 15/34/10 17/32/10 18/22/10 16/29/10
f 17/32/11 12/18/11 11/17/11 18/22/11
f 9/7/6 3/6/6 20/7/6
f 15/34/6 9/33/6 20/33/6 21/34/6
f 7/12/6 12/18/6 19/18/6
f 3/6/12 7/12/12 27/12/12 28/6/12
f 99/35/13 100/36/13 26/37/13 25/38/13
f 20/7/14 3/6/14 28/6/14 30/7/14
f 22/32/15 21/34/15 29/34/15 31/32/15
f 7/12/16 19/18/16 32/18/16 27/12/16
f 19/18/15 22/32/15 31/32/15 32/18/15
f 21/34/15 20/33/15 30/33/15 29/34/15
f 23/39/8 24/40/8 28/6/8 27/12/8
f 102/36/17 81/36/17 77/41/17 71/41/17 86/41/17 85/41/17 47/41/17 100/36/17
f 24/40/8 25/38/8 30/33/8 28/6/8
f 26/37/8 23/39/8 27/12/8 32/18/8
f 36/14/6 39/42/6 37/43/6 6/15/6
f 39/42/14 47/41/14 61/41/14 62/41/14 52/41/14 51/42/14
f 46/13/6 47/41/6 39/42/6 36/14/6
f 48/44/16 40/24/16 53/24/16 54/44/16 59/44/16 60/44/16
f 48/44/6 41/45/6 33/25/6 40/24/6
f 4/46/18 99/35/18 25/38/18 24/40/18
f 99/35/6 4/46/6 42/47/6 41/45/6
f 8/48/6 100/36/6 46/13/6 44/11/6
f 8/48/6 44/11/6 43/49/6 45/50/6 42/47/6 4/46/6
f 25/38/8 26/37/8 32/18/8 31/32/8 29/34/8 30/33/8
f 100/36/19 8/48/19 23/39/19 26/37/19
f 8/48/20 4/46/20 24/40/20 23/39/20
f 51/42/6 53/24/6 50/27/6 49/43/6
f 52/41/6 58/51/6 57/52/6 54/44/6 53/24/6 51/42/6
f 66/52/21 59/44/21 54/44/21 57/52/21
f 40/24/16 38/27/16 50/27/16 53/24/16
f 37/43/14 39/42/14 51/42/14 49/43/14
f 5/16/22 6/15/22 37/53/22 49/53/22
f 14/54/21 5/16/21 49/53/21 50/20/21 1/19/21 13/55/21
f 62/41/21 64/51/21 58/51/21 52/41/21
f 64/51/21 66/52/21 57/52/21 58/51/21
f 47/41/21 56/51/21 63/51/21 61/41/21
f 61/41/21 63/51/21 64/51/21 62/41/21
f 56/51/21 55/52/21 65/56/21 63/51/21
f 66/52/8 64/51/8 68/51/8 70/52/8
f 55/52/21 48/44/21 60/44/21 65/56/21
f 65/56/21 60/44/21 59/44/21 66/52/21
f 67/51/21 69/56/21 70/52/21 68/51/21
f 65/56/14 66/52/14 70/52/14 69/56/14
f 63/51/6 65/56/6 69/56/6 67/51/6
f 64/51/16 63/51/16 67/51/16 68/51/16
f 81/36/6 80/35/6 79/44/6 82/52/6 78/51/6 77/41/6
f 86/41/21 71/41/21 72/51/21
f 34/57/23 74/58/23 92/52/23 98/56/23
f 100/36/6 47/41/6 46/13/6
f 72/51/6 76/52/6 89/52/6 90/51/6
f 80/35/24 101/35/24 99/35/24 48/44/24 83/44/24 84/44/24 73/44/24 79/44/24
f 76/52/21 72/51/21 78/51/21 82/52/21
f 102/36/2 101/35/2 80/35/2 81/36/2
f 72/51/21 71/41/21 77/41/21 78/51/21
f 73/44/21 76/52/21 82/52/21 79/44/21
f 84/44/14 83/44/14 93/44/14 94/44/14
f 85/41/16 86/41/16 96/41/16 95/41/16
f 76/52/25 84/44/25 94/44/25 89/52/25
f 56/51/26 85/41/26 95/41/26 88/51/26
f 56/51/21 47/41/21 85/41/21
f 55/52/8 56/51/8 88/51/8 87/52/8
f 73/44/21 84/44/21 76/52/21
f 86/41/27 72/51/27 90/51/27 96/41/27
f 83/44/28 55/52/28 87/52/28 93/44/28
f 48/44/21 55/52/21 83/44/21
f 94/44/21 92/52/21 89/52/21
f 92/52/21 97/51/21 90/51/21 89/52/21
f 87/52/21 88/51/21 91/51/21 98/56/21
f 35/59/29 34/57/29 98/56/29 91/51/29
f 87/52/21 98/56/21 93/44/21
f 93/44/21 98/56/21 92/52/21 94/44/21
f 91/51/21 95/41/21 96/41/21 97/51/21
f 97/51/21 96/41/21 90/51/21
f 91/51/21 88/51/21 95/41/21
f 103/60/2 104/61/2 100/36/2 99/35/2
f 105/61/2 106/62/2 101/35/2 102/36/2
f 104/61/2 105/61/2 102/36/2 100/36/2
f 106/62/2 103/60/2 99/35/2 101/35/2
f 74/58/30 75/59/30 97/51/30 92/52/30
f 75/59/31 35/59/31 91/51/31 97/51/31
f 74/58/32 34/57/32 103/60/32 106/62/32
f 35/59/33 75/59/33 105/61/33 104/61/33
f 75/59/34 74/58/34 106/62/34 105/61/34
f 34/57/35 35/59/35 104/61/35 103/60/35
f 48/44/6 99/35/6 41/45/6
