# Blender 3.6.1
# www.blender.org
o Magazine_Spring
v -0.030289 -0.120751 0.007526
v 0.030289 -0.120751 0.007526
v 0.030289 -0.120832 -0.006085
v -0.030289 -0.120832 -0.006085
v 0.030044 -0.100765 0.007407
v 0.030044 -0.100846 -0.006204
v -0.030289 -0.100782 0.007407
v -0.030289 -0.100863 -0.006204
v 0.030044 -0.080797 0.007288
v 0.030044 -0.080878 -0.006323
v -0.030289 -0.080814 0.007288
v -0.030289 -0.080895 -0.006323
v 0.030044 -0.060829 0.007169
v 0.030044 -0.060910 -0.006442
v -0.030289 -0.060846 0.007169
v -0.030289 -0.060927 -0.006442
v 0.030044 -0.040860 0.007050
v 0.030044 -0.040942 -0.006561
v -0.030289 -0.040877 0.007050
v -0.030289 -0.040959 -0.006561
v 0.030044 -0.020892 0.006930
v 0.030044 -0.020973 -0.006681
v -0.030289 -0.020909 0.006931
v -0.030289 -0.020990 -0.006681
v 0.030044 -0.000924 0.006811
v 0.030044 -0.001005 -0.006800
v -0.030289 -0.000265 0.006807
v -0.030289 -0.000346 -0.006804
vn -0.0000 1.0000 -0.0060
vn 0.3145 -0.9493 0.0057
vn -0.0003 1.0000 -0.0060
vn 0.0109 0.9999 -0.0060
vt 0.000000 0.000000
vt 1.000000 0.000000
vt 1.000000 1.000000
vt 0.000000 1.000000
s 0
f 1/1/1 2/2/1 3/3/1 4/4/1
f 1/1/2 4/4/2 6/4/2 5/1/2
f 7/1/3 5/2/3 6/3/3 8/4/3
f 7/1/2 8/4/2 10/4/2 9/1/2
f 11/1/3 9/2/3 10/3/3 12/4/3
f 11/1/2 12/4/2 14/4/2 13/1/2
f 15/1/3 13/2/3 14/3/3 16/4/3
f 15/1/2 16/4/2 18/4/2 17/1/2
f 19/1/3 17/2/3 18/3/3 20/4/3
f 19/1/2 20/4/2 22/4/2 21/1/2
f 23/1/3 21/2/3 22/3/3 24/4/3
f 23/1/2 24/4/2 26/4/2 25/1/2
f 25/1/4 26/4/4 28/4/4 27/1/4
