# Blender 4.4.3
# www.blender.org
o Leg_Attachment
v -0.092699 -0.159753 -0.151448
v -0.092699 -0.125341 -0.161862
v -0.092699 -0.162303 -0.159874
v -0.092699 -0.127890 -0.170288
v -0.012434 -0.191255 -0.171482
v -0.012434 -0.110233 -0.196002
v -0.012434 -0.186424 -0.155517
v -0.012434 -0.105402 -0.180037
v -0.092699 -0.173838 -0.160498
v -0.092699 -0.169006 -0.144533
v -0.092699 -0.113806 -0.161238
v -0.092699 -0.118637 -0.177203
v -0.130538 -0.148159 -0.237262
v -0.130538 -0.182571 -0.226847
v -0.139341 -0.148159 -0.237262
v -0.139341 -0.182571 -0.226847
v -0.130579 -0.159753 -0.151448
v -0.139341 -0.162291 -0.159834
v -0.136934 -0.160450 -0.153752
v -0.139341 -0.127879 -0.170249
v -0.130579 -0.125341 -0.161862
v -0.136934 -0.126038 -0.164166
v -0.130538 -0.162867 -0.161738
v -0.128590 -0.162303 -0.159874
v -0.130547 -0.161739 -0.158009
v -0.132486 -0.162300 -0.159865
v -0.130003 -0.162458 -0.160386
v -0.128590 -0.127890 -0.170288
v -0.130538 -0.128455 -0.172153
v -0.132486 -0.127888 -0.170279
v -0.130547 -0.127326 -0.168423
v -0.130003 -0.128046 -0.170800
v -0.052566 -0.183559 -0.169335
v -0.052566 -0.110616 -0.173982
v -0.052566 -0.115448 -0.189947
v -0.052566 -0.178727 -0.153369
v 0.067832 -0.159753 -0.151448
v 0.067832 -0.125341 -0.161862
v 0.067832 -0.162303 -0.159874
v 0.067832 -0.127890 -0.170288
v 0.067832 -0.173838 -0.160498
v 0.067832 -0.169006 -0.144533
v 0.067832 -0.113806 -0.161238
v 0.067832 -0.118637 -0.177203
v 0.105671 -0.148159 -0.237262
v 0.105671 -0.182571 -0.226847
v 0.114474 -0.148159 -0.237262
v 0.114474 -0.182571 -0.226847
v 0.105712 -0.159753 -0.151448
v 0.114474 -0.162291 -0.159834
v 0.112067 -0.160450 -0.153752
v 0.114474 -0.127879 -0.170249
v 0.105712 -0.125341 -0.161862
v 0.112067 -0.126038 -0.164166
v 0.105671 -0.162867 -0.161738
v 0.103722 -0.162303 -0.159874
v 0.105680 -0.161739 -0.158009
v 0.107619 -0.162300 -0.159865
v 0.105135 -0.162458 -0.160386
v 0.103722 -0.127890 -0.170288
v 0.105671 -0.128455 -0.172153
v 0.107619 -0.127888 -0.170279
v 0.105680 -0.127326 -0.168423
v 0.105135 -0.128046 -0.170800
v 0.027699 -0.183559 -0.169335
v 0.027699 -0.110616 -0.173982
v 0.027699 -0.115448 -0.189947
v 0.027699 -0.178727 -0.153369
vn -0.0000 0.9571 -0.2897
vn 0.2704 0.2789 0.9215
vn -0.1657 0.9439 -0.2857
vn -0.1657 -0.9439 0.2857
vn -0.1062 -0.2880 -0.9517
vn -1.0000 -0.0000 -0.0000
vn -0.0000 -0.9571 0.2897
vn -0.0000 0.2897 0.9571
vn -0.0000 -0.2897 -0.9571
vn -0.3543 0.2709 0.8951
vn -0.9351 0.1026 0.3391
vn 0.3543 -0.2709 -0.8951
vn 0.9351 -0.1026 -0.3391
vn 1.0000 -0.0000 -0.0000
vn -0.2704 -0.2789 -0.9215
vn 0.1062 0.2880 0.9517
vn -0.2704 0.2789 0.9215
vn 0.1657 0.9439 -0.2857
vn 0.1657 -0.9439 0.2857
vn 0.1062 -0.2880 -0.9517
vn 0.3543 0.2709 0.8951
vn 0.9351 0.1026 0.3391
vn -0.3543 -0.2709 -0.8951
vn -0.9351 -0.1026 -0.3391
vn 0.2704 -0.2789 -0.9215
vn -0.1062 0.2880 0.9517
vt 0.607927 0.190970
vt 0.375000 0.937500
vt 0.625000 0.937500
vt 0.625000 1.000000
vt 0.375000 1.000000
vt 0.812500 0.500000
vt 0.875000 0.500000
vt 0.875000 0.750000
vt 0.812500 0.750000
vt 0.187500 0.500000
vt 0.250000 0.500000
vt 0.250000 0.750000
vt 0.187500 0.750000
vt 0.375000 0.312500
vt 0.625000 0.312500
vt 0.625000 0.375000
vt 0.375000 0.375000
vt 0.392073 0.059030
vt 0.392073 0.190970
vt 0.375000 0.250000
vt 0.375000 0.000000
vt 0.607927 0.059030
vt 0.625000 0.000000
vt 0.625000 0.250000
vt 0.392073 0.161770
vt 0.392073 0.059030
vt 0.392073 0.071057
vt 0.607927 0.190970
vt 0.607927 0.161770
vt 0.607927 0.190834
vt 0.607927 0.190356
vt 0.607927 0.071057
vt 0.392073 0.190356
vt 0.392073 0.190970
vt 0.125000 0.500000
vt 0.125000 0.750000
vt 0.750000 0.500000
vt 0.750000 0.750000
vt 0.375000 0.875000
vt 0.625000 0.875000
s 0
f 20/1/1 30/1/1 29/1/1 13/1/1 15/1/1
f 36/2/2 34/3/2 11/4/2 10/5/2
f 35/6/3 12/7/3 11/8/3 34/9/3
f 33/10/4 5/11/4 7/12/4 36/13/4
f 33/14/5 35/15/5 6/16/5 5/17/5
f 1/18/6 3/19/6 9/20/6 10/21/6
f 2/22/6 1/18/6 10/21/6 11/23/6
f 4/1/6 2/22/6 11/23/6 12/24/6
f 3/19/6 4/1/6 12/24/6 9/20/6
f 26/19/7 25/25/7 17/26/7 19/27/7 18/19/7
f 3/19/7 1/18/7 17/26/7 25/25/7 24/19/7
f 1/18/8 2/22/8 21/22/8 17/26/8
f 4/1/9 3/19/9 24/19/9 28/1/9
f 32/28/1 30/1/1 31/29/1
f 13/1/9 14/19/9 16/19/9 15/1/9
f 18/19/6 20/1/6 15/1/6 16/19/6
f 23/19/7 26/19/7 18/19/7 16/19/7 14/19/7
f 21/22/1 31/29/1 30/30/1 20/31/1 22/32/1
f 17/26/10 21/22/10 22/32/10 19/27/10
f 19/27/11 22/32/11 20/31/11 18/33/11
f 2/22/1 4/1/1 28/1/1 31/29/1 21/22/1
f 27/34/7 24/19/7 25/25/7
f 32/28/1 29/1/1 30/1/1
f 28/1/12 24/19/12 27/34/12 32/28/12
f 32/28/13 27/34/13 23/19/13 29/1/13
f 29/1/14 23/19/14 14/19/14 13/1/14
f 28/1/1 32/28/1 31/29/1
f 27/34/7 25/25/7 26/19/7
f 23/19/7 27/34/7 26/19/7
f 9/20/15 12/24/15 35/15/15 33/14/15
f 9/35/4 33/10/4 36/13/4 10/36/4
f 6/37/3 35/6/3 34/9/3 8/38/3
f 7/39/16 8/40/16 34/3/16 36/2/16
f 52/1/1 47/1/1 45/1/1 61/1/1 62/1/1
f 68/2/17 42/5/17 43/4/17 66/3/17
f 67/6/18 66/9/18 43/8/18 44/7/18
f 65/10/19 68/13/19 7/12/19 5/11/19
f 65/14/20 5/17/20 6/16/20 67/15/20
f 37/18/14 42/21/14 41/20/14 39/19/14
f 38/22/14 43/23/14 42/21/14 37/18/14
f 40/1/14 44/24/14 43/23/14 38/22/14
f 39/19/14 41/20/14 44/24/14 40/1/14
f 58/19/7 50/19/7 51/27/7 49/26/7 57/25/7
f 39/19/7 56/19/7 57/25/7 49/26/7 37/18/7
f 37/18/8 49/26/8 53/22/8 38/22/8
f 40/1/9 60/1/9 56/19/9 39/19/9
f 64/28/1 63/29/1 62/1/1
f 45/1/9 47/1/9 48/19/9 46/19/9
f 50/19/14 48/19/14 47/1/14 52/1/14
f 55/19/7 46/19/7 48/19/7 50/19/7 58/19/7
f 53/22/1 54/32/1 52/31/1 62/30/1 63/29/1
f 49/26/21 51/27/21 54/32/21 53/22/21
f 51/27/22 50/33/22 52/31/22 54/32/22
f 38/22/1 53/22/1 63/29/1 60/1/1 40/1/1
f 59/34/7 57/25/7 56/19/7
f 64/28/1 62/1/1 61/1/1
f 60/1/23 64/28/23 59/34/23 56/19/23
f 64/28/24 61/1/24 55/19/24 59/34/24
f 61/1/6 45/1/6 46/19/6 55/19/6
f 60/1/1 63/29/1 64/28/1
f 59/34/7 58/19/7 57/25/7
f 55/19/7 58/19/7 59/34/7
f 41/20/25 65/14/25 67/15/25 44/24/25
f 41/35/19 42/36/19 68/13/19 65/10/19
f 6/37/18 8/38/18 66/9/18 67/6/18
f 7/39/26 68/2/26 66/3/26 8/40/26
