# Blender 4.4.3
# www.blender.org
o Ammo_Holder
v -0.049924 0.352641 0.165506
v -0.049924 0.448569 0.165506
v -0.027096 0.352641 0.165506
v -0.027096 0.448569 0.165506
v -0.049924 0.352982 0.259400
v -0.049924 0.448228 0.259400
v -0.027096 0.352709 0.259289
v -0.027096 0.448228 0.259400
v -0.049924 0.421627 0.153292
v -0.049924 0.379583 0.153292
v -0.027096 0.379583 0.153292
v -0.027096 0.421627 0.153292
v -0.049963 0.379583 0.143137
v -0.027096 0.379583 0.147987
v -0.027096 0.421627 0.147987
v -0.001348 0.421627 0.147987
v -0.001348 0.379583 0.147987
v -0.001348 0.379583 0.135902
v -0.036833 0.421627 0.135906
v -0.049963 0.421627 0.143137
v -0.046117 0.421627 0.138222
v -0.036833 0.379583 0.135906
v -0.046117 0.379583 0.138222
v -0.019338 0.382269 0.133776
v -0.023358 0.379583 0.135905
v -0.015316 0.379583 0.135904
v -0.001348 0.381784 0.123099
v -0.015316 0.421627 0.135904
v -0.001348 0.421627 0.135902
v -0.023358 0.421627 0.135905
v -0.019338 0.418941 0.133776
v -0.001348 0.418457 0.123099
v -0.001348 0.382269 0.133896
v -0.019057 0.418457 0.123100
v -0.019057 0.381784 0.123100
v -0.001348 0.418941 0.133930
v -0.049924 0.456470 0.157605
v -0.049924 0.344740 0.157605
v -0.027096 0.456470 0.157605
v -0.027096 0.344740 0.157605
v -0.049924 0.346702 0.265375
v -0.049924 0.344740 0.260726
v -0.027096 0.344740 0.260726
v -0.027096 0.346702 0.265375
v -0.049924 0.351437 0.267301
v -0.027096 0.351437 0.267301
v -0.027096 0.454508 0.265375
v -0.027096 0.456470 0.260726
v -0.049924 0.456470 0.260726
v -0.049924 0.454508 0.265375
v -0.027096 0.449773 0.267301
v -0.049924 0.449773 0.267301
v 0.047229 0.352641 0.165506
v 0.047229 0.448569 0.165506
v 0.024401 0.352641 0.165506
v 0.024401 0.448569 0.165506
v 0.047229 0.352982 0.259400
v 0.047229 0.448228 0.259400
v 0.024401 0.352709 0.259289
v 0.024401 0.448228 0.259400
v 0.047229 0.421627 0.153292
v 0.047229 0.379583 0.153292
v 0.024401 0.379583 0.153292
v 0.024401 0.421627 0.153292
v 0.047268 0.379583 0.143137
v 0.024401 0.379583 0.147987
v 0.024401 0.421627 0.147987
v 0.034138 0.421627 0.135906
v 0.047268 0.421627 0.143137
v 0.043422 0.421627 0.138222
v 0.034138 0.379583 0.135906
v 0.043422 0.379583 0.138222
v 0.016643 0.382269 0.133776
v 0.020663 0.379583 0.135905
v 0.012621 0.379583 0.135904
v 0.012621 0.421627 0.135904
v 0.020663 0.421627 0.135905
v 0.016643 0.418941 0.133776
v 0.016362 0.418457 0.123100
v 0.016362 0.381784 0.123100
v 0.047229 0.456470 0.157605
v 0.047229 0.344740 0.157605
v 0.024401 0.456470 0.157605
v 0.024401 0.344740 0.157605
v 0.047229 0.346702 0.265375
v 0.047229 0.344740 0.260726
v 0.024401 0.344740 0.260726
v 0.024401 0.346702 0.265375
v 0.047229 0.351437 0.267301
v 0.024401 0.351437 0.267301
v 0.024401 0.454508 0.265375
v 0.024401 0.456470 0.260726
v 0.047229 0.456470 0.260726
v 0.047229 0.454508 0.265375
v 0.024401 0.449773 0.267301
v 0.047229 0.449773 0.267301
vn -0.0000 -0.0000 1.0000
vn -0.0000 0.1228 -0.9924
vn -0.0000 1.0000 -0.0000
vn -0.0000 -0.9214 0.3887
vn -0.0000 -0.3767 0.9263
vn -0.0000 0.9214 0.3887
vn -0.0000 0.3767 0.9263
vn -0.0000 -1.0000 -0.0000
vn -1.0000 -0.0000 -0.0000
vn 1.0000 -0.0000 -0.0000
vn -0.0000 -0.1228 -0.9924
vn -1.0000 -0.0000 0.0039
vn -0.0001 -0.0000 -1.0000
vn -0.2420 -0.0000 -0.9703
vn -0.7876 -0.0000 -0.6162
vn -0.9997 -0.0000 -0.0263
vn -0.0001 -0.9990 0.0451
vn -0.4680 -0.0000 -0.8837
vn -0.0001 -0.6212 -0.7837
vn -0.0001 0.6212 -0.7837
vn 0.0038 0.6050 -0.7962
vn 0.0029 -0.6087 -0.7934
vn 0.0002 0.9990 -0.0450
vn -0.0024 0.0006 -1.0000
vn -0.0000 -1.0000 -0.0036
vn 0.0060 1.0000 -0.0022
vn 1.0000 -0.0000 0.0039
vn 0.0001 -0.0000 -1.0000
vn 0.2420 -0.0000 -0.9703
vn 0.7876 -0.0000 -0.6162
vn 0.9997 -0.0000 -0.0263
vn 0.0001 -0.9990 0.0451
vn 0.4680 -0.0000 -0.8837
vn 0.0001 -0.6212 -0.7837
vn 0.0001 0.6212 -0.7837
vn -0.0038 0.6050 -0.7962
vn -0.0029 -0.6087 -0.7934
vn -0.0002 0.9990 -0.0450
vn 0.0024 0.0006 -1.0000
vn -0.0060 1.0000 -0.0022
vt 0.389984 0.750000
vt 0.610016 0.750000
vt 0.610016 1.000000
vt 0.389984 1.000000
vt 0.875000 0.500000
vt 0.625000 0.500000
vt 0.875000 0.735016
vt 0.625000 0.735016
vt 0.125000 0.735016
vt 0.375000 0.735016
vt 0.375000 0.750000
vt 0.125000 0.750000
vt 0.375000 1.000000
vt 0.875000 0.750000
vt 0.625000 0.750000
vt 0.625000 1.000000
vt 0.125000 0.500000
vt 0.375000 0.500000
vt 0.375000 0.250000
vt 0.625000 0.250000
vt 0.198223 0.500000
vt 0.801777 0.500000
vt 0.609034 0.500000
vt 0.390966 0.500000
vt 0.617017 0.500000
vt 0.392056 0.500000
vt 0.392677 0.231995
vt 0.607323 0.231995
vt 0.607322 0.518005
vt 0.392677 0.518005
vt 0.392677 0.018627
vt 0.375000 0.014984
vt 0.379389 0.004389
vt 0.392830 0.731742
vt 0.379389 0.745611
vt 0.392830 0.018258
vt 0.389984 0.000000
vt 0.393441 0.731995
vt 0.607323 0.731373
vt 0.620611 0.745611
vt 0.607170 0.018258
vt 0.620611 0.004389
vt 0.625000 0.014984
vt 0.607170 0.731741
vt 0.606559 0.018005
vt 0.610016 0.000000
vt 0.392677 0.731373
vt 0.393441 0.018005
vt 0.607323 0.018627
vt 0.606559 0.731995
s 0
f 46/1/1 51/2/1 52/3/1 45/4/1
f 37/5/2 39/6/2 12/6/2 9/5/2
f 39/6/3 37/5/3 49/7/3 48/8/3
f 42/9/4 43/10/4 44/11/4 41/12/4
f 41/13/5 44/11/5 46/1/5 45/4/5
f 48/8/6 49/7/6 50/14/6 47/15/6
f 47/15/7 50/16/7 52/3/7 51/2/7
f 38/17/8 40/18/8 43/10/8 42/9/8
f 9/5/3 12/6/3 15/6/3 20/5/3
f 38/19/9 37/20/9 9/20/9 10/19/9
f 39/6/10 40/18/10 11/18/10 12/6/10
f 40/18/11 38/17/11 10/17/11 11/18/11
f 14/18/8 13/17/8 23/21/8 22/18/8
f 10/19/12 9/20/12 20/20/12 13/19/12
f 12/6/10 11/18/10 14/18/10 15/6/10
f 11/18/8 10/17/8 13/17/8 14/18/8
f 20/5/3 15/6/3 19/6/3 21/22/3
f 22/18/13 19/6/13 30/23/13 25/18/13
f 16/6/10 17/18/10 18/24/10 29/6/10
f 14/18/8 22/18/8 25/18/8 26/18/8 18/18/8 17/18/8
f 15/6/1 14/18/1 17/18/1 16/6/1
f 19/6/14 22/18/14 23/19/14 21/20/14
f 21/20/15 23/19/15 13/19/15 20/20/15
f 24/18/16 31/6/16 34/6/16 35/18/16
f 35/18/13 34/6/13 32/6/13 27/18/13
f 19/6/3 15/6/3 16/6/3 29/6/3 28/6/3 30/6/3
f 33/18/17 24/18/17 35/18/17 27/18/17
f 29/23/10 18/18/10 33/18/10 27/18/10 32/6/10 36/25/10
f 31/6/18 24/18/18 25/26/18 30/6/18
f 25/18/19 24/18/19 26/18/19
f 31/6/20 30/6/20 28/6/20
f 31/6/21 28/6/21 29/6/21 36/6/21
f 18/18/22 26/18/22 24/18/22 33/18/22
f 34/6/23 31/6/23 36/6/23 32/6/23
f 1/27/9 2/28/9 37/20/9 38/19/9
f 4/29/10 3/30/10 40/18/10 39/6/10
f 5/31/9 42/32/9 41/33/9
f 7/34/10 44/35/10 43/10/10
f 5/36/9 41/33/9 45/37/9
f 7/38/10 46/1/10 44/35/10
f 8/39/10 48/8/10 47/40/10
f 6/41/9 50/42/9 49/43/9
f 8/44/10 47/40/10 51/2/10
f 6/45/9 52/46/9 50/42/9
f 5/31/9 1/27/9 38/19/9 42/32/9
f 3/30/10 7/47/10 43/10/10 40/18/10
f 6/45/9 5/48/9 45/37/9 52/46/9
f 2/28/9 6/49/9 49/43/9 37/20/9
f 7/38/10 8/50/10 51/2/10 46/1/10
f 8/39/10 4/29/10 39/6/10 48/8/10
f 8/50/24 7/38/24 5/48/24 6/45/24
f 4/29/25 8/39/25 6/49/25 2/28/25
f 7/47/26 3/30/26 1/27/26 5/31/26
f 3/30/1 4/29/1 2/28/1 1/27/1
f 90/1/1 89/4/1 96/3/1 95/2/1
f 81/5/2 61/5/2 64/6/2 83/6/2
f 83/6/3 92/8/3 93/7/3 81/5/3
f 86/9/4 85/12/4 88/11/4 87/10/4
f 85/13/5 89/4/5 90/1/5 88/11/5
f 92/8/6 91/15/6 94/14/6 93/7/6
f 91/15/7 95/2/7 96/3/7 94/16/7
f 82/17/8 86/9/8 87/10/8 84/18/8
f 61/5/3 69/5/3 67/6/3 64/6/3
f 82/19/10 62/19/10 61/20/10 81/20/10
f 83/6/9 64/6/9 63/18/9 84/18/9
f 84/18/11 63/18/11 62/17/11 82/17/11
f 66/18/8 71/18/8 72/21/8 65/17/8
f 62/19/27 65/19/27 69/20/27 61/20/27
f 64/6/9 67/6/9 66/18/9 63/18/9
f 63/18/8 66/18/8 65/17/8 62/17/8
f 69/5/3 70/22/3 68/6/3 67/6/3
f 71/18/28 74/18/28 77/23/28 68/6/28
f 66/18/8 17/18/8 18/18/8 75/18/8 74/18/8 71/18/8
f 67/6/1 16/6/1 17/18/1 66/18/1
f 68/6/29 70/20/29 72/19/29 71/18/29
f 70/20/30 69/20/30 65/19/30 72/19/30
f 73/18/31 80/18/31 79/6/31 78/6/31
f 80/18/28 27/18/28 32/6/28 79/6/28
f 68/6/3 77/6/3 76/6/3 29/6/3 16/6/3 67/6/3
f 33/18/32 27/18/32 80/18/32 73/18/32
f 78/6/33 77/6/33 74/26/33 73/18/33
f 74/18/34 75/18/34 73/18/34
f 78/6/35 76/6/35 77/6/35
f 78/6/36 36/6/36 29/6/36 76/6/36
f 18/18/37 33/18/37 73/18/37 75/18/37
f 79/6/38 32/6/38 36/6/38 78/6/38
f 53/27/10 82/19/10 81/20/10 54/28/10
f 56/29/9 83/6/9 84/18/9 55/30/9
f 57/31/10 85/33/10 86/32/10
f 59/34/9 87/10/9 88/35/9
f 57/36/10 89/37/10 85/33/10
f 59/38/9 88/35/9 90/1/9
f 60/39/9 91/40/9 92/8/9
f 58/41/10 93/43/10 94/42/10
f 60/44/9 95/2/9 91/40/9
f 58/45/10 94/42/10 96/46/10
f 57/31/10 86/32/10 82/19/10 53/27/10
f 55/30/9 84/18/9 87/10/9 59/47/9
f 58/45/10 96/46/10 89/37/10 57/48/10
f 54/28/10 81/20/10 93/43/10 58/49/10
f 59/38/9 90/1/9 95/2/9 60/50/9
f 60/39/9 92/8/9 83/6/9 56/29/9
f 60/50/39 58/45/39 57/48/39 59/38/39
f 56/29/25 54/28/25 58/49/25 60/39/25
f 59/47/40 57/31/40 53/27/40 55/30/40
f 55/30/1 53/27/1 54/28/1 56/29/1
