# Blender 4.4.3
# www.blender.org
o Ammo_box
v -0.066289 0.366619 0.245458
v -0.066289 0.435326 0.245458
v -0.066289 0.366619 0.176751
v -0.066289 0.435326 0.176751
v -0.057949 0.351271 0.260806
v -0.057949 0.351271 0.161403
v -0.057949 0.450674 0.260806
v -0.057949 0.450674 0.161403
v 0.123455 0.432476 0.155594
v 0.123455 0.398567 0.155594
v 0.123455 0.398567 0.189502
v 0.123455 0.432476 0.189502
v 0.138866 0.425776 0.162294
v 0.138866 0.405267 0.162294
v 0.138866 0.405267 0.182803
v 0.138866 0.425776 0.182803
v 0.103015 0.380965 0.221136
v 0.099277 0.372068 0.234189
v 0.099277 0.437842 0.234217
v 0.103026 0.434036 0.221119
v 0.104000 0.380980 0.167464
v 0.099277 0.372009 0.168408
v 0.099277 0.437966 0.168354
v 0.103094 0.434031 0.167464
v 0.093358 0.450674 0.161403
v 0.099277 0.446777 0.163534
v 0.099277 0.357407 0.163476
v 0.093358 0.351271 0.161403
v 0.099277 0.357344 0.253033
v 0.093358 0.351271 0.260806
v 0.093358 0.450674 0.260806
v 0.099277 0.446909 0.253004
v -0.066289 0.349152 0.159284
v -0.066289 0.349152 0.262925
v -0.066289 0.452793 0.262925
v -0.066289 0.452793 0.159284
v -0.057949 0.452793 0.159284
v -0.057949 0.349152 0.159284
v -0.057949 0.452793 0.262925
v -0.057949 0.349152 0.262925
v -0.062411 0.366619 0.176751
v -0.062411 0.366619 0.245458
v -0.062411 0.435326 0.245458
v -0.062411 0.435326 0.176751
v 0.138866 0.432476 0.155594
v 0.138866 0.398567 0.155594
v 0.138866 0.398567 0.189502
v 0.138866 0.432476 0.189502
v 0.120142 0.425776 0.162294
v 0.120142 0.405267 0.162294
v 0.120142 0.405267 0.182803
v 0.120142 0.425776 0.182803
vn -0.0000 -0.0000 1.0000
vn 1.0000 -0.0000 -0.0000
vn 0.0762 0.9971 -0.0000
vn -0.0000 1.0000 -0.0000
vn -0.0000 -0.0000 -1.0000
vn 0.8399 -0.0000 0.5427
vn -0.5106 -0.0053 -0.8598
vn -0.0000 -1.0000 -0.0000
vn -0.2087 -0.0020 -0.9780
vn 0.9061 -0.4231 0.0076
vn 0.7161 0.6980 0.0011
vn 0.9614 -0.0001 0.2753
vn 0.6660 -0.7459 0.0074
vn 0.3346 0.0003 -0.9423
vn 0.7179 -0.6961 -0.0002
vn 0.5432 0.8396 -0.0006
vn 0.7962 0.0001 0.6051
vn -1.0000 -0.0000 -0.0000
vt 0.625000 0.250000
vt 0.375000 0.250000
vt 0.617780 0.742780
vt 0.617849 0.507151
vt 0.622807 0.502193
vt 0.622881 0.747881
vt 0.615799 0.506000
vt 0.615799 0.740799
vt 0.615799 0.740799
vt 0.615799 0.509201
vt 0.634479 0.500000
vt 0.859506 0.500000
vt 0.859506 0.750000
vt 0.634479 0.750000
vt 0.382207 0.507207
vt 0.382228 0.742772
vt 0.377111 0.747889
vt 0.377133 0.502133
vt 0.375000 0.265494
vt 0.625000 0.265495
vt 0.625000 0.490521
vt 0.375000 0.490521
vt 0.384201 0.740799
vt 0.380472 0.509201
vt 0.615894 0.509201
vt 0.384201 0.509201
vt 0.617780 0.742780
vt 0.140495 0.500000
vt 0.140494 0.750000
vt 0.365521 0.500000
vt 0.365521 0.750000
vt 0.570039 0.695039
vt 0.429961 0.695039
vt 0.384201 0.507809
vt 0.625000 0.759480
vt 0.375000 0.759479
vt 0.375000 0.000000
vt 0.625000 0.984506
vt 0.375000 0.984506
vt 0.625000 0.000000
vt 0.625000 1.000000
vt 0.375000 1.000000
vt 0.875000 0.500000
vt 0.875000 0.750000
vt 0.125000 0.500000
vt 0.125000 0.750000
vt 0.570039 0.554961
vt 0.429961 0.554961
s 0
f 4/1/1 3/2/1 41/2/1 44/1/1
f 19/3/2 23/4/2 26/5/2 32/6/2
f 24/7/3 20/8/3 12/9/3 9/10/3
f 25/11/4 8/12/4 7/13/4 31/14/4
f 22/15/2 18/16/2 29/17/2 27/18/2
f 6/19/5 8/20/5 25/21/5 28/22/5
f 20/9/6 17/23/6 11/23/6 12/9/6
f 21/24/7 24/25/7 9/10/7 10/26/7
f 18/16/2 19/27/2 32/6/2 29/17/2
f 11/23/8 10/26/8 46/26/8 47/23/8
f 6/28/2 5/29/2 40/29/2 38/28/2
f 23/4/2 22/15/2 27/18/2 26/5/2
f 6/28/8 28/30/8 30/31/8 5/29/8
f 16/32/5 15/33/5 51/33/5 52/32/5
f 9/10/4 12/9/4 48/9/4 45/10/4
f 10/26/5 9/10/5 45/10/5 46/26/5
f 12/9/1 11/23/1 47/23/1 48/9/1
f 24/25/9 21/24/9 22/15/9 23/4/9
f 18/16/10 22/15/10 21/34/10 17/23/10
f 23/4/11 19/3/11 20/8/11 24/7/11
f 19/27/12 18/16/12 17/23/12 20/9/12
f 17/23/13 21/34/13 10/26/13 11/23/13
f 26/5/14 27/18/14 28/22/14 25/21/14
f 30/31/15 28/30/15 27/18/15 29/17/15
f 25/11/16 31/14/16 32/6/16 26/5/16
f 31/35/17 30/36/17 29/17/17 32/6/17
f 7/13/2 8/12/2 37/12/2 39/13/2
f 1/37/18 3/2/18 33/2/18 34/37/18
f 30/36/1 31/35/1 7/38/1 5/39/1
f 4/1/18 2/40/18 35/40/18 36/1/18
f 40/39/1 39/38/1 35/41/1 34/42/1
f 37/12/4 36/43/4 35/44/4 39/13/4
f 33/45/8 38/28/8 40/29/8 34/46/8
f 33/2/5 36/1/5 37/20/5 38/19/5
f 5/39/2 7/38/2 39/38/2 40/39/2
f 3/2/18 4/1/18 36/1/18 33/2/18
f 2/40/18 1/37/18 34/37/18 35/40/18
f 8/20/2 6/19/2 38/19/2 37/20/2
f 42/37/18 43/40/18 44/1/18 41/2/18
f 1/37/5 2/40/5 43/40/5 42/37/5
f 2/40/8 4/1/8 44/1/8 43/40/8
f 3/2/4 1/37/4 42/37/4 41/2/4
f 13/47/2 14/48/2 46/26/2 45/10/2
f 14/48/2 15/33/2 47/23/2 46/26/2
f 16/32/2 13/47/2 45/10/2 48/9/2
f 15/33/2 16/32/2 48/9/2 47/23/2
f 50/48/2 49/47/2 52/32/2 51/33/2
f 15/33/4 14/48/4 50/48/4 51/33/4
f 13/47/8 16/32/8 52/32/8 49/47/8
f 14/48/1 13/47/1 49/47/1 50/48/1
