# Blender 4.4.3
# www.blender.org
o Battery_1
v 0.121687 0.182234 -0.154103
v 0.121687 0.182234 -0.244788
v 0.121687 0.090878 -0.244788
v -0.146554 0.182234 -0.154103
v -0.146554 0.182234 -0.244789
v -0.146554 0.090878 -0.244789
v 0.121687 0.090878 -0.200082
v 0.032274 0.090878 -0.244788
v -0.057141 0.090878 -0.244788
v -0.146554 0.090878 -0.200082
v -0.057141 0.090878 -0.200082
v 0.032274 0.090878 -0.200082
v 0.121687 0.090878 -0.214984
v 0.121687 0.090878 -0.229887
v 0.065581 0.090878 -0.228135
v 0.065581 0.090878 -0.216736
v 0.088379 0.090878 -0.228135
v 0.088379 0.090878 -0.216736
v -0.113247 0.090878 -0.228135
v -0.113247 0.090878 -0.216736
v -0.090448 0.090878 -0.228135
v -0.090448 0.090878 -0.216736
v 0.068076 0.078898 -0.226888
v 0.068076 0.078898 -0.217983
v 0.085886 0.078898 -0.226888
v 0.085886 0.078898 -0.217983
v -0.110754 0.078898 -0.226888
v -0.110754 0.078898 -0.217983
v -0.092943 0.078898 -0.226888
v -0.092943 0.078898 -0.217983
v -0.146554 0.085706 -0.154103
v 0.121687 0.085706 -0.154103
v 0.121687 0.085706 -0.200082
v 0.032274 0.085706 -0.244788
v -0.057141 0.085706 -0.244788
v -0.146554 0.085706 -0.200082
v -0.057141 0.085706 -0.200082
v 0.032274 0.085706 -0.200082
v 0.110471 0.134096 -0.234257
v 0.110673 0.138988 -0.234169
v -0.135540 0.138988 -0.234169
v -0.135339 0.134096 -0.234257
v -0.146554 0.142720 -0.154103
v -0.146554 0.130298 -0.154103
v 0.121687 0.142720 -0.154103
v 0.121687 0.130298 -0.154103
v 0.110471 0.138969 -0.164634
v 0.110673 0.134077 -0.164723
v -0.135339 0.138969 -0.164635
v -0.135540 0.134077 -0.164723
v -0.144127 0.131157 -0.242510
v -0.146554 0.127926 -0.244789
v -0.146554 0.130344 -0.242370
v -0.146554 0.145186 -0.244789
v -0.144191 0.141956 -0.242510
v -0.146554 0.142766 -0.242370
v 0.119323 0.141956 -0.242510
v 0.121687 0.145186 -0.244788
v 0.121687 0.142766 -0.242370
v 0.121687 0.127926 -0.244788
v 0.119260 0.131157 -0.242510
v 0.121687 0.130344 -0.242370
vn -0.0000 1.0000 -0.0000
vn -0.0000 -0.0000 -0.0000
vn -0.0000 -0.0000 -1.0000
vn 1.0000 -0.0000 -0.0000
vn -0.0000 -0.1035 -0.9946
vn -0.0000 -1.0000 -0.0000
vn -0.0000 -0.0000 1.0000
vn -1.0000 -0.0000 -0.0000
vn -0.9790 -0.2038 -0.0000
vn -0.0000 -0.1035 0.9946
vn -0.9790 -0.2037 -0.0000
vn 0.9790 -0.2037 -0.0000
vn 0.9790 -0.2038 -0.0000
vn 0.3209 0.9471 -0.0000
vn -0.3208 -0.9471 -0.0000
vn -0.0000 0.0180 -0.9998
vn -0.0000 -0.9421 -0.3353
vn 0.3208 -0.9471 -0.0000
vn -0.0000 0.9420 -0.3355
vn -0.0000 -0.0180 0.9998
vn -0.0000 0.9421 0.3353
vn -0.0000 -0.9420 0.3355
vn -0.2676 0.6815 -0.6811
vn -0.2733 -0.6800 -0.6804
vn 0.2733 -0.6800 -0.6804
vn 0.2676 0.6815 -0.6811
vn -0.0000 -0.5765 -0.8171
vn -0.0000 0.5764 -0.8172
vn -0.3209 0.9471 -0.0000
vt 0.125000 0.500000
vt 0.375000 0.500000
vt 0.375000 0.750000
vt 0.125000 0.750000
vt 0.625000 0.222222
vt 0.625000 0.166667
vt 0.625000 0.194444
vt 0.791667 0.583333
vt 0.875000 0.583333
vt 0.625000 0.416667
vt 0.625000 0.333333
vt 0.708333 0.583333
vt 0.625000 0.583333
vt 0.791667 0.500000
vt 0.652778 0.527778
vt 0.680555 0.527778
vt 0.625000 0.250000
vt 0.847222 0.555556
vt 0.847222 0.527778
vt 0.483914 0.750000
vt 0.483914 1.000000
vt 0.375000 1.000000
vt 0.708333 0.500000
vt 0.819444 0.555556
vt 0.819444 0.527778
vt 0.680555 0.555556
vt 0.652778 0.555556
vt 0.875000 0.750000
vt 0.625000 0.750000
vt 0.000000 0.000000
vt 0.516086 0.000000
vt 0.516973 0.243332
vt 0.516997 0.250000
vt 0.483027 0.506668
vt 0.483003 0.500000
vt 0.516086 0.750000
vt 0.625000 1.000000
vt 0.516086 1.000000
vt 0.483003 0.250000
vt 0.483027 0.243332
vt 0.483914 0.000000
vt 0.476383 0.500000
vt 0.483027 0.506668
vt 0.625000 0.000000
vt 0.523617 0.250000
vt 0.516973 0.243332
vt 0.516997 0.500000
vt 0.375000 0.000000
vt 0.483027 0.243332
vt 0.476383 0.250000
vt 0.375000 0.250000
vt 0.516973 0.506668
vt 0.523617 0.500000
vt 0.625000 0.500000
vt 0.516974 0.506281
vt 0.483026 0.243716
vt 0.476383 0.250000
s 0
f 2/1/1 5/2/1 4/3/1 1/4/1
f 14/5/2 7/6/2 13/7/2
f 12/8/3 7/9/3 33/9/3 38/8/3
f 9/10/3 8/11/3 34/11/3 35/10/3
f 11/12/3 37/12/3 36/13/3 10/13/3
f 12/8/4 38/8/4 34/14/4 8/14/4
f 19/15/5 21/16/5 29/16/5 27/15/5
f 3/17/6 7/6/6 18/18/6 17/19/6
f 4/3/7 43/20/7 45/21/7 1/22/7
f 11/12/8 9/23/8 35/23/8 37/12/8
f 16/24/9 15/25/9 23/25/9 24/24/9
f 23/25/6 25/19/6 26/18/6 24/24/6
f 27/15/6 29/16/6 30/26/6 28/27/6
f 18/18/10 16/24/10 24/24/10 26/18/10
f 20/27/11 19/15/11 27/15/11 28/27/11
f 17/19/12 18/18/12 26/18/12 25/19/12
f 22/26/10 20/27/10 28/27/10 30/26/10
f 21/16/13 22/26/13 30/26/13 29/16/13
f 15/25/5 17/19/5 25/19/5 23/25/5
f 38/8/6 33/9/6 32/28/6 31/29/6 36/13/6 37/12/6 35/23/6 34/14/6
f 58/30/3 54/30/3 5/30/3 2/30/3
f 3/17/6 7/6/6 14/5/6
f 46/31/14 62/32/14 61/33/14 39/33/14 48/31/14
f 16/24/6 18/18/6 7/6/6 12/8/6
f 16/24/6 12/8/6 8/14/6 15/25/6
f 15/25/6 8/14/6 3/17/6 17/19/6
f 10/13/6 20/27/6 22/26/6 11/12/6
f 11/12/6 22/26/6 21/16/6 9/23/6
f 6/30/6 9/23/6 21/16/6 19/15/6
f 10/13/6 6/30/6 19/15/6 20/27/6
f 43/20/15 56/34/15 55/35/15 41/35/15 49/20/15
f 41/30/16 40/30/16 39/30/16 42/30/16
f 55/30/17 57/30/17 40/30/17 41/30/17
f 44/36/7 31/29/7 32/37/7 46/38/7
f 57/39/18 59/40/18 45/41/18 47/41/18 40/39/18
f 54/42/8 56/43/8 43/20/8 4/3/8 5/2/8
f 3/30/3 8/30/3 9/30/3 6/30/3 52/30/3 60/30/3
f 46/31/4 32/44/4 33/6/4 7/6/4 3/17/4 60/45/4 62/46/4
f 61/30/19 51/30/19 42/30/19 39/30/19
f 48/31/4 39/33/4 40/39/4 47/41/4
f 50/36/20 48/38/20 47/21/20 49/20/20
f 49/20/8 41/35/8 42/47/8 50/36/8
f 44/36/21 46/38/21 48/38/21 50/36/21
f 1/48/4 45/41/4 59/49/4 58/50/4 2/51/4
f 10/13/8 36/13/8 31/29/8 44/36/8 53/52/8 52/53/8 6/54/8
f 45/21/22 43/20/22 49/20/22 47/21/22
f 51/55/23 52/53/23 53/52/23
f 54/35/24 55/35/24 56/34/24
f 57/56/25 58/57/25 59/49/25
f 60/30/26 61/30/26 62/30/26
f 54/30/27 58/30/27 57/30/27 55/30/27
f 60/30/28 52/30/28 51/30/28 61/30/28
f 51/47/29 53/52/29 44/36/29 50/36/29 42/47/29
