# Blender 4.4.3
# www.blender.org
o Cable_mount.004
v 0.002745 0.116874 -0.154532
v 0.002910 0.115855 -0.142848
v 0.006876 0.115163 -0.154590
v 0.006320 0.114443 -0.142896
v 0.008587 0.111032 -0.154614
v 0.007733 0.111032 -0.142916
v 0.006876 0.106900 -0.154590
v 0.006320 0.107621 -0.142896
v 0.002745 0.105189 -0.154532
v 0.002910 0.106208 -0.142848
v -0.001386 0.106900 -0.154474
v -0.000501 0.107621 -0.142800
v -0.003097 0.111032 -0.154450
v -0.001913 0.111032 -0.142780
v -0.001386 0.115163 -0.154474
v -0.000501 0.114443 -0.142800
v 0.005243 0.113366 -0.142881
v 0.002910 0.114332 -0.142848
v 0.000576 0.113366 -0.142815
v -0.000390 0.111032 -0.142802
v 0.000576 0.108698 -0.142815
v 0.002910 0.107731 -0.142848
v 0.005243 0.108698 -0.142881
v 0.006210 0.111032 -0.142895
v 0.004176 0.112377 -0.148531
v 0.002830 0.112935 -0.148512
v 0.004733 0.111032 -0.148539
v 0.001484 0.112377 -0.148493
v 0.000927 0.111032 -0.148485
v 0.001484 0.109686 -0.148493
v 0.002830 0.109129 -0.148512
v 0.004176 0.109686 -0.148531
vn 0.3825 0.9209 0.0749
vn 0.9219 0.3814 0.0673
vn 0.9219 -0.3814 0.0673
vn 0.3825 -0.9209 0.0749
vn -0.3803 -0.9209 0.0857
vn -0.9197 -0.3814 0.0932
vn 0.3762 -0.9008 0.2170
vn -0.9197 0.3814 0.0932
vn -0.3803 0.9209 0.0857
vn -0.0141 -0.0000 -0.9999
vn 0.0141 -0.0000 0.9999
vn -0.3699 -0.9008 0.2275
vn -0.8976 0.3731 0.2349
vn 0.3762 0.9008 0.2170
vn 0.9038 -0.3731 0.2095
vn -0.8976 -0.3731 0.2349
vn -0.3699 0.9008 0.2275
vn 0.9038 0.3731 0.2095
vt 1.000000 0.500000
vt 1.000000 1.000000
vt 0.875000 1.000000
vt 0.875000 0.500000
vt 0.750000 1.000000
vt 0.750000 0.500000
vt 0.625000 1.000000
vt 0.625000 0.500000
vt 0.500000 1.000000
vt 0.500000 0.500000
vt 0.375000 1.000000
vt 0.375000 0.500000
vt 0.250000 1.000000
vt 0.250000 0.500000
vt 0.250000 0.332187
vt 0.191885 0.308115
vt 0.125000 1.000000
vt 0.125000 0.500000
vt 0.000000 1.000000
vt 0.000000 0.500000
vt 0.750000 0.490000
vt 0.919706 0.419706
vt 0.990000 0.250000
vt 0.919706 0.080294
vt 0.750000 0.010000
vt 0.580294 0.080294
vt 0.510000 0.250000
vt 0.580294 0.419706
vt 0.419706 0.419706
vt 0.250000 0.490000
vt 0.308115 0.308115
vt 0.080294 0.419706
vt 0.010000 0.250000
vt 0.167813 0.250000
vt 0.080294 0.080294
vt 0.191885 0.191885
vt 0.250000 0.010000
vt 0.250000 0.167813
vt 0.419706 0.080294
vt 0.308115 0.191885
vt 0.490000 0.250000
vt 0.332187 0.250000
s 0
f 1/1/1 2/2/1 4/3/1 3/4/1
f 3/4/2 4/3/2 6/5/2 5/6/2
f 5/6/3 6/5/3 8/7/3 7/8/3
f 7/8/4 8/7/4 10/9/4 9/10/4
f 9/10/5 10/9/5 12/11/5 11/12/5
f 11/12/6 12/11/6 14/13/6 13/14/6
f 18/15/7 19/16/7 28/16/7 26/15/7
f 13/14/8 14/13/8 16/17/8 15/18/8
f 15/18/9 16/17/9 2/19/9 1/20/9
f 1/21/10 3/22/10 5/23/10 7/24/10 9/25/10 11/26/10 13/27/10 15/28/10
f 4/29/11 2/30/11 18/15/11 17/31/11
f 2/30/11 16/32/11 19/16/11 18/15/11
f 16/32/11 14/33/11 20/34/11 19/16/11
f 14/33/11 12/35/11 21/36/11 20/34/11
f 12/35/11 10/37/11 22/38/11 21/36/11
f 10/37/11 8/39/11 23/40/11 22/38/11
f 8/39/11 6/41/11 24/42/11 23/40/11
f 6/41/11 4/29/11 17/31/11 24/42/11
f 25/31/11 26/15/11 28/16/11 29/34/11 30/36/11 31/38/11 32/40/11 27/42/11
f 17/31/12 18/15/12 26/15/12 25/31/12
f 23/40/13 24/42/13 27/42/13 32/40/13
f 21/36/14 22/38/14 31/38/14 30/36/14
f 19/16/15 20/34/15 29/34/15 28/16/15
f 24/42/16 17/31/16 25/31/16 27/42/16
f 22/38/17 23/40/17 32/40/17 31/38/17
f 20/34/18 21/36/18 30/36/18 29/34/18
o Cable_mount.005
v 0.020030 0.116611 -0.154788
v 0.020195 0.115592 -0.143104
v 0.024161 0.114900 -0.154846
v 0.023605 0.114180 -0.143152
v 0.025872 0.110769 -0.154871
v 0.025018 0.110769 -0.143172
v 0.024161 0.106637 -0.154846
v 0.023605 0.107358 -0.143152
v 0.020030 0.104926 -0.154788
v 0.020195 0.105945 -0.143104
v 0.015899 0.106637 -0.154730
v 0.016784 0.107358 -0.143056
v 0.014188 0.110769 -0.154706
v 0.015372 0.110769 -0.143036
v 0.015899 0.114900 -0.154730
v 0.016784 0.114180 -0.143056
v 0.022528 0.113103 -0.143137
v 0.020195 0.114069 -0.143104
v 0.017861 0.113103 -0.143072
v 0.016895 0.110769 -0.143058
v 0.017861 0.108435 -0.143072
v 0.020195 0.107468 -0.143104
v 0.022528 0.108435 -0.143137
v 0.023495 0.110769 -0.143151
v 0.021461 0.112115 -0.148787
v 0.020115 0.112672 -0.148768
v 0.022018 0.110769 -0.148795
v 0.018769 0.112115 -0.148749
v 0.018212 0.110769 -0.148741
v 0.018769 0.109423 -0.148749
v 0.020115 0.108866 -0.148768
v 0.021461 0.109423 -0.148787
vn 0.3825 0.9209 0.0749
vn 0.9219 0.3814 0.0673
vn 0.9219 -0.3814 0.0673
vn 0.3825 -0.9209 0.0749
vn -0.3803 -0.9209 0.0857
vn -0.9197 -0.3814 0.0932
vn 0.3762 -0.9008 0.2170
vn -0.9197 0.3814 0.0932
vn -0.3803 0.9209 0.0857
vn -0.0141 -0.0000 -0.9999
vn 0.0141 -0.0000 0.9999
vn -0.3699 -0.9008 0.2275
vn -0.8976 0.3731 0.2349
vn 0.3762 0.9008 0.2170
vn 0.9038 -0.3731 0.2095
vn -0.8976 -0.3731 0.2349
vn -0.3699 0.9008 0.2275
vn 0.9038 0.3731 0.2095
vt 1.000000 0.500000
vt 1.000000 1.000000
vt 0.875000 1.000000
vt 0.875000 0.500000
vt 0.750000 1.000000
vt 0.750000 0.500000
vt 0.625000 1.000000
vt 0.625000 0.500000
vt 0.500000 1.000000
vt 0.500000 0.500000
vt 0.375000 1.000000
vt 0.375000 0.500000
vt 0.250000 1.000000
vt 0.250000 0.500000
vt 0.250000 0.332187
vt 0.191885 0.308115
vt 0.125000 1.000000
vt 0.125000 0.500000
vt 0.000000 1.000000
vt 0.000000 0.500000
vt 0.750000 0.490000
vt 0.919706 0.419706
vt 0.990000 0.250000
vt 0.919706 0.080294
vt 0.750000 0.010000
vt 0.580294 0.080294
vt 0.510000 0.250000
vt 0.580294 0.419706
vt 0.419706 0.419706
vt 0.250000 0.490000
vt 0.308115 0.308115
vt 0.080294 0.419706
vt 0.010000 0.250000
vt 0.167813 0.250000
vt 0.080294 0.080294
vt 0.191885 0.191885
vt 0.250000 0.010000
vt 0.250000 0.167813
vt 0.419706 0.080294
vt 0.308115 0.191885
vt 0.490000 0.250000
vt 0.332187 0.250000
s 0
f 33/43/19 34/44/19 36/45/19 35/46/19
f 35/46/20 36/45/20 38/47/20 37/48/20
f 37/48/21 38/47/21 40/49/21 39/50/21
f 39/50/22 40/49/22 42/51/22 41/52/22
f 41/52/23 42/51/23 44/53/23 43/54/23
f 43/54/24 44/53/24 46/55/24 45/56/24
f 50/57/25 51/58/25 60/58/25 58/57/25
f 45/56/26 46/55/26 48/59/26 47/60/26
f 47/60/27 48/59/27 34/61/27 33/62/27
f 33/63/28 35/64/28 37/65/28 39/66/28 41/67/28 43/68/28 45/69/28 47/70/28
f 36/71/29 34/72/29 50/57/29 49/73/29
f 34/72/29 48/74/29 51/58/29 50/57/29
f 48/74/29 46/75/29 52/76/29 51/58/29
f 46/75/29 44/77/29 53/78/29 52/76/29
f 44/77/29 42/79/29 54/80/29 53/78/29
f 42/79/29 40/81/29 55/82/29 54/80/29
f 40/81/29 38/83/29 56/84/29 55/82/29
f 38/83/29 36/71/29 49/73/29 56/84/29
f 57/73/29 58/57/29 60/58/29 61/76/29 62/78/29 63/80/29 64/82/29 59/84/29
f 49/73/30 50/57/30 58/57/30 57/73/30
f 55/82/31 56/84/31 59/84/31 64/82/31
f 53/78/32 54/80/32 63/80/32 62/78/32
f 51/58/33 52/76/33 61/76/33 60/58/33
f 56/84/34 49/73/34 57/73/34 59/84/34
f 54/80/35 55/82/35 64/82/35 63/80/35
f 52/76/36 53/78/36 62/78/36 61/76/36
