# Blender 4.4.3
# www.blender.org
o Cable.002
v 0.019976 0.114270 -0.151680
v 0.017730 0.112024 -0.151486
v 0.019983 0.109779 -0.151404
v 0.022229 0.112024 -0.151597
v 0.020193 0.111174 -0.137926
v 0.017932 0.109127 -0.138832
v 0.020171 0.107061 -0.139752
v 0.022432 0.109109 -0.138846
v 0.020033 0.104375 -0.128148
v 0.017778 0.102486 -0.129361
v 0.020020 0.100510 -0.130453
v 0.022276 0.102399 -0.129240
v 0.019540 0.100059 -0.119676
v 0.017251 0.097956 -0.120353
v 0.019444 0.095675 -0.120684
v 0.021734 0.097778 -0.120006
v 0.018472 0.100286 -0.110113
v 0.016120 0.098147 -0.110225
v 0.018219 0.095812 -0.109711
v 0.020572 0.097951 -0.109599
v 0.016715 0.102242 -0.099224
v 0.014363 0.100102 -0.099340
v 0.016442 0.097782 -0.098689
v 0.018794 0.099922 -0.098574
v 0.014514 0.103267 -0.086572
v 0.012219 0.101110 -0.087026
v 0.014358 0.098772 -0.086729
v 0.016652 0.100929 -0.086276
vn 0.0081 0.9752 0.2211
vn -0.9909 0.1276 0.0430
vn -0.0005 -0.9744 -0.2250
vn 0.9917 0.1281 0.0115
vn 0.0098 0.9149 0.4036
vn -0.9958 0.0841 0.0364
vn 0.0026 -0.9135 -0.4068
vn 0.9967 0.0751 0.0303
vn 0.0122 0.8582 0.5132
vn -0.9990 -0.0093 -0.0430
vn 0.0053 -0.8592 -0.5115
vn 0.9988 -0.0478 0.0105
vn 0.0410 0.9734 0.2256
vn -0.9927 -0.0661 -0.1010
vn -0.0086 -0.9748 -0.2230
vn 0.9886 -0.1406 0.0536
vn 0.0690 0.9936 -0.0890
vn -0.9905 0.0078 -0.1374
vn -0.0441 -0.9950 0.0894
vn 0.9870 -0.0776 0.1406
vn 0.0624 0.9910 -0.1185
vn -0.9831 0.0612 -0.1728
vn -0.0587 -0.9911 0.1194
vn 0.9856 -0.0188 0.1679
vn 0.0493 0.9961 -0.0725
vn -0.9801 0.0887 -0.1775
vn -0.0565 -0.9958 0.0721
vn 0.9852 0.0090 0.1712
vt 0.000000 1.000000
vt 0.166667 1.000000
vt 0.166667 0.750000
vt 0.000000 0.750000
vt 0.000000 0.250000
vt 0.166667 0.250000
vt 0.166667 0.000000
vt 0.000000 0.000000
vt 0.000000 0.500000
vt 0.166667 0.500000
vt 0.333333 1.000000
vt 0.333333 0.750000
vt 0.333333 0.250000
vt 0.333333 0.000000
vt 0.333333 0.500000
vt 0.500000 1.000000
vt 0.500000 0.750000
vt 0.500000 0.250000
vt 0.500000 0.000000
vt 0.500000 0.500000
vt 0.666667 1.000000
vt 0.666667 0.750000
vt 0.666667 0.250000
vt 0.666667 0.000000
vt 0.666667 0.500000
vt 0.833333 1.000000
vt 0.833333 0.750000
vt 0.833333 0.250000
vt 0.833333 0.000000
vt 0.833333 0.500000
vt 1.000000 1.000000
vt 1.000000 0.750000
vt 1.000000 0.250000
vt 1.000000 0.000000
vt 1.000000 0.500000
s 1
f 1/1/1 5/2/5 8/3/8 4/4/4
f 2/5/2 6/6/6 5/7/5 1/8/1
f 3/9/3 7/10/7 6/6/6 2/5/2
f 4/4/4 8/3/8 7/10/7 3/9/3
f 5/2/5 9/11/9 12/12/12 8/3/8
f 6/6/6 10/13/10 9/14/9 5/7/5
f 7/10/7 11/15/11 10/13/10 6/6/6
f 8/3/8 12/12/12 11/15/11 7/10/7
f 9/11/9 13/16/13 16/17/16 12/12/12
f 10/13/10 14/18/14 13/19/13 9/14/9
f 11/15/11 15/20/15 14/18/14 10/13/10
f 12/12/12 16/17/16 15/20/15 11/15/11
f 13/16/13 17/21/17 20/22/20 16/17/16
f 14/18/14 18/23/18 17/24/17 13/19/13
f 15/20/15 19/25/19 18/23/18 14/18/14
f 16/17/16 20/22/20 19/25/19 15/20/15
f 17/21/17 21/26/21 24/27/24 20/22/20
f 18/23/18 22/28/22 21/29/21 17/24/17
f 19/25/19 23/30/23 22/28/22 18/23/18
f 20/22/20 24/27/24 23/30/23 19/25/19
f 21/26/21 25/31/25 28/32/28 24/27/24
f 22/28/22 26/33/26 25/34/25 21/29/21
f 23/30/23 27/35/27 26/33/26 22/28/22
f 24/27/24 28/32/28 27/35/27 23/30/23
o Cable.002
v 0.019976 0.114270 -0.151680
v 0.017730 0.112024 -0.151486
v 0.019983 0.109779 -0.151404
v 0.022229 0.112024 -0.151597
v 0.020193 0.111174 -0.137926
v 0.017932 0.109127 -0.138832
v 0.020171 0.107061 -0.139752
v 0.022432 0.109109 -0.138846
v 0.020033 0.104375 -0.128148
v 0.017778 0.102486 -0.129361
v 0.020020 0.100510 -0.130453
v 0.022276 0.102399 -0.129240
v 0.019540 0.100059 -0.119676
v 0.017251 0.097956 -0.120353
v 0.019444 0.095675 -0.120684
v 0.021734 0.097778 -0.120006
v 0.018472 0.100286 -0.110113
v 0.016120 0.098147 -0.110225
v 0.018219 0.095812 -0.109711
v 0.020572 0.097951 -0.109599
v 0.016715 0.102242 -0.099224
v 0.014363 0.100102 -0.099340
v 0.016442 0.097782 -0.098689
v 0.018794 0.099922 -0.098574
v 0.014514 0.103267 -0.086572
v 0.012219 0.101110 -0.087026
v 0.014358 0.098772 -0.086729
v 0.016652 0.100929 -0.086276
vn 0.0081 0.9752 0.2211
vn -0.9909 0.1276 0.0430
vn -0.0005 -0.9744 -0.2250
vn 0.9917 0.1281 0.0115
vn 0.0098 0.9149 0.4036
vn -0.9958 0.0841 0.0364
vn 0.0026 -0.9135 -0.4068
vn 0.9967 0.0751 0.0303
vn 0.0122 0.8582 0.5132
vn -0.9990 -0.0093 -0.0430
vn 0.0053 -0.8592 -0.5115
vn 0.9988 -0.0478 0.0105
vn 0.0410 0.9734 0.2256
vn -0.9927 -0.0661 -0.1010
vn -0.0086 -0.9748 -0.2230
vn 0.9886 -0.1406 0.0536
vn 0.0690 0.9936 -0.0890
vn -0.9905 0.0078 -0.1374
vn -0.0441 -0.9950 0.0894
vn 0.9870 -0.0776 0.1406
vn 0.0624 0.9910 -0.1185
vn -0.9831 0.0612 -0.1728
vn -0.0587 -0.9911 0.1194
vn 0.9856 -0.0188 0.1679
vn 0.0493 0.9961 -0.0725
vn -0.9801 0.0887 -0.1775
vn -0.0565 -0.9958 0.0721
vn 0.9852 0.0090 0.1712
vt 0.000000 1.000000
vt 0.166667 1.000000
vt 0.166667 0.750000
vt 0.000000 0.750000
vt 0.000000 0.250000
vt 0.166667 0.250000
vt 0.166667 0.000000
vt 0.000000 0.000000
vt 0.000000 0.500000
vt 0.166667 0.500000
vt 0.333333 1.000000
vt 0.333333 0.750000
vt 0.333333 0.250000
vt 0.333333 0.000000
vt 0.333333 0.500000
vt 0.500000 1.000000
vt 0.500000 0.750000
vt 0.500000 0.250000
vt 0.500000 0.000000
vt 0.500000 0.500000
vt 0.666667 1.000000
vt 0.666667 0.750000
vt 0.666667 0.250000
vt 0.666667 0.000000
vt 0.666667 0.500000
vt 0.833333 1.000000
vt 0.833333 0.750000
vt 0.833333 0.250000
vt 0.833333 0.000000
vt 0.833333 0.500000
vt 1.000000 1.000000
vt 1.000000 0.750000
vt 1.000000 0.250000
vt 1.000000 0.000000
vt 1.000000 0.500000
s 1
f 29/36/29 33/37/33 36/38/36 32/39/32
f 30/40/30 34/41/34 33/42/33 29/43/29
f 31/44/31 35/45/35 34/41/34 30/40/30
f 32/39/32 36/38/36 35/45/35 31/44/31
f 33/37/33 37/46/37 40/47/40 36/38/36
f 34/41/34 38/48/38 37/49/37 33/42/33
f 35/45/35 39/50/39 38/48/38 34/41/34
f 36/38/36 40/47/40 39/50/39 35/45/35
f 37/46/37 41/51/41 44/52/44 40/47/40
f 38/48/38 42/53/42 41/54/41 37/49/37
f 39/50/39 43/55/43 42/53/42 38/48/38
f 40/47/40 44/52/44 43/55/43 39/50/39
f 41/51/41 45/56/45 48/57/48 44/52/44
f 42/53/42 46/58/46 45/59/45 41/54/41
f 43/55/43 47/60/47 46/58/46 42/53/42
f 44/52/44 48/57/48 47/60/47 43/55/43
f 45/56/45 49/61/49 52/62/52 48/57/48
f 46/58/46 50/63/50 49/64/49 45/59/45
f 47/60/47 51/65/51 50/63/50 46/58/46
f 48/57/48 52/62/52 51/65/51 47/60/47
f 49/61/49 53/66/53 56/67/56 52/62/52
f 50/63/50 54/68/54 53/69/53 49/64/49
f 51/65/51 55/70/55 54/68/54 50/63/50
f 52/62/52 56/67/56 55/70/55 51/65/51
o Cable.003
v 0.002891 0.113984 -0.148882
v 0.000644 0.111734 -0.148770
v 0.002891 0.109484 -0.148882
v 0.005138 0.111734 -0.148995
v 0.003371 0.110937 -0.135976
v 0.001093 0.108865 -0.136781
v 0.003315 0.106765 -0.137662
v 0.005593 0.108836 -0.136857
v 0.003254 0.105186 -0.126193
v 0.000984 0.103281 -0.127352
v 0.003208 0.101226 -0.128330
v 0.005478 0.103131 -0.127170
v 0.002480 0.101487 -0.118737
v 0.000178 0.099454 -0.119568
v 0.002334 0.097133 -0.119863
v 0.004636 0.099166 -0.119032
v 0.000951 0.101155 -0.109638
v -0.001436 0.099067 -0.109893
v 0.000608 0.096673 -0.109429
v 0.002995 0.098761 -0.109174
v -0.000412 0.102612 -0.100553
v -0.002830 0.100545 -0.100589
v -0.000802 0.098161 -0.100018
v 0.001617 0.100229 -0.099982
v -0.001458 0.103639 -0.090547
v -0.003861 0.101562 -0.090732
v -0.001791 0.099151 -0.090574
v 0.000613 0.101228 -0.090389
vn 0.0157 0.9729 0.2305
vn -0.9927 0.1041 0.0605
vn -0.0046 -0.9723 -0.2338
vn 0.9945 0.1037 -0.0140
vn 0.0206 0.9276 0.3729
vn -0.9967 0.0698 0.0409
vn -0.0011 -0.9268 -0.3755
vn 0.9984 0.0555 0.0070
vn 0.0292 0.8788 0.4762
vn -0.9987 0.0174 -0.0480
vn 0.0079 -0.8808 -0.4734
vn 0.9983 -0.0488 0.0329
vn 0.0555 0.9658 0.2532
vn -0.9896 -0.0269 -0.1414
vn -0.0161 -0.9687 -0.2479
vn 0.9841 -0.1490 0.0966
vn 0.0758 0.9960 -0.0478
vn -0.9870 0.0243 -0.1588
vn -0.0767 -0.9960 0.0452
vn 0.9806 -0.1125 0.1605
vn 0.0762 0.9898 -0.1202
vn -0.9873 0.0815 -0.1362
vn -0.0975 -0.9883 0.1174
vn 0.9893 -0.0591 0.1336
vn 0.0670 0.9932 -0.0953
vn -0.9863 0.1181 -0.1149
vn -0.0985 -0.9908 0.0930
vn 0.9938 -0.0282 0.1075
vt 0.000000 1.000000
vt 0.166667 1.000000
vt 0.166667 0.750000
vt 0.000000 0.750000
vt 0.000000 0.250000
vt 0.166667 0.250000
vt 0.166667 0.000000
vt 0.000000 0.000000
vt 0.000000 0.500000
vt 0.166667 0.500000
vt 0.333333 1.000000
vt 0.333333 0.750000
vt 0.333333 0.250000
vt 0.333333 0.000000
vt 0.333333 0.500000
vt 0.500000 1.000000
vt 0.500000 0.750000
vt 0.500000 0.250000
vt 0.500000 0.000000
vt 0.500000 0.500000
vt 0.666667 1.000000
vt 0.666667 0.750000
vt 0.666667 0.250000
vt 0.666667 0.000000
vt 0.666667 0.500000
vt 0.833333 1.000000
vt 0.833333 0.750000
vt 0.833333 0.250000
vt 0.833333 0.000000
vt 0.833333 0.500000
vt 1.000000 1.000000
vt 1.000000 0.750000
vt 1.000000 0.250000
vt 1.000000 0.000000
vt 1.000000 0.500000
s 1
f 57/71/57 61/72/61 64/73/64 60/74/60
f 58/75/58 62/76/62 61/77/61 57/78/57
f 59/79/59 63/80/63 62/76/62 58/75/58
f 60/74/60 64/73/64 63/80/63 59/79/59
f 61/72/61 65/81/65 68/82/68 64/73/64
f 62/76/62 66/83/66 65/84/65 61/77/61
f 63/80/63 67/85/67 66/83/66 62/76/62
f 64/73/64 68/82/68 67/85/67 63/80/63
f 65/81/65 69/86/69 72/87/72 68/82/68
f 66/83/66 70/88/70 69/89/69 65/84/65
f 67/85/67 71/90/71 70/88/70 66/83/66
f 68/82/68 72/87/72 71/90/71 67/85/67
f 69/86/69 73/91/73 76/92/76 72/87/72
f 70/88/70 74/93/74 73/94/73 69/89/69
f 71/90/71 75/95/75 74/93/74 70/88/70
f 72/87/72 76/92/76 75/95/75 71/90/71
f 73/91/73 77/96/77 80/97/80 76/92/76
f 74/93/74 78/98/78 77/99/77 73/94/73
f 75/95/75 79/100/79 78/98/78 74/93/74
f 76/92/76 80/97/80 79/100/79 75/95/75
f 77/96/77 81/101/81 84/102/84 80/97/80
f 78/98/78 82/103/82 81/104/81 77/99/77
f 79/100/79 83/105/83 82/103/82 78/98/78
f 80/97/80 84/102/84 83/105/83 79/100/79
o Cable.003
v 0.002891 0.113984 -0.148882
v 0.000644 0.111734 -0.148770
v 0.002891 0.109484 -0.148882
v 0.005138 0.111734 -0.148995
v 0.003371 0.110937 -0.135976
v 0.001093 0.108865 -0.136781
v 0.003315 0.106765 -0.137662
v 0.005593 0.108836 -0.136857
v 0.003254 0.105186 -0.126193
v 0.000984 0.103281 -0.127352
v 0.003208 0.101226 -0.128330
v 0.005478 0.103131 -0.127170
v 0.002480 0.101487 -0.118737
v 0.000178 0.099454 -0.119568
v 0.002334 0.097133 -0.119863
v 0.004636 0.099166 -0.119032
v 0.000951 0.101155 -0.109638
v -0.001436 0.099067 -0.109893
v 0.000608 0.096673 -0.109429
v 0.002995 0.098761 -0.109174
v -0.000412 0.102612 -0.100553
v -0.002830 0.100545 -0.100589
v -0.000802 0.098161 -0.100018
v 0.001617 0.100229 -0.099982
v -0.001458 0.103639 -0.090547
v -0.003861 0.101562 -0.090732
v -0.001791 0.099151 -0.090574
v 0.000613 0.101228 -0.090389
vn 0.0157 0.9729 0.2305
vn -0.9927 0.1041 0.0605
vn -0.0046 -0.9723 -0.2338
vn 0.9945 0.1037 -0.0140
vn 0.0206 0.9276 0.3729
vn -0.9967 0.0698 0.0409
vn -0.0011 -0.9268 -0.3755
vn 0.9984 0.0555 0.0070
vn 0.0292 0.8788 0.4762
vn -0.9987 0.0174 -0.0480
vn 0.0079 -0.8808 -0.4734
vn 0.9983 -0.0488 0.0329
vn 0.0555 0.9658 0.2532
vn -0.9896 -0.0269 -0.1414
vn -0.0161 -0.9687 -0.2479
vn 0.9841 -0.1490 0.0966
vn 0.0758 0.9960 -0.0478
vn -0.9870 0.0243 -0.1588
vn -0.0767 -0.9960 0.0452
vn 0.9806 -0.1125 0.1605
vn 0.0762 0.9898 -0.1202
vn -0.9873 0.0815 -0.1362
vn -0.0975 -0.9883 0.1174
vn 0.9893 -0.0591 0.1336
vn 0.0670 0.9932 -0.0953
vn -0.9863 0.1181 -0.1149
vn -0.0985 -0.9908 0.0930
vn 0.9938 -0.0282 0.1075
vt 0.000000 1.000000
vt 0.166667 1.000000
vt 0.166667 0.750000
vt 0.000000 0.750000
vt 0.000000 0.250000
vt 0.166667 0.250000
vt 0.166667 0.000000
vt 0.000000 0.000000
vt 0.000000 0.500000
vt 0.166667 0.500000
vt 0.333333 1.000000
vt 0.333333 0.750000
vt 0.333333 0.250000
vt 0.333333 0.000000
vt 0.333333 0.500000
vt 0.500000 1.000000
vt 0.500000 0.750000
vt 0.500000 0.250000
vt 0.500000 0.000000
vt 0.500000 0.500000
vt 0.666667 1.000000
vt 0.666667 0.750000
vt 0.666667 0.250000
vt 0.666667 0.000000
vt 0.666667 0.500000
vt 0.833333 1.000000
vt 0.833333 0.750000
vt 0.833333 0.250000
vt 0.833333 0.000000
vt 0.833333 0.500000
vt 1.000000 1.000000
vt 1.000000 0.750000
vt 1.000000 0.250000
vt 1.000000 0.000000
vt 1.000000 0.500000
s 1
f 85/106/85 89/107/89 92/108/92 88/109/88
f 86/110/86 90/111/90 89/112/89 85/113/85
f 87/114/87 91/115/91 90/111/90 86/110/86
f 88/109/88 92/108/92 91/115/91 87/114/87
f 89/107/89 93/116/93 96/117/96 92/108/92
f 90/111/90 94/118/94 93/119/93 89/112/89
f 91/115/91 95/120/95 94/118/94 90/111/90
f 92/108/92 96/117/96 95/120/95 91/115/91
f 93/116/93 97/121/97 100/122/100 96/117/96
f 94/118/94 98/123/98 97/124/97 93/119/93
f 95/120/95 99/125/99 98/123/98 94/118/94
f 96/117/96 100/122/100 99/125/99 95/120/95
f 97/121/97 101/126/101 104/127/104 100/122/100
f 98/123/98 102/128/102 101/129/101 97/124/97
f 99/125/99 103/130/103 102/128/102 98/123/98
f 100/122/100 104/127/104 103/130/103 99/125/99
f 101/126/101 105/131/105 108/132/108 104/127/104
f 102/128/102 106/133/106 105/134/105 101/129/101
f 103/130/103 107/135/107 106/133/106 102/128/102
f 104/127/104 108/132/108 107/135/107 103/130/103
f 105/131/105 109/136/109 112/137/112 108/132/108
f 106/133/106 110/138/110 109/139/109 105/134/105
f 107/135/107 111/140/111 110/138/110 106/133/106
f 108/132/108 112/137/112 111/140/111 107/135/107
