# Blender 4.4.3
# www.blender.org
o Camera
v -0.023604 0.000153 -0.052639
v 0.057470 0.000153 -0.037015
v -0.034280 -0.025953 -0.045587
v 0.057470 -0.018354 -0.032056
v -0.042096 -0.045064 -0.026320
v 0.057470 -0.031902 -0.018507
v -0.044957 -0.052060 0.000000
v 0.057470 -0.036861 0.000000
v -0.042096 -0.045064 0.026320
v 0.057470 -0.031902 0.018507
v -0.034280 -0.025953 0.045587
v 0.057470 -0.018354 0.032056
v -0.023604 0.000153 0.052639
v 0.057470 0.000153 0.037015
v -0.012927 0.026260 0.045587
v 0.057470 0.018661 0.032056
v -0.005111 0.045371 0.026320
v 0.057470 0.032209 0.018507
v -0.002251 0.052366 0.000000
v 0.057470 0.037168 0.000000
v -0.005111 0.045371 -0.026320
v 0.057470 0.032209 -0.018507
v -0.012927 0.026260 -0.045587
v 0.057470 0.018661 -0.032056
v 0.057470 -0.026166 -0.045587
v 0.057470 0.000153 -0.052639
v 0.057470 -0.045434 -0.026320
v 0.057470 -0.052486 0.000000
v 0.057470 -0.045434 0.026320
v 0.057470 -0.026166 0.045587
v 0.057470 0.000153 0.052639
v 0.057470 0.026473 0.045587
v 0.057470 0.045740 0.026320
v 0.057470 0.052793 0.000000
v 0.057470 0.045740 -0.026320
v 0.057470 0.026473 -0.045587
v 0.041588 -0.018354 -0.032056
v 0.041588 0.000153 -0.037015
v 0.041588 -0.031902 -0.018507
v 0.041588 -0.036861 0.000000
v 0.041588 -0.031902 0.018507
v 0.041588 -0.018354 0.032056
v 0.041588 0.000153 0.037015
v 0.041588 0.018661 0.032056
v 0.041588 0.032209 0.018507
v 0.041588 0.037168 0.000000
v 0.041588 0.032209 -0.018507
v 0.041588 0.018661 -0.032056
vn -0.0003 -0.2597 -0.9657
vn -0.0022 -0.7083 -0.7059
vn -0.0038 -0.9661 -0.2580
vn -0.0038 -0.9661 0.2580
vn -0.0022 -0.7083 0.7059
vn -0.0003 -0.2597 0.9657
vn -0.0004 0.2599 0.9656
vn -0.0031 0.7089 0.7054
vn -0.0063 0.9663 0.2575
vn -0.0063 0.9663 -0.2575
vn -0.0000 -0.2588 0.9659
vn -0.0031 0.7089 -0.7054
vn -0.0004 0.2599 -0.9656
vn -0.9256 0.3785 -0.0000
vn 1.0000 -0.0000 -0.0000
vn -0.0000 0.7071 0.7071
vn -0.0000 -0.9659 -0.2588
vn -0.0000 0.2588 -0.9659
vn -0.0000 0.9659 0.2588
vn -0.0000 -0.9659 0.2588
vn -0.0000 -0.2588 -0.9659
vn -0.0000 0.9659 -0.2588
vn -0.0000 -0.7071 0.7071
vn -0.0000 0.2588 0.9659
vn -0.0000 -0.7071 -0.7071
vn -0.0000 0.7071 -0.7071
vt 1.000000 0.500000
vt 1.000000 1.000000
vt 0.916667 1.000000
vt 0.916667 0.500000
vt 0.833333 1.000000
vt 0.833333 0.500000
vt 0.750000 1.000000
vt 0.750000 0.500000
vt 0.666667 1.000000
vt 0.666667 0.500000
vt 0.583333 1.000000
vt 0.583333 0.500000
vt 0.500000 1.000000
vt 0.500000 0.500000
vt 0.416667 1.000000
vt 0.416667 0.500000
vt 0.333333 1.000000
vt 0.333333 0.500000
vt 0.250000 1.000000
vt 0.250000 0.500000
vt 0.166667 1.000000
vt 0.166667 0.500000
vt 0.250000 0.355653
vt 0.197174 0.341498
vt 0.083333 1.000000
vt 0.083333 0.500000
vt 0.000000 1.000000
vt 0.000000 0.500000
vt 0.750000 0.490000
vt 0.870000 0.457846
vt 0.957846 0.370000
vt 0.990000 0.250000
vt 0.957846 0.130000
vt 0.870000 0.042154
vt 0.750000 0.010000
vt 0.630000 0.042154
vt 0.542154 0.130000
vt 0.510000 0.250000
vt 0.542154 0.370000
vt 0.630000 0.457846
vt 0.302826 0.341498
vt 0.370000 0.457846
vt 0.250000 0.490000
vt 0.341498 0.302826
vt 0.457846 0.370000
vt 0.355653 0.250000
vt 0.490000 0.250000
vt 0.341498 0.197174
vt 0.457846 0.130000
vt 0.302826 0.158502
vt 0.370000 0.042154
vt 0.250000 0.144347
vt 0.250000 0.010000
vt 0.197174 0.158502
vt 0.130000 0.042154
vt 0.158502 0.197174
vt 0.042154 0.130000
vt 0.144347 0.250000
vt 0.010000 0.250000
vt 0.158502 0.302826
vt 0.042154 0.370000
vt 0.130000 0.457846
s 0
f 1/1/1 26/2/1 25/3/1 3/4/1
f 3/4/2 25/3/2 27/5/2 5/6/2
f 5/6/3 27/5/3 28/7/3 7/8/3
f 7/8/4 28/7/4 29/9/4 9/10/4
f 9/10/5 29/9/5 30/11/5 11/12/5
f 11/12/6 30/11/6 31/13/6 13/14/6
f 13/14/7 31/13/7 32/15/7 15/16/7
f 15/16/8 32/15/8 33/17/8 17/18/8
f 17/18/9 33/17/9 34/19/9 19/20/9
f 19/20/10 34/19/10 35/21/10 21/22/10
f 2/23/11 24/24/11 48/24/11 38/23/11
f 21/22/12 35/21/12 36/25/12 23/26/12
f 23/26/13 36/25/13 26/27/13 1/28/13
f 1/29/14 3/30/14 5/31/14 7/32/14 9/33/14 11/34/14 13/35/14 15/36/14 17/37/14 19/38/14 21/39/14 23/40/14
f 2/23/15 4/41/15 25/42/15 26/43/15
f 4/41/15 6/44/15 27/45/15 25/42/15
f 6/44/15 8/46/15 28/47/15 27/45/15
f 8/46/15 10/48/15 29/49/15 28/47/15
f 10/48/15 12/50/15 30/51/15 29/49/15
f 12/50/15 14/52/15 31/53/15 30/51/15
f 14/52/15 16/54/15 32/55/15 31/53/15
f 16/54/15 18/56/15 33/57/15 32/55/15
f 18/56/15 20/58/15 34/59/15 33/57/15
f 20/58/15 22/60/15 35/61/15 34/59/15
f 22/60/15 24/24/15 36/62/15 35/61/15
f 24/24/15 2/23/15 26/43/15 36/62/15
f 6/44/16 4/41/16 37/41/16 39/44/16
f 20/58/17 18/56/17 45/56/17 46/58/17
f 14/52/18 12/50/18 42/50/18 43/52/18
f 8/46/19 6/44/19 39/44/19 40/46/19
f 22/60/20 20/58/20 46/58/20 47/60/20
f 16/54/21 14/52/21 43/52/21 44/54/21
f 10/48/22 8/46/22 40/46/22 41/48/22
f 24/24/23 22/60/23 47/60/23 48/24/23
f 4/41/24 2/23/24 38/23/24 37/41/24
f 18/56/25 16/54/25 44/54/25 45/56/25
f 12/50/26 10/48/26 41/48/26 42/50/26
o Cam_Pivot
v -0.009157 -0.000000 0.086626
v -0.009157 -0.000000 -0.086626
v -0.006475 -0.006475 0.086626
v -0.006475 -0.006475 -0.086626
v 0.000000 -0.009157 0.086626
v -0.000000 -0.009157 -0.086626
v 0.006475 -0.006475 0.086626
v 0.006475 -0.006475 -0.086626
v 0.009157 0.000000 0.086626
v 0.009157 0.000000 -0.086626
v 0.006475 0.006475 0.086626
v 0.006475 0.006475 -0.086626
v -0.000000 0.009157 0.086626
v -0.000000 0.009157 -0.086626
v -0.006475 0.006475 0.086626
v -0.006475 0.006475 -0.086626
v -0.009157 -0.000000 0.060668
v -0.009157 -0.000000 -0.060668
v -0.006475 -0.006475 -0.060668
v -0.006475 -0.006475 0.060668
v -0.000000 -0.009157 -0.060668
v -0.000000 -0.009157 0.060668
v 0.006475 -0.006475 -0.060668
v 0.006475 -0.006475 0.060668
v 0.009157 0.000000 -0.060668
v 0.009157 0.000000 0.060668
v 0.006475 0.006475 -0.060668
v 0.006475 0.006475 0.060668
v -0.000000 0.009157 -0.060668
v -0.000000 0.009157 0.060668
v -0.006475 0.006475 -0.060668
v -0.006475 0.006475 0.060668
v -0.006475 -0.006475 0.075453
v -0.000000 -0.009157 0.075453
v 0.006475 -0.006475 0.075453
v 0.009157 0.000000 0.075453
v 0.006475 0.006475 0.075453
v -0.000000 0.009157 0.075453
v -0.006475 0.006475 0.075453
v -0.009157 -0.000000 0.075453
v -0.009157 -0.000000 -0.075453
v -0.006475 -0.006475 -0.075453
v -0.000000 -0.009157 -0.075453
v 0.006475 -0.006475 -0.075453
v 0.009157 0.000000 -0.075453
v 0.006475 0.006475 -0.075453
v -0.000000 0.009157 -0.075453
v -0.006475 0.006475 -0.075453
v -0.003547 -0.003547 -0.075453
v -0.003547 -0.003547 -0.060668
v -0.000000 -0.005017 -0.075453
v -0.000000 -0.005017 -0.060668
v 0.003547 -0.003547 -0.075453
v 0.003547 -0.003547 -0.060668
v 0.005017 -0.000000 -0.075453
v 0.005017 -0.000000 -0.060668
v 0.003547 0.003547 -0.075453
v 0.003547 0.003547 -0.060668
v -0.000000 0.005017 -0.075453
v -0.000000 0.005017 -0.060668
v -0.003547 0.003547 -0.075453
v -0.003547 0.003547 -0.060668
v -0.005017 -0.000000 -0.060668
v -0.005017 -0.000000 -0.075453
v -0.005017 -0.000000 0.075453
v -0.005017 -0.000000 0.060668
v -0.003547 0.003547 0.060668
v -0.000000 0.005017 0.060668
v 0.003547 0.003547 0.060668
v 0.005017 -0.000000 0.060668
v 0.003547 -0.003547 0.060668
v -0.000000 -0.005017 0.060668
v -0.003547 -0.003547 0.060668
v -0.003547 -0.003547 0.075453
v -0.000000 -0.005017 0.075453
v 0.003547 -0.003547 0.075453
v 0.005017 -0.000000 0.075453
v 0.003547 0.003547 0.075453
v -0.000000 0.005017 0.075453
v -0.003547 0.003547 0.075453
vn -0.9239 -0.3827 -0.0000
vn -0.3827 -0.9239 -0.0000
vn 0.3827 -0.9239 -0.0000
vn 0.9239 -0.3827 -0.0000
vn 0.9239 0.3827 -0.0000
vn 0.3827 0.9239 -0.0000
vn -0.0000 -0.0000 -1.0000
vn -0.3827 0.9239 -0.0000
vn -0.9239 0.3827 -0.0000
vn -0.0000 -0.0000 1.0000
vt 1.000000 0.916667
vt 1.000000 1.000000
vt 0.875000 1.000000
vt 0.875000 0.916667
vt 0.750000 1.000000
vt 0.750000 0.916667
vt 0.625000 1.000000
vt 0.625000 0.916667
vt 0.500000 1.000000
vt 0.500000 0.916667
vt 0.375000 1.000000
vt 0.375000 0.916667
vt 0.250000 1.000000
vt 0.250000 0.916667
vt 0.419706 0.419706
vt 0.250000 0.490000
vt 0.080294 0.419706
vt 0.010000 0.250000
vt 0.080294 0.080294
vt 0.250000 0.010000
vt 0.419706 0.080294
vt 0.490000 0.250000
vt 0.125000 1.000000
vt 0.125000 0.916667
vt 0.000000 1.000000
vt 0.000000 0.916667
vt 0.750000 0.490000
vt 0.919706 0.419706
vt 0.990000 0.250000
vt 0.919706 0.080294
vt 0.750000 0.010000
vt 0.580294 0.080294
vt 0.510000 0.250000
vt 0.580294 0.419706
vt 0.250000 0.583333
vt 0.375000 0.583333
vt 0.125000 0.666667
vt 0.125000 0.833333
vt 0.000000 0.833333
vt 0.000000 0.666667
vt 1.000000 0.666667
vt 0.875000 0.666667
vt 0.250000 0.666667
vt 0.250000 0.833333
vt 0.500000 0.666667
vt 0.375000 0.666667
vt 0.375000 0.833333
vt 0.500000 0.583333
vt 0.500000 0.833333
vt 0.625000 0.583333
vt 0.625000 0.666667
vt 0.625000 0.833333
vt 0.750000 0.666667
vt 0.750000 0.833333
vt 0.875000 0.833333
vt 0.750000 0.583333
vt 1.000000 0.833333
vt 1.000000 0.500000
vt 1.000000 0.583333
vt 0.875000 0.583333
vt 0.875000 0.500000
vt 0.750000 0.500000
vt 0.625000 0.500000
vt 0.500000 0.500000
vt 0.375000 0.500000
vt 0.250000 0.500000
vt 0.125000 0.583333
vt 0.125000 0.500000
vt 0.000000 0.583333
vt 0.000000 0.500000
s 0
f 89/63/27 50/64/27 52/65/27 90/66/27
f 90/66/28 52/65/28 54/67/28 91/68/28
f 91/68/29 54/67/29 56/69/29 92/70/29
f 92/70/30 56/69/30 58/71/30 93/72/30
f 93/72/31 58/71/31 60/73/31 94/74/31
f 94/74/32 60/73/32 62/75/32 95/76/32
f 52/77/33 50/78/33 64/79/33 62/80/33 60/81/33 58/82/33 56/83/33 54/84/33
f 95/76/34 62/75/34 64/85/34 96/86/34
f 96/86/35 64/85/35 50/87/35 89/88/35
f 49/89/36 51/90/36 53/91/36 55/92/36 57/93/36 59/94/36 61/95/36 63/96/36
f 86/97/33 85/98/33 126/98/33 127/97/33
f 80/99/35 79/100/35 66/101/35 65/102/35
f 65/103/36 68/104/36 121/104/36 114/103/36
f 78/105/34 77/106/34 79/100/34 80/99/34
f 74/107/36 76/108/36 117/108/36 118/107/36
f 76/108/32 75/109/32 77/106/32 78/105/32
f 85/98/33 84/110/33 125/110/33 126/98/33
f 74/107/31 73/111/31 75/109/31 76/108/31
f 84/110/33 83/112/33 124/112/33 125/110/33
f 72/113/30 71/114/30 73/111/30 74/107/30
f 68/104/36 70/115/36 120/115/36 121/104/36
f 70/115/29 69/116/29 71/114/29 72/113/29
f 76/108/36 78/105/36 116/105/36 117/108/36
f 68/104/28 67/117/28 69/116/28 70/115/28
f 83/112/33 82/118/33 123/118/33 124/112/33
f 65/103/27 66/119/27 67/117/27 68/104/27
f 49/120/27 88/121/27 81/122/27 51/123/27
f 51/123/28 81/122/28 82/118/28 53/124/28
f 53/124/29 82/118/29 83/112/29 55/125/29
f 55/125/30 83/112/30 84/110/30 57/126/30
f 57/126/31 84/110/31 85/98/31 59/127/31
f 59/127/32 85/98/32 86/97/32 61/128/32
f 61/128/34 86/97/34 87/129/34 63/130/34
f 63/130/35 87/129/35 88/131/35 49/132/35
f 92/70/36 93/72/36 103/72/36 101/70/36
f 75/109/33 73/111/33 104/111/33 106/109/33
f 93/72/36 94/74/36 105/74/36 103/72/36
f 69/116/33 67/117/33 98/117/33 100/116/33
f 94/74/36 95/76/36 107/76/36 105/74/36
f 77/106/33 75/109/33 106/109/33 108/106/33
f 95/76/36 96/86/36 109/86/36 107/76/36
f 71/114/33 69/116/33 100/116/33 102/114/33
f 110/100/35 109/86/35 112/88/35 111/101/35
f 108/106/34 107/76/34 109/86/34 110/100/34
f 106/109/32 105/74/32 107/76/32 108/106/32
f 104/111/31 103/72/31 105/74/31 106/109/31
f 102/114/30 101/70/30 103/72/30 104/111/30
f 100/116/29 99/68/29 101/70/29 102/114/29
f 98/117/28 97/66/28 99/68/28 100/116/28
f 111/119/27 112/63/27 97/66/27 98/117/27
f 67/117/33 66/119/33 111/119/33 98/117/33
f 91/68/36 92/70/36 101/70/36 99/68/36
f 66/101/33 79/100/33 110/100/33 111/101/33
f 90/66/36 91/68/36 99/68/36 97/66/36
f 73/111/33 71/114/33 102/114/33 104/111/33
f 89/63/36 90/66/36 97/66/36 112/63/36
f 79/100/33 77/106/33 108/106/33 110/100/33
f 96/86/36 89/88/36 112/88/36 109/86/36
f 128/129/35 115/99/35 114/102/35 113/131/35
f 127/97/34 116/105/34 115/99/34 128/129/34
f 126/98/32 117/108/32 116/105/32 127/97/32
f 125/110/31 118/107/31 117/108/31 126/98/31
f 124/112/30 119/113/30 118/107/30 125/110/30
f 123/118/29 120/115/29 119/113/29 124/112/29
f 122/122/28 121/104/28 120/115/28 123/118/28
f 113/121/27 114/103/27 121/104/27 122/122/27
f 80/99/36 65/102/36 114/102/36 115/99/36
f 87/129/33 86/97/33 127/97/33 128/129/33
f 72/113/36 74/107/36 118/107/36 119/113/36
f 88/131/33 87/129/33 128/129/33 113/131/33
f 81/122/33 88/121/33 113/121/33 122/122/33
f 78/105/36 80/99/36 115/99/36 116/105/36
f 70/115/36 72/113/36 119/113/36 120/115/36
f 82/118/33 81/122/33 122/122/33 123/118/33
o Camera_Lens
v 0.056456 0.000153 0.000000
v 0.041588 -0.018354 -0.032056
v 0.041588 0.000153 -0.037015
v 0.041588 -0.031902 -0.018507
v 0.041588 -0.036861 0.000000
v 0.041588 -0.031902 0.018507
v 0.041588 -0.018354 0.032056
v 0.041588 0.000153 0.037015
v 0.041588 0.018661 0.032056
v 0.041588 0.032209 0.018507
v 0.041588 0.037168 0.000000
v 0.041588 0.032209 -0.018507
v 0.041588 0.018661 -0.032056
v 0.050963 -0.009100 -0.016028
v 0.050963 0.000153 -0.018507
v 0.050963 -0.015874 -0.009254
v 0.050963 -0.018354 0.000000
v 0.050963 -0.015874 0.009254
v 0.050963 -0.009100 0.016028
v 0.050963 0.000153 0.018507
v 0.050963 0.009407 0.016028
v 0.050963 0.016181 0.009254
v 0.050963 0.018661 0.000000
v 0.050963 0.016181 -0.009254
v 0.050963 0.009407 -0.016028
vn 1.0000 -0.0000 -0.0000
vn 0.8921 -0.2259 -0.3913
vn 0.8921 -0.0000 -0.4519
vn 0.8921 -0.3913 -0.2259
vn 0.8921 -0.4519 -0.0000
vn 0.8921 -0.3913 0.2259
vn 0.8921 -0.2259 0.3913
vn 0.8921 -0.0000 0.4519
vn 0.8921 0.2259 0.3913
vn 0.8921 0.3913 0.2259
vn 0.8921 0.4519 -0.0000
vn 0.8921 0.3913 -0.2259
vn 0.8921 0.2259 -0.3913
vn 0.9240 -0.1912 -0.3312
vn 0.9240 -0.0000 -0.3825
vn 0.9240 -0.3312 -0.1912
vn 0.9240 -0.3825 -0.0000
vn 0.9240 -0.3312 0.1912
vn 0.9240 -0.1912 0.3312
vn 0.9240 -0.0000 0.3825
vn 0.9240 0.1912 0.3312
vn 0.9240 0.3312 0.1912
vn 0.9240 0.3825 -0.0000
vn 0.9240 0.3312 -0.1912
vn 0.9240 0.1912 -0.3312
vt 0.280101 0.302137
vt 0.302826 0.341498
vt 0.250000 0.355653
vt 0.253688 0.309215
vt 0.302137 0.280101
vt 0.341498 0.302826
vt 0.282801 0.299437
vt 0.310203 0.250000
vt 0.355653 0.250000
vt 0.303126 0.276413
vt 0.302137 0.219899
vt 0.341498 0.197174
vt 0.309215 0.246312
vt 0.280101 0.197863
vt 0.302826 0.158502
vt 0.299437 0.217199
vt 0.250000 0.189797
vt 0.250000 0.144347
vt 0.276413 0.196875
vt 0.219899 0.197863
vt 0.197174 0.158502
vt 0.246312 0.190785
vt 0.197863 0.219899
vt 0.158502 0.197174
vt 0.217199 0.200563
vt 0.189797 0.250000
vt 0.144347 0.250000
vt 0.196875 0.223587
vt 0.197863 0.280101
vt 0.158502 0.302826
vt 0.190785 0.253688
vt 0.219899 0.302137
vt 0.197174 0.341498
vt 0.200563 0.282801
vt 0.250000 0.310203
vt 0.223587 0.303126
vt 0.250000 0.264753
vt 0.242623 0.262777
vt 0.237224 0.257377
vt 0.235247 0.250000
vt 0.237223 0.242623
vt 0.242623 0.237224
vt 0.250000 0.235247
vt 0.257377 0.237223
vt 0.262777 0.242623
vt 0.264753 0.250000
vt 0.262777 0.257376
vt 0.257377 0.262777
s 1
f 142/133/50 130/134/38 131/135/39 143/136/51
f 144/137/52 132/138/40 130/134/38 142/139/50
f 145/140/53 133/141/41 132/138/40 144/142/52
f 146/143/54 134/144/42 133/141/41 145/145/53
f 147/146/55 135/147/43 134/144/42 146/148/54
f 148/149/56 136/150/44 135/147/43 147/151/55
f 149/152/57 137/153/45 136/150/44 148/154/56
f 150/155/58 138/156/46 137/153/45 149/157/57
f 151/158/59 139/159/47 138/156/46 150/160/58
f 152/161/60 140/162/48 139/159/47 151/163/59
f 153/164/61 141/165/49 140/162/48 152/166/60
f 143/167/51 131/135/39 141/165/49 153/168/61
f 129/169/37 143/167/51 153/168/61
f 129/170/37 153/164/61 152/166/60
f 129/171/37 152/161/60 151/163/59
f 129/172/37 151/158/59 150/160/58
f 129/173/37 150/155/58 149/157/57
f 129/174/37 149/152/57 148/154/56
f 129/175/37 148/149/56 147/151/55
f 129/176/37 147/146/55 146/148/54
f 129/177/37 146/143/54 145/145/53
f 129/178/37 145/140/53 144/142/52
f 129/179/37 144/137/52 142/139/50
f 129/180/37 142/133/50 143/136/51
