# Blender 4.4.3
# www.blender.org
o Glass_Shield
v -0.012434 0.811273 0.053233
v -0.012434 0.815767 -0.000283
v -0.012434 0.811273 -0.053800
v 0.034806 0.793814 0.104693
v 0.037716 0.806866 0.053233
v 0.038698 0.811273 -0.000283
v 0.037716 0.806866 -0.053800
v 0.034806 0.793814 -0.105260
v 0.080231 0.781520 0.104693
v 0.085938 0.793814 0.053233
v 0.087866 0.797966 -0.000283
v 0.085938 0.793814 -0.053800
v 0.080231 0.781520 -0.105260
v 0.122094 0.761554 0.104693
v 0.130380 0.772619 0.053233
v 0.133178 0.776355 -0.000283
v 0.130380 0.772619 -0.053800
v 0.122094 0.761554 -0.105260
v 0.158788 0.734685 0.104693
v 0.169334 0.744095 0.053233
v 0.172895 0.747272 -0.000283
v 0.169334 0.744095 -0.053800
v 0.158788 0.734685 -0.105260
v 0.188901 0.701946 0.104694
v 0.201302 0.709339 0.053233
v 0.205490 0.711835 -0.000283
v 0.201302 0.709339 -0.053800
v 0.188901 0.701946 -0.105260
v 0.211278 0.664593 0.104694
v 0.225057 0.669686 0.053233
v 0.229710 0.671405 -0.000283
v 0.225057 0.669686 -0.053800
v 0.211278 0.664593 -0.105260
v 0.225057 0.624063 0.104694
v 0.239685 0.626659 0.053233
v 0.244624 0.627536 -0.000283
v 0.239685 0.626659 -0.053800
v 0.225057 0.624063 -0.105260
v 0.229710 0.581913 0.104694
v 0.244624 0.581913 0.053233
v 0.249660 0.581913 -0.000283
v 0.244624 0.581913 -0.053800
v 0.229710 0.581913 -0.105260
v -0.254577 0.581913 0.104694
v -0.269491 0.581913 0.053233
v -0.274527 0.581913 -0.000283
v -0.269491 0.581913 -0.053800
v -0.254577 0.581913 -0.105260
v -0.249924 0.624063 0.104694
v -0.264552 0.626659 0.053233
v -0.269491 0.627536 -0.000283
v -0.264552 0.626659 -0.053800
v -0.249924 0.624063 -0.105260
v -0.236145 0.664593 0.104694
v -0.249924 0.669686 0.053233
v -0.254576 0.671405 -0.000283
v -0.249924 0.669686 -0.053800
v -0.236145 0.664593 -0.105260
v -0.213768 0.701945 0.104694
v -0.226169 0.709339 0.053233
v -0.230356 0.711835 -0.000283
v -0.226169 0.709339 -0.053800
v -0.213768 0.701945 -0.105260
v -0.183655 0.734685 0.104693
v -0.194201 0.744095 0.053233
v -0.197762 0.747272 -0.000283
v -0.194201 0.744095 -0.053800
v -0.183655 0.734685 -0.105260
v -0.146961 0.761554 0.104693
v -0.155247 0.772619 0.053233
v -0.158045 0.776355 -0.000283
v -0.155247 0.772619 -0.053800
v -0.146961 0.761554 -0.105260
v -0.105098 0.781519 0.104693
v -0.110805 0.793814 0.053233
v -0.112732 0.797965 -0.000283
v -0.110805 0.793814 -0.053800
v -0.105098 0.781519 -0.105260
v -0.059673 0.793814 0.104693
v -0.062583 0.806866 0.053233
v -0.063565 0.811273 -0.000283
v -0.062583 0.806866 -0.053800
v -0.059673 0.793814 -0.105260
v -0.012434 0.797965 0.104693
v -0.012434 0.797965 -0.105260
vn -0.0000 0.9860 0.1668
vn -0.0000 1.0000 -0.0000
vn -0.0000 0.9860 -0.1668
vn 0.1689 0.9531 0.2513
vn 0.1728 0.9706 0.1675
vn 0.1753 0.9845 -0.0000
vn 0.1728 0.9706 -0.1675
vn 0.1689 0.9531 -0.2513
vn 0.3348 0.9074 0.2539
vn 0.3426 0.9241 0.1693
vn 0.3476 0.9376 -0.0000
vn 0.3426 0.9241 -0.1693
vn 0.3348 0.9074 -0.2539
vn 0.4941 0.8302 0.2581
vn 0.5056 0.8454 0.1721
vn 0.5133 0.8582 -0.0000
vn 0.5056 0.8454 -0.1721
vn 0.4941 0.8302 -0.2581
vn 0.6417 0.7204 0.2632
vn 0.6566 0.7335 0.1755
vn 0.6670 0.7450 -0.0000
vn 0.6566 0.7335 -0.1755
vn 0.6417 0.7204 -0.2632
vn 0.7705 0.5780 0.2687
vn 0.7884 0.5884 0.1792
vn 0.8015 0.5981 -0.0000
vn 0.7884 0.5884 -0.1792
vn 0.7705 0.5780 -0.2687
vn 0.8722 0.4055 0.2737
vn 0.8923 0.4128 0.1825
vn 0.9076 0.4198 -0.0000
vn 0.8923 0.4128 -0.1825
vn 0.8722 0.4055 -0.2737
vn 0.9377 0.2094 0.2771
vn 0.9594 0.2131 0.1848
vn 0.9762 0.2168 -0.0000
vn 0.9594 0.2131 -0.1848
vn 0.9377 0.2094 -0.2771
vn 0.9551 0.1054 0.2768
vn 0.9769 0.1078 0.1846
vn 0.9940 0.1097 -0.0000
vn 0.9769 0.1078 -0.1846
vn 0.9551 0.1054 -0.2768
vn -0.9551 0.1054 0.2768
vn -0.9769 0.1078 0.1846
vn -0.9940 0.1097 -0.0000
vn -0.9769 0.1078 -0.1846
vn -0.9551 0.1054 -0.2768
vn -0.9377 0.2094 0.2771
vn -0.9594 0.2131 0.1848
vn -0.9762 0.2168 -0.0000
vn -0.9594 0.2131 -0.1848
vn -0.9377 0.2094 -0.2771
vn -0.8722 0.4055 0.2737
vn -0.8923 0.4128 0.1825
vn -0.9076 0.4198 -0.0000
vn -0.8923 0.4128 -0.1825
vn -0.8722 0.4055 -0.2737
vn -0.7705 0.5780 0.2687
vn -0.7884 0.5884 0.1792
vn -0.8015 0.5981 -0.0000
vn -0.7884 0.5884 -0.1792
vn -0.7705 0.5780 -0.2687
vn -0.6417 0.7204 0.2632
vn -0.6566 0.7335 0.1755
vn -0.6670 0.7450 -0.0000
vn -0.6566 0.7335 -0.1755
vn -0.6417 0.7204 -0.2632
vn -0.4941 0.8302 0.2581
vn -0.5056 0.8454 0.1721
vn -0.5133 0.8582 -0.0000
vn -0.5056 0.8454 -0.1721
vn -0.4941 0.8302 -0.2581
vn -0.3348 0.9074 0.2539
vn -0.3426 0.9241 0.1693
vn -0.3476 0.9376 -0.0000
vn -0.3426 0.9241 -0.1693
vn -0.3348 0.9074 -0.2539
vn -0.1689 0.9531 0.2513
vn -0.1728 0.9706 0.1675
vn -0.1753 0.9845 -0.0000
vn -0.1728 0.9706 -0.1675
vn -0.1689 0.9531 -0.2513
vn -0.0000 0.9682 0.2504
vn -0.0000 0.9682 -0.2504
vt 0.750000 0.562500
vt 0.750000 0.625000
vt 0.718750 0.625000
vt 0.718750 0.562500
vt 0.750000 0.500000
vt 0.718750 0.500000
vt 0.750000 0.437500
vt 0.718750 0.437500
vt 0.750000 0.375000
vt 0.718750 0.375000
vt 0.687500 0.625000
vt 0.687500 0.562500
vt 0.687500 0.500000
vt 0.687500 0.437500
vt 0.687500 0.375000
vt 0.656250 0.500000
vt 0.656250 0.437500
vt 0.656250 0.375000
vt 0.656250 0.625000
vt 0.656250 0.562500
vt 0.625000 0.625000
vt 0.625000 0.562500
vt 0.625000 0.500000
vt 0.625000 0.437500
vt 0.625000 0.375000
vt 0.593750 0.437500
vt 0.593750 0.375000
vt 0.593750 0.625000
vt 0.593750 0.562500
vt 0.593750 0.500000
vt 0.562500 0.625000
vt 0.562500 0.562500
vt 0.562500 0.500000
vt 0.562500 0.437500
vt 0.562500 0.375000
vt 0.531250 0.437500
vt 0.531250 0.375000
vt 0.531250 0.625000
vt 0.531250 0.562500
vt 0.531250 0.500000
vt 0.500000 0.625000
vt 0.500000 0.562500
vt 0.500000 0.500000
vt 0.500000 0.437500
vt 0.500000 0.375000
vt 1.000000 0.500000
vt 1.000000 0.562500
vt 0.968750 0.562500
vt 0.968750 0.500000
vt 1.000000 0.437500
vt 0.968750 0.437500
vt 1.000000 0.375000
vt 0.968750 0.375000
vt 1.000000 0.625000
vt 0.968750 0.625000
vt 0.937500 0.625000
vt 0.937500 0.562500
vt 0.937500 0.500000
vt 0.937500 0.437500
vt 0.937500 0.375000
vt 0.906250 0.500000
vt 0.906250 0.437500
vt 0.906250 0.375000
vt 0.906250 0.625000
vt 0.906250 0.562500
vt 0.875000 0.625000
vt 0.875000 0.562500
vt 0.875000 0.500000
vt 0.875000 0.437500
vt 0.875000 0.375000
vt 0.843750 0.500000
vt 0.843750 0.437500
vt 0.843750 0.375000
vt 0.843750 0.625000
vt 0.843750 0.562500
vt 0.812500 0.625000
vt 0.812500 0.562500
vt 0.812500 0.500000
vt 0.812500 0.437500
vt 0.812500 0.375000
vt 0.781250 0.437500
vt 0.781250 0.375000
vt 0.781250 0.625000
vt 0.781250 0.562500
vt 0.781250 0.500000
s 1
f 1/1/1 84/2/84 4/3/4 5/4/5
f 2/5/2 1/1/1 5/4/5 6/6/6
f 3/7/3 2/5/2 6/6/6 7/8/7
f 85/9/85 3/7/3 7/8/7 8/10/8
f 5/4/5 4/3/4 9/11/9 10/12/10
f 6/6/6 5/4/5 10/12/10 11/13/11
f 7/8/7 6/6/6 11/13/11 12/14/12
f 8/10/8 7/8/7 12/14/12 13/15/13
f 12/14/12 11/13/11 16/16/16 17/17/17
f 13/15/13 12/14/12 17/17/17 18/18/18
f 10/12/10 9/11/9 14/19/14 15/20/15
f 11/13/11 10/12/10 15/20/15 16/16/16
f 15/20/15 14/19/14 19/21/19 20/22/20
f 16/16/16 15/20/15 20/22/20 21/23/21
f 17/17/17 16/16/16 21/23/21 22/24/22
f 18/18/18 17/17/17 22/24/22 23/25/23
f 23/25/23 22/24/22 27/26/27 28/27/28
f 20/22/20 19/21/19 24/28/24 25/29/25
f 21/23/21 20/22/20 25/29/25 26/30/26
f 22/24/22 21/23/21 26/30/26 27/26/27
f 25/29/25 24/28/24 29/31/29 30/32/30
f 26/30/26 25/29/25 30/32/30 31/33/31
f 27/26/27 26/30/26 31/33/31 32/34/32
f 28/27/28 27/26/27 32/34/32 33/35/33
f 33/35/33 32/34/32 37/36/37 38/37/38
f 30/32/30 29/31/29 34/38/34 35/39/35
f 31/33/31 30/32/30 35/39/35 36/40/36
f 32/34/32 31/33/31 36/40/36 37/36/37
f 35/39/35 34/38/34 39/41/39 40/42/40
f 36/40/36 35/39/35 40/42/40 41/43/41
f 37/36/37 36/40/36 41/43/41 42/44/42
f 38/37/38 37/36/37 42/44/42 43/45/43
f 46/46/46 45/47/45 50/48/50 51/49/51
f 47/50/47 46/46/46 51/49/51 52/51/52
f 48/52/48 47/50/47 52/51/52 53/53/53
f 45/47/45 44/54/44 49/55/49 50/48/50
f 50/48/50 49/55/49 54/56/54 55/57/55
f 51/49/51 50/48/50 55/57/55 56/58/56
f 52/51/52 51/49/51 56/58/56 57/59/57
f 53/53/53 52/51/52 57/59/57 58/60/58
f 57/59/57 56/58/56 61/61/61 62/62/62
f 58/60/58 57/59/57 62/62/62 63/63/63
f 55/57/55 54/56/54 59/64/59 60/65/60
f 56/58/56 55/57/55 60/65/60 61/61/61
f 60/65/60 59/64/59 64/66/64 65/67/65
f 61/61/61 60/65/60 65/67/65 66/68/66
f 62/62/62 61/61/61 66/68/66 67/69/67
f 63/63/63 62/62/62 67/69/67 68/70/68
f 67/69/67 66/68/66 71/71/71 72/72/72
f 68/70/68 67/69/67 72/72/72 73/73/73
f 65/67/65 64/66/64 69/74/69 70/75/70
f 66/68/66 65/67/65 70/75/70 71/71/71
f 70/75/70 69/74/69 74/76/74 75/77/75
f 71/71/71 70/75/70 75/77/75 76/78/76
f 72/72/72 71/71/71 76/78/76 77/79/77
f 73/73/73 72/72/72 77/79/77 78/80/78
f 78/80/78 77/79/77 82/81/82 83/82/83
f 75/77/75 74/76/74 79/83/79 80/84/80
f 76/78/76 75/77/75 80/84/80 81/85/81
f 77/79/77 76/78/76 81/85/81 82/81/82
f 80/84/80 79/83/79 84/2/84 1/1/1
f 81/85/81 80/84/80 1/1/1 2/5/2
f 82/81/82 81/85/81 2/5/2 3/7/3
f 83/82/83 82/81/82 3/7/3 85/9/85
