# Blender 4.4.3
# www.blender.org
o Bolt.003
v -0.025128 0.000000 -0.004505
v 0.025128 0.000000 -0.004505
v -0.025128 -0.003185 -0.003185
v 0.025128 -0.003185 -0.003185
v -0.025128 -0.004505 0.000000
v 0.025128 -0.004505 0.000000
v -0.025128 -0.003185 0.003185
v 0.025128 -0.003185 0.003185
v -0.025128 0.000000 0.004505
v 0.025128 0.000000 0.004505
v -0.025128 0.003185 0.003185
v 0.025128 0.003185 0.003185
v -0.025128 0.004505 0.000000
v 0.025128 0.004505 0.000000
v -0.025128 0.003185 -0.003185
v 0.025128 0.003185 -0.003185
v -0.022464 0.000000 -0.004505
v 0.022464 0.000000 -0.004505
v 0.022464 -0.003185 -0.003185
v -0.022464 -0.003185 -0.003185
v 0.022464 -0.004505 0.000000
v -0.022464 -0.004505 0.000000
v 0.022464 -0.003185 0.003185
v -0.022464 -0.003185 0.003185
v 0.022464 0.000000 0.004505
v -0.022464 0.000000 0.004505
v 0.022464 0.003185 0.003185
v -0.022464 0.003185 0.003185
v 0.022464 0.004505 0.000000
v -0.022464 0.004505 0.000000
v 0.022464 0.003185 -0.003185
v -0.022464 0.003185 -0.003185
v -0.023471 0.000000 -0.007763
v -0.023471 -0.005489 -0.005489
v 0.023471 -0.005489 -0.005489
v 0.023471 0.000000 -0.007763
v 0.020983 0.000000 -0.007763
v -0.020983 -0.005489 -0.005489
v -0.023471 -0.007763 0.000000
v 0.023471 -0.007763 0.000000
v -0.020983 -0.007763 0.000000
v -0.023471 -0.005489 0.005489
v 0.023471 -0.005489 0.005489
v -0.020983 -0.005489 0.005489
v -0.023471 0.000000 0.007763
v 0.023471 0.000000 0.007763
v -0.020983 0.000000 0.007763
v -0.023471 0.005489 0.005489
v 0.023471 0.005489 0.005489
v -0.020983 0.005489 0.005489
v -0.023471 0.007763 0.000000
v 0.023471 0.007763 0.000000
v -0.020983 0.007763 0.000000
v -0.023471 0.005489 -0.005489
v 0.023471 0.005489 -0.005489
v -0.020983 0.005489 -0.005489
v -0.020983 0.000000 -0.007763
v 0.020983 -0.005489 -0.005489
v 0.020983 -0.007763 0.000000
v 0.020983 -0.005489 0.005489
v 0.020983 0.000000 0.007763
v 0.020983 0.005489 0.005489
v 0.020983 0.007763 0.000000
v 0.020983 0.005489 -0.005489
vn -0.8973 -0.4079 0.1689
vn -0.8761 0.4455 0.1845
vn 0.8973 -0.4079 0.1689
vn -0.8973 0.1689 0.4079
vn 0.8761 -0.1845 -0.4455
vn -0.8973 -0.1689 0.4079
vn 1.0000 -0.0000 -0.0000
vn 0.8761 0.1845 0.4455
vn 0.8973 0.1689 0.4079
vn -1.0000 -0.0000 -0.0000
vn -0.8761 -0.1845 -0.4455
vn -0.0000 0.3827 -0.9239
vn 0.8973 -0.1689 0.4079
vn -0.0000 0.9239 -0.3827
vn -0.8761 0.1845 0.4455
vn -0.0000 0.9239 0.3827
vn -0.8973 0.4079 0.1689
vn -0.0000 0.3827 0.9239
vn 0.8973 0.4079 0.1689
vn -0.0000 -0.3827 0.9239
vn 0.8761 -0.1845 0.4455
vn -0.0000 -0.9239 0.3827
vn -0.8973 0.4079 -0.1689
vn -0.0000 -0.9239 -0.3827
vn -0.8761 -0.1845 0.4455
vn -0.0000 -0.3827 -0.9239
vn 0.8761 0.4455 0.1845
vn 0.8973 -0.4079 -0.1689
vn -0.8761 -0.4455 -0.1845
vn -0.8973 -0.4079 -0.1689
vn 0.8761 -0.4455 -0.1845
vn -0.8761 0.4455 -0.1845
vn 0.8973 -0.1689 -0.4079
vn 0.8761 0.4455 -0.1845
vn -0.8973 -0.1689 -0.4079
vn -0.8761 -0.4455 0.1845
vn 0.8973 0.1689 -0.4079
vn 0.8761 -0.4455 0.1845
vn -0.8761 0.1845 -0.4455
vn -0.8973 0.1689 -0.4079
vn 0.8761 0.1845 -0.4455
vn 0.8973 0.4079 -0.1689
vt 0.125000 0.833333
vt 0.250000 0.833333
vt 0.510000 0.250000
vt 0.580294 0.080294
vt 0.250000 0.666667
vt 0.125000 0.666667
vt 0.875000 0.833333
vt 1.000000 0.833333
vt 0.250000 0.490000
vt 0.419706 0.419706
vt 0.000000 0.833333
vt 0.080294 0.419706
vt 0.010000 0.250000
vt 0.080294 0.080294
vt 0.250000 0.010000
vt 0.419706 0.080294
vt 0.490000 0.250000
vt 1.000000 0.666667
vt 0.875000 0.666667
vt 0.750000 0.490000
vt 0.919706 0.419706
vt 0.990000 0.250000
vt 0.919706 0.080294
vt 0.750000 0.010000
vt 0.580294 0.419706
vt 0.000000 0.666667
vt 0.375000 0.666667
vt 0.375000 0.833333
vt 0.750000 0.833333
vt 0.500000 0.666667
vt 0.500000 0.833333
vt 0.750000 0.666667
vt 0.625000 0.666667
vt 0.625000 0.833333
vt 1.000000 1.000000
vt 0.875000 1.000000
vt 0.750000 1.000000
vt 0.625000 1.000000
vt 0.500000 1.000000
vt 0.375000 1.000000
vt 0.250000 1.000000
vt 0.125000 1.000000
vt 0.000000 1.000000
vt 0.125000 0.500000
vt 0.000000 0.500000
vt 0.250000 0.500000
vt 0.375000 0.500000
vt 0.500000 0.500000
vt 0.625000 0.500000
vt 0.750000 0.500000
vt 0.875000 0.500000
vt 1.000000 0.500000
s 0
f 31/1/1 29/2/1 63/2/1 64/1/1
f 13/3/2 11/4/2 48/4/2 51/3/2
f 30/5/3 32/6/3 56/6/3 53/5/3
f 19/7/4 18/8/4 37/8/4 58/7/4
f 2/9/5 4/10/5 35/10/5 36/9/5
f 18/11/6 31/1/6 64/1/6 37/11/6
f 4/10/7 2/9/7 16/12/7 14/13/7 12/14/7 10/15/7 8/16/7 6/17/7
f 10/15/8 12/14/8 49/14/8 46/15/8
f 17/18/9 20/19/9 38/19/9 57/18/9
f 1/20/10 3/21/10 5/22/10 7/23/10 9/24/10 11/4/10 13/3/10 15/25/10
f 3/21/11 1/20/11 33/20/11 34/21/11
f 32/6/12 31/1/12 18/11/12 17/26/12
f 32/6/13 17/26/13 57/26/13 56/6/13
f 30/5/14 29/2/14 31/1/14 32/6/14
f 11/4/15 9/24/15 45/24/15 48/4/15
f 28/27/16 27/28/16 29/2/16 30/5/16
f 21/29/17 19/7/17 58/7/17 59/29/17
f 26/30/18 25/31/18 27/28/18 28/27/18
f 20/19/19 22/32/19 41/32/19 38/19/19
f 24/33/20 23/34/20 25/31/20 26/30/20
f 8/16/21 10/15/21 46/15/21 43/16/21
f 22/32/22 21/29/22 23/34/22 24/33/22
f 23/34/23 21/29/23 59/29/23 60/34/23
f 20/19/24 19/7/24 21/29/24 22/32/24
f 9/24/25 7/23/25 42/23/25 45/24/25
f 17/18/26 18/8/26 19/7/26 20/19/26
f 37/8/26 36/35/26 35/36/26 58/7/26
f 58/7/24 35/36/24 40/37/24 59/29/24
f 59/29/22 40/37/22 43/38/22 60/34/22
f 60/34/20 43/38/20 46/39/20 61/31/20
f 61/31/18 46/39/18 49/40/18 62/28/18
f 62/28/16 49/40/16 52/41/16 63/2/16
f 63/2/14 52/41/14 55/42/14 64/1/14
f 64/1/12 55/42/12 36/43/12 37/11/12
f 54/44/12 56/6/12 57/26/12 33/45/12
f 51/46/14 53/5/14 56/6/14 54/44/14
f 48/47/16 50/27/16 53/5/16 51/46/16
f 45/48/18 47/30/18 50/27/18 48/47/18
f 42/49/20 44/33/20 47/30/20 45/48/20
f 39/50/22 41/32/22 44/33/22 42/49/22
f 34/51/24 38/19/24 41/32/24 39/50/24
f 33/52/26 57/18/26 38/19/26 34/51/26
f 12/14/27 14/13/27 52/13/27 49/14/27
f 28/27/28 30/5/28 53/5/28 50/27/28
f 5/22/29 3/21/29 34/21/29 39/22/29
f 29/2/30 27/28/30 62/28/30 63/2/30
f 4/10/31 6/17/31 40/17/31 35/10/31
f 15/25/32 13/3/32 51/3/32 54/25/32
f 26/30/33 28/27/33 50/27/33 47/30/33
f 14/13/34 16/12/34 55/12/34 52/13/34
f 27/28/35 25/31/35 61/31/35 62/28/35
f 7/23/36 5/22/36 39/22/36 42/23/36
f 24/33/37 26/30/37 47/30/37 44/33/37
f 6/17/38 8/16/38 43/16/38 40/17/38
f 1/20/39 15/25/39 54/25/39 33/20/39
f 25/31/40 23/34/40 60/34/40 61/31/40
f 16/12/41 2/9/41 36/9/41 55/12/41
f 22/32/42 24/33/42 44/33/42 41/32/42
