# Blender 4.4.3
# www.blender.org
o Hip_Joint
v 0.050639 0.000000 0.011046
v 0.049223 0.011232 0.015882
v 0.025840 0.025840 0.134679
v 0.050639 0.000000 0.015882
v 0.030000 -0.000000 0.134679
v 0.049223 -0.011232 0.015882
v 0.025840 -0.025840 0.134679
v 0.049223 0.011232 0.011046
v -0.049223 -0.011232 0.015882
v -0.050639 0.000000 0.015882
v -0.030000 -0.000000 0.134679
v -0.049223 0.011232 0.015882
v -0.025840 0.025840 0.134679
v 0.021213 0.021213 0.055746
v 0.030000 0.000000 0.055746
v 0.021213 -0.021213 0.055746
v -0.021213 -0.021213 0.055746
v -0.030000 0.000000 0.055746
v -0.021213 0.021213 0.055746
v 0.063640 0.063640 0.020716
v 0.065470 0.000000 0.020716
v 0.063640 -0.063640 0.020716
v -0.000000 -0.065470 0.020716
v -0.063640 -0.063640 0.020716
v -0.065470 0.000000 0.020716
v -0.063640 0.063640 0.020716
v -0.000000 0.065470 0.020716
v 0.016244 0.026636 0.134679
v -0.016244 0.026636 0.134679
v -0.016244 -0.026636 0.134679
v 0.016244 -0.026636 0.134679
v -0.005722 0.026636 0.058146
v 0.005722 0.026636 0.058146
v -0.000000 0.037591 0.044795
v 0.005722 -0.026636 0.058146
v -0.005722 -0.026636 0.058146
v -0.000000 -0.037591 0.044795
v 0.021213 0.021213 0.128323
v 0.030000 -0.000000 0.128323
v 0.021213 -0.021213 0.128323
v -0.021213 -0.021213 0.128323
v -0.030000 -0.000000 0.128323
v -0.021213 0.021213 0.128323
v -0.005722 0.026636 0.125924
v 0.005722 0.026636 0.125924
v -0.005722 -0.026636 0.125924
v 0.005722 -0.026636 0.125924
v -0.008121 0.026636 0.055746
v 0.008121 0.026636 0.055746
v 0.008121 -0.026636 0.055746
v -0.008121 -0.026636 0.055746
v 0.008121 0.026636 0.128323
v -0.008121 -0.026636 0.128323
v -0.008121 0.026636 0.128323
v 0.008121 -0.026636 0.128323
v -0.025840 -0.025840 0.134679
v 0.030000 -0.000000 0.177652
v 0.025840 0.025840 0.177652
v 0.025840 -0.025840 0.177652
v -0.025840 0.025840 0.177652
v -0.030000 -0.000000 0.177652
v 0.016244 0.026636 0.177652
v -0.016244 0.026636 0.177652
v 0.016244 -0.026636 0.177652
v -0.016244 -0.026636 0.177652
v -0.025840 -0.025840 0.177652
v 0.025170 -0.000000 0.184281
v 0.021680 0.021680 0.184281
v 0.021680 -0.021680 0.184281
v -0.021680 0.021680 0.184281
v -0.025170 -0.000000 0.184281
v 0.013629 0.022348 0.184281
v -0.013629 0.022348 0.184281
v 0.013629 -0.022348 0.184281
v -0.013629 -0.022348 0.184281
v -0.021680 -0.021680 0.184281
v -0.000000 0.065470 0.015882
v 0.063640 0.063640 0.015882
v 0.065470 0.000000 0.015882
v 0.063640 -0.063640 0.015882
v -0.000000 -0.065470 0.015882
v -0.063640 -0.063640 0.015882
v -0.065470 0.000000 0.015882
v -0.063640 0.063640 0.015882
v 0.049223 -0.011232 0.011046
v -0.049223 -0.011232 0.011046
v -0.050639 0.000000 0.011046
v -0.049223 0.011232 0.011046
vn -0.2251 0.8211 -0.5246
vn 0.8801 0.2422 -0.4084
vn 0.8801 -0.2422 -0.4084
vn -0.2251 -0.8211 -0.5246
vn 0.3223 0.7780 0.5393
vn -0.8801 -0.2422 -0.4084
vn 0.2251 0.8211 -0.5246
vn -0.8801 0.2422 -0.4084
vn 0.2251 -0.8211 -0.5246
vn 0.9921 -0.1251 -0.0000
vn -0.3223 -0.7780 0.5393
vn -0.6420 0.0803 0.7625
vn -0.6420 -0.0803 0.7625
vn 0.3223 -0.7780 0.5393
vn 0.6420 -0.0803 0.7625
vn 0.6420 0.0803 0.7625
vn -0.3223 0.7780 0.5393
vn 0.0288 0.9996 -0.0000
vn 0.9996 0.0288 -0.0000
vn 0.9996 -0.0288 -0.0000
vn 0.0288 -0.9996 -0.0000
vn -0.0288 -0.9996 -0.0000
vn -0.9996 -0.0288 -0.0000
vn -0.9996 0.0288 -0.0000
vn -0.0288 0.9996 -0.0000
vn -0.0000 0.7070 0.7072
vn -0.0000 -0.7070 0.7072
vn -0.0000 1.0000 -0.0000
vn -0.0000 -0.0000 -1.0000
vn -0.0000 -1.0000 -0.0000
vn -1.0000 -0.0000 -0.0000
vn 0.3827 -0.9239 -0.0000
vn -0.9239 0.3827 -0.0000
vn 0.3827 0.9239 -0.0000
vn -0.9239 -0.3827 -0.0000
vn -0.3827 -0.9239 -0.0000
vn 0.9239 -0.3827 -0.0000
vn 0.9239 0.3827 -0.0000
vn -0.3827 0.9239 -0.0000
vn 1.0000 -0.0000 -0.0000
vn -0.0000 -0.0000 1.0000
vn 0.0827 0.9966 -0.0000
vn -0.0827 -0.9966 -0.0000
vn -0.8015 -0.1290 0.5840
vn 0.8015 -0.1290 0.5840
vn -0.9873 0.1590 -0.0000
vn -0.0827 0.9966 -0.0000
vn 0.0827 -0.9966 -0.0000
vn 0.9873 -0.1590 -0.0000
vn 0.9873 0.1590 -0.0000
vn -0.9873 -0.1590 -0.0000
vn 0.0685 -0.8251 0.5608
vn -0.8015 0.1290 0.5840
vn -0.0685 -0.8251 0.5608
vn 0.9302 -0.0000 -0.3670
vn 0.0685 0.8251 0.5608
vn 0.8015 0.1290 0.5840
vn -0.9302 -0.0000 -0.3670
vn -0.0685 0.8251 0.5608
vn -0.9921 0.1251 -0.0000
vn -0.9921 -0.1251 -0.0000
vn 0.9921 0.1251 -0.0000
vn -0.0545 0.6028 0.7960
vn 0.0545 0.6028 0.7960
vn -0.0545 -0.6028 0.7960
vn 0.0545 -0.6028 0.7960
vn 0.0188 0.6535 0.7567
vn -0.0188 0.6535 0.7567
vn -0.0188 -0.6535 0.7567
vn 0.0188 -0.6535 0.7567
vt 0.125000 0.984596
vt 0.125000 1.000000
vt 0.047852 1.000000
vt 0.047852 0.984596
vt 0.875000 0.984596
vt 0.875000 1.000000
vt 0.750000 1.000000
vt 0.750000 0.984596
vt 0.625000 1.000000
vt 0.625000 0.984596
vt 0.452148 0.984596
vt 0.452148 1.000000
vt 0.375000 1.000000
vt 0.375000 0.984596
vt 1.000000 0.734186
vt 0.952148 0.750000
vt 0.875000 0.750000
vt 0.250000 1.000000
vt 0.250000 0.984596
vt 0.952148 0.984596
vt 0.952148 1.000000
vt 0.547852 1.000000
vt 0.547852 0.984596
vt 0.924078 0.250000
vt 0.889222 0.110778
vt 0.500000 0.734186
vt 0.452148 0.750000
vt 0.375000 0.750000
vt 0.250000 0.625000
vt 0.250000 0.750000
vt 0.125000 0.750000
vt 0.125000 0.625000
vt 0.375000 0.625000
vt 0.625000 0.750000
vt 0.547852 0.750000
vt 0.500000 0.734186
vt 0.750000 0.625000
vt 0.750000 0.750000
vt 0.625000 0.625000
vt 0.875000 0.625000
vt 0.047852 0.750000
vt 0.000000 0.734186
vt 1.000000 0.500000
vt 1.000000 0.625000
vt 0.875000 0.500000
vt 0.750000 0.500000
vt 0.625000 0.500000
vt 0.500000 0.625000
vt 0.500000 0.500000
vt 0.375000 0.500000
vt 0.250000 0.500000
vt 0.125000 0.500000
vt 0.000000 0.625000
vt 0.000000 0.500000
vt 1.000000 0.750000
vt 0.466163 0.750000
vt 0.000000 1.000000
vt 0.000000 0.984596
vt 0.533715 0.978782
vt 0.466285 0.978782
vt 0.040783 0.978782
vt 0.007069 0.978782
vt 0.533715 0.755814
vt 0.007069 0.755814
vt 0.047852 0.750000
vt 0.040783 0.755814
vt 0.000000 0.750000
vt 0.466285 0.755814
vt 0.314966 0.463090
vt 0.185034 0.463090
vt 0.185034 0.036910
vt 0.314966 0.036910
vt 0.419706 0.419706
vt 0.419706 0.080294
vt 0.490000 0.250000
vt 0.080294 0.419706
vt 0.010000 0.250000
vt 0.080294 0.080294
vt 0.610778 0.389223
vt 0.889222 0.389223
vt 0.889222 0.389223
vt 0.919706 0.419706
vt 0.990000 0.250000
vt 0.919706 0.080294
vt 0.610778 0.110778
vt 0.750000 0.010000
vt 0.580294 0.080294
vt 0.575922 0.250000
vt 0.575922 0.250000
vt 0.510000 0.250000
vt 0.580294 0.419706
vt 0.750000 0.490000
s 0
f 43/1/1 13/2/1 29/3/1 54/4/1
f 38/5/2 3/6/2 5/7/2 39/8/2
f 39/8/3 5/7/3 7/9/3 40/10/3
f 53/11/4 30/12/4 56/13/4 41/14/4
f 34/15/5 49/16/5 14/17/5
f 41/14/6 56/13/6 11/18/6 42/19/6
f 52/20/7 28/21/7 3/6/7 38/5/7
f 42/19/8 11/18/8 13/2/8 43/1/8
f 40/10/9 7/9/9 31/22/9 55/23/9
f 4/24/10 6/25/10 85/25/10 1/24/10
f 37/26/11 51/27/11 17/28/11
f 25/29/12 18/30/12 19/31/12 26/32/12
f 24/33/13 17/28/13 18/30/13 25/29/13
f 16/34/14 50/35/14 37/36/14
f 21/37/15 15/38/15 16/34/15 22/39/15
f 20/40/16 14/17/16 15/38/16 21/37/16
f 19/31/17 48/41/17 34/42/17
f 77/43/18 27/44/18 20/40/18 78/45/18
f 78/45/19 20/40/19 21/37/19 79/46/19
f 79/46/20 21/37/20 22/39/20 80/47/20
f 80/47/21 22/39/21 23/48/21 81/49/21
f 81/49/22 23/48/22 24/33/22 82/50/22
f 82/50/23 24/33/23 25/29/23 83/51/23
f 83/51/24 25/29/24 26/32/24 84/52/24
f 84/52/25 26/32/25 27/53/25 77/54/25
f 48/55/26 49/16/26 34/55/26
f 50/35/27 51/56/27 37/26/27
f 54/4/28 29/3/28 28/57/28 52/58/28
f 47/59/29 46/60/29 44/61/29 45/62/29
f 30/12/30 53/11/30 55/23/30 31/22/30
f 35/63/31 47/59/31 45/62/31 33/64/31
f 16/34/32 40/10/32 55/23/32 50/35/32
f 18/30/33 42/19/33 43/1/33 19/31/33
f 49/16/34 52/20/34 38/5/34 14/17/34
f 17/28/35 41/14/35 42/19/35 18/30/35
f 51/27/36 53/11/36 41/14/36 17/28/36
f 15/38/37 39/8/37 40/10/37 16/34/37
f 14/17/38 38/5/38 39/8/38 15/38/38
f 19/31/39 43/1/39 54/4/39 48/65/39
f 32/66/28 33/64/28 49/67/28 48/65/28
f 35/63/30 36/68/30 51/27/30 50/35/30
f 33/64/28 45/62/28 52/58/28 49/67/28
f 36/68/30 46/60/30 53/11/30 51/27/30
f 44/61/28 32/66/28 48/65/28 54/4/28
f 47/59/30 35/63/30 50/35/30 55/23/30
f 46/60/30 47/59/30 55/23/30 53/11/30
f 45/62/28 44/61/28 54/4/28 52/58/28
f 46/60/40 36/68/40 32/66/40 44/61/40
f 36/68/41 35/63/41 33/64/41 32/66/41
f 28/69/41 29/70/41 30/71/41 31/72/41
f 3/6/42 28/21/42 62/21/42 58/6/42
f 56/13/43 30/12/43 65/12/43 66/13/43
f 61/18/44 66/13/44 76/13/44 71/18/44
f 59/9/45 57/7/45 67/7/45 69/9/45
f 30/71/40 29/70/40 63/70/40 65/71/40
f 13/2/46 11/18/46 61/18/46 60/2/46
f 29/3/47 13/2/47 60/2/47 63/3/47
f 28/69/31 31/72/31 64/72/31 62/69/31
f 31/22/48 7/9/48 59/9/48 64/22/48
f 7/9/49 5/7/49 57/7/49 59/9/49
f 5/7/50 3/6/50 58/6/50 57/7/50
f 11/18/51 56/13/51 66/13/51 61/18/51
f 68/73/41 72/69/41 74/72/41 69/74/41 67/75/41
f 75/71/41 73/70/41 70/76/41 71/77/41 76/78/41
f 64/22/52 59/9/52 69/9/52 74/22/52
f 60/2/53 61/18/53 71/18/53 70/2/53
f 66/13/54 65/12/54 75/12/54 76/13/54
f 65/71/55 63/70/55 73/70/55 75/71/55
f 58/6/56 62/21/56 72/21/56 68/6/56
f 57/7/57 58/6/57 68/6/57 67/7/57
f 62/69/58 64/72/58 74/72/58 72/69/58
f 63/3/59 60/2/59 70/2/59 73/3/59
f 12/79/28 2/80/28 8/81/28 88/79/28
f 4/24/29 2/80/29 78/82/29 79/83/29
f 6/25/29 4/24/29 79/83/29 80/84/29
f 9/85/29 6/25/29 80/84/29 81/86/29 82/87/29
f 10/88/60 12/79/60 88/79/60 87/89/60
f 10/88/29 9/85/29 82/87/29 83/90/29
f 12/79/29 10/88/29 83/90/29 84/91/29
f 77/92/29 78/82/29 2/80/29 12/79/29 84/91/29
f 88/79/29 8/81/29 1/24/29 85/25/29 86/85/29 87/89/29
f 9/85/61 10/88/61 87/89/61 86/85/61
f 6/25/30 9/85/30 86/85/30 85/25/30
f 2/80/62 4/24/62 1/24/62 8/81/62
f 26/32/63 19/31/63 34/42/63
f 34/15/64 14/17/64 20/40/64
f 37/26/65 17/28/65 24/33/65
f 22/39/66 16/34/66 37/36/66
f 27/44/67 34/15/67 20/40/67
f 27/53/68 26/32/68 34/42/68
f 23/48/69 37/26/69 24/33/69
f 23/48/70 22/39/70 37/36/70
