# Blender 4.4.3
# www.blender.org
o Foot
v 0.040000 -0.026553 -0.015899
v 0.040000 -0.033401 -0.015899
v 0.040000 -0.026553 0.031070
v 0.029990 -0.033401 0.022096
v 0.000000 -0.010644 -0.015899
v 0.000000 -0.033401 -0.015899
v 0.000000 -0.010644 0.022576
v 0.000000 -0.033401 0.031070
v 0.008109 -0.033401 0.031070
v 0.008109 -0.005262 0.023228
v 0.008109 -0.033401 -0.015899
v 0.008109 -0.005262 -0.015899
v 0.019843 -0.033401 0.022096
v 0.026609 -0.014992 -0.015899
v 0.026609 -0.014992 0.031070
v 0.014317 -0.033401 -0.015899
v 0.014317 0.042875 0.031070
v 0.008109 0.042875 0.031070
v 0.008109 0.048756 -0.015899
v 0.014317 0.048756 -0.015899
v 0.040000 -0.026553 0.009726
v 0.000000 -0.010644 0.009726
v 0.000000 -0.033401 0.009726
v 0.029990 -0.033401 0.011909
v 0.008109 -0.033401 0.009726
v 0.008109 -0.005262 0.009726
v 0.026609 -0.014992 0.009726
v 0.019843 -0.033401 0.011909
v 0.008109 0.051878 0.009726
v 0.014317 0.051878 0.009726
v 0.008109 -0.033401 -0.033384
v 0.000000 -0.033401 -0.033384
v 0.026609 -0.014992 -0.033384
v 0.040000 -0.026553 -0.033384
v 0.000000 0.000342 -0.033384
v 0.042102 -0.033401 -0.036306
v 0.032366 -0.033401 -0.036306
v 0.008109 -0.000835 -0.033384
v 0.008109 0.010411 -0.033384
v 0.014317 0.010411 -0.033384
v 0.040000 -0.026553 0.042083
v 0.040000 -0.033401 0.042083
v 0.014317 -0.033401 0.042083
v 0.008109 -0.005262 0.032560
v 0.000000 -0.002598 0.042083
v 0.000000 -0.033401 0.042083
v 0.008109 -0.033401 0.042083
v 0.026609 -0.014992 0.042083
v 0.014317 0.013659 0.042083
v 0.008109 0.013659 0.042083
v 0.014021 -0.031028 0.082648
v 0.014317 -0.023924 0.073300
v 0.000000 0.010000 0.042083
v 0.008109 -0.033401 -0.047906
v 0.000000 -0.033401 -0.047906
v 0.023117 -0.014992 -0.047906
v 0.040000 -0.026553 -0.047906
v 0.000000 -0.010644 -0.047906
v 0.042102 -0.033401 -0.046215
v 0.032366 -0.033401 -0.046215
v 0.008109 -0.005262 -0.047906
v 0.015570 -0.014992 -0.071917
v 0.040000 -0.026553 -0.070271
v 0.040000 -0.033401 -0.070271
v 0.015570 -0.033401 -0.071917
v 0.014317 0.001322 0.031070
v 0.008109 0.008309 0.025439
v 0.014317 0.002980 -0.015899
v 0.008109 0.009967 -0.015899
v 0.008109 0.010847 0.009726
v 0.014317 0.003860 0.009726
v 0.014317 -0.005587 -0.033384
v 0.008109 0.005638 -0.033384
v 0.014317 -0.006914 0.042083
v 0.008109 0.000072 0.035245
v 0.000000 0.000954 0.042083
v 0.039667 -0.026553 -0.087513
v 0.081867 -0.026553 -0.100361
v 0.081867 -0.033401 -0.100361
v 0.039667 -0.033401 -0.087513
v 0.018023 -0.026169 0.089743
v 0.008109 -0.016952 0.073300
v 0.000000 -0.024753 0.082648
v 0.000000 -0.031028 0.082648
v 0.018023 -0.030461 0.089743
v 0.008109 -0.025958 0.098153
v 0.000000 -0.026070 0.098153
v 0.000000 -0.029873 0.098153
v 0.008109 -0.029873 0.098153
v 0.004055 -0.033401 0.042083
v 0.014021 -0.031618 0.072528
v 0.000000 -0.032215 0.062366
v 0.004055 -0.031028 0.082648
v 0.004055 -0.031618 0.072528
v 0.016170 -0.031931 0.065913
v 0.024916 -0.037972 0.017143
v 0.037234 -0.037972 -0.041119
v 0.009038 -0.035893 0.077729
v -0.040000 -0.026553 -0.015899
v -0.040000 -0.033401 -0.015899
v -0.040000 -0.026553 0.031070
v -0.029990 -0.033401 0.022096
v -0.008109 -0.033401 0.031070
v -0.008109 -0.005262 0.023228
v -0.008109 -0.033401 -0.015899
v -0.008109 -0.005262 -0.015899
v -0.019843 -0.033401 0.022096
v -0.026609 -0.014992 -0.015899
v -0.026609 -0.014992 0.031070
v -0.014317 -0.033401 -0.015899
v -0.014317 0.042875 0.031070
v -0.008109 0.042875 0.031070
v -0.008109 0.048756 -0.015899
v -0.014317 0.048756 -0.015899
v -0.040000 -0.026553 0.009726
v -0.029990 -0.033401 0.011909
v -0.008109 -0.033401 0.009726
v -0.008109 -0.005262 0.009726
v -0.026609 -0.014992 0.009726
v -0.019843 -0.033401 0.011909
v -0.008109 0.051878 0.009726
v -0.014317 0.051878 0.009726
v -0.008109 -0.033401 -0.033384
v -0.026609 -0.014992 -0.033384
v -0.040000 -0.026553 -0.033384
v -0.042102 -0.033401 -0.036306
v -0.032366 -0.033401 -0.036306
v -0.008109 -0.000835 -0.033384
v -0.008109 0.010411 -0.033384
v -0.014317 0.010411 -0.033384
v -0.040000 -0.026553 0.042083
v -0.040000 -0.033401 0.042083
v -0.014317 -0.033401 0.042083
v -0.008109 -0.005262 0.032560
v -0.008109 -0.033401 0.042083
v -0.026609 -0.014992 0.042083
v -0.014317 0.013659 0.042083
v -0.008109 0.013659 0.042083
v -0.014021 -0.031028 0.082648
v -0.014317 -0.023924 0.073300
v -0.008109 -0.033401 -0.047906
v -0.023117 -0.014992 -0.047906
v -0.040000 -0.026553 -0.047906
v -0.042102 -0.033401 -0.046215
v -0.032366 -0.033401 -0.046215
v -0.008109 -0.005262 -0.047906
v -0.015570 -0.014992 -0.071917
v -0.040000 -0.026553 -0.070271
v -0.040000 -0.033401 -0.070271
v -0.015570 -0.033401 -0.071917
v -0.014317 0.001322 0.031070
v -0.008109 0.008309 0.025439
v -0.014317 0.002980 -0.015899
v -0.008109 0.009967 -0.015899
v -0.008109 0.010847 0.009726
v -0.014317 0.003860 0.009726
v -0.014317 -0.005587 -0.033384
v -0.008109 0.005638 -0.033384
v -0.014317 -0.006914 0.042083
v -0.008109 0.000072 0.035245
v -0.039667 -0.026553 -0.087513
v -0.081867 -0.026553 -0.100361
v -0.081867 -0.033401 -0.100361
v -0.039667 -0.033401 -0.087513
v -0.018023 -0.026169 0.089743
v -0.008109 -0.016952 0.073300
v -0.018023 -0.030461 0.089743
v -0.008109 -0.025958 0.098153
v -0.008109 -0.029873 0.098153
v -0.004055 -0.033401 0.042083
v -0.014021 -0.031618 0.072528
v -0.004055 -0.031028 0.082648
v -0.004055 -0.031618 0.072528
v -0.016170 -0.031931 0.065913
v -0.024916 -0.037972 0.017143
v -0.037234 -0.037972 -0.041119
v -0.009038 -0.035893 0.077729
vn 0.7343 0.6594 -0.1615
vn 0.6535 0.7569 -0.0000
vn -0.5530 0.8332 -0.0000
vn 0.6693 -0.7430 -0.0000
vn -0.0000 -1.0000 -0.0000
vn 1.0000 -0.0000 -0.0000
vn -0.3066 0.6796 0.6664
vn -0.0000 0.3527 0.9357
vn -0.0000 0.4149 -0.9099
vn -0.0000 0.9214 0.3886
vn -1.0000 -0.0000 -0.0000
vn -0.0000 0.9927 -0.1209
vn -0.0000 -0.7725 -0.6351
vn 0.6054 0.7926 -0.0728
vn -0.0000 -0.0000 -1.0000
vn 0.7248 0.6052 0.3293
vn -0.0000 -0.9981 0.0616
vn -0.0000 -0.7252 0.6886
vn -0.1426 0.9150 -0.3774
vn -0.9594 -0.0000 -0.2820
vn 0.3545 0.6314 0.6897
vn 0.5905 0.6840 0.4282
vn 0.0365 -0.9976 0.0585
vn 0.4128 -0.2634 0.8719
vn 0.0194 0.7593 0.6505
vn -0.4927 0.7424 -0.4539
vn 0.5362 0.8271 -0.1685
vn -0.4678 0.7049 -0.5332
vn 0.5699 0.7994 -0.1903
vn 0.1375 0.9475 -0.2888
vn -0.4899 0.7382 0.4638
vn 0.1393 0.9600 0.2431
vn 0.4892 0.8685 -0.0796
vn -0.8390 -0.0000 -0.5441
vn 0.6700 -0.2147 0.7106
vn 0.4998 0.7606 0.4144
vn 0.8191 0.5726 0.0340
vn 0.8317 0.5552 -0.0095
vn 0.6807 0.6861 0.2566
vn -0.2913 -0.0000 -0.9566
vn 0.1704 0.9854 -0.0033
vn -0.5433 -0.0000 -0.8395
vn -0.0000 1.0000 -0.0000
vn -0.0000 -0.9972 0.0743
vn 0.7260 0.6465 0.2343
vn 0.1136 0.9875 0.1092
vn -0.0057 0.9971 -0.0765
vn -0.0000 -0.0000 1.0000
vn -0.3132 0.9201 0.2353
vn -0.6469 -0.0000 -0.7626
vn 0.0005 -0.9983 0.0583
vn 0.0003 -0.9983 0.0584
vn -0.0000 -0.9983 0.0585
vn 0.0089 -0.9982 0.0586
vn -0.6760 -0.7357 0.0428
vn 0.6845 -0.7290 -0.0000
vn 0.6760 -0.7357 0.0428
vn -0.6693 -0.7430 -0.0000
vn -0.0000 -0.7110 0.7032
vn -0.6845 -0.7290 -0.0000
vn -0.0000 -0.7444 -0.6677
vn -0.0000 -0.7349 0.6782
vn -0.0000 -0.7533 -0.6577
vn -0.7343 0.6594 -0.1615
vn -0.6535 0.7569 -0.0000
vn 0.5530 0.8332 -0.0000
vn 0.3066 0.6796 0.6664
vn -0.6054 0.7926 -0.0728
vn -0.7248 0.6052 0.3293
vn 0.1426 0.9150 -0.3774
vn 0.9594 -0.0000 -0.2820
vn -0.3545 0.6314 0.6897
vn -0.5905 0.6840 0.4282
vn -0.0365 -0.9976 0.0585
vn -0.4128 -0.2634 0.8719
vn -0.0194 0.7593 0.6505
vn 0.4927 0.7424 -0.4539
vn -0.5362 0.8271 -0.1685
vn 0.4678 0.7049 -0.5332
vn -0.5699 0.7994 -0.1903
vn -0.1375 0.9475 -0.2888
vn 0.4899 0.7382 0.4638
vn -0.1393 0.9600 0.2431
vn -0.4892 0.8685 -0.0796
vn 0.8390 -0.0000 -0.5441
vn -0.6700 -0.2147 0.7106
vn -0.4998 0.7606 0.4144
vn -0.8191 0.5726 0.0340
vn -0.8317 0.5552 -0.0095
vn -0.6807 0.6861 0.2566
vn 0.2913 -0.0000 -0.9566
vn -0.1704 0.9854 -0.0033
vn 0.5433 -0.0000 -0.8395
vn -0.7260 0.6465 0.2343
vn -0.1136 0.9875 0.1092
vn 0.0057 0.9971 -0.0765
vn 0.3132 0.9201 0.2353
vn 0.6469 -0.0000 -0.7626
vn -0.0005 -0.9983 0.0583
vn -0.0003 -0.9983 0.0584
vn -0.0089 -0.9982 0.0586
vt 0.187500 0.500000
vt 0.125000 0.750000
vt 0.187500 0.750000
vt 0.250000 0.625000
vt 0.375000 0.625000
vt 0.375000 0.750000
vt 0.250000 0.750000
vt 0.875000 0.625000
vt 0.875000 0.750000
vt 0.625000 0.625000
vt 0.750000 0.625000
vt 0.750000 0.750000
vt 0.625000 0.750000
vt 0.812500 0.750000
vt 0.000000 0.000000
vt 0.125000 0.625000
vt 0.187500 0.625000
vt 0.812500 0.625000
vt 0.250000 0.500000
vt 0.875000 0.500000
vt 0.812500 0.500000
vt 0.250000 0.750000
vt 0.750000 0.500000
vt 0.125000 0.500000
vt 0.625000 0.500000
vt 0.375000 0.500000
vt 0.687500 0.750000
vt 0.625000 0.687500
vt 0.625000 0.625000
vt 0.625000 0.687500
vt 0.500000 0.750000
vt 0.250000 0.750000
vt 0.625000 0.656250
vt 0.375000 0.687500
s 0
f 68/1/1 14/1/1 33/1/1 72/1/1
f 3/2/2 15/3/2 48/3/2 41/2/2
f 26/4/3 22/5/3 7/6/3 10/7/3
f 24/8/4 4/9/4 96/8/4
f 23/10/5 25/11/5 9/12/5 8/13/5
f 66/3/6 17/3/6 49/3/6 74/3/6
f 13/14/5 4/9/5 42/9/5 43/14/5
f 82/7/7 50/15/7 53/15/7
f 17/3/8 18/7/8 50/7/8 49/3/8
f 21/16/2 27/17/2 15/3/2 3/2/2
f 25/11/5 28/18/5 13/14/5 9/12/5
f 19/19/9 20/1/9 40/1/9 39/19/9
f 30/17/10 29/4/10 18/7/10 17/3/10
f 71/17/6 68/1/6 20/1/6 30/17/6
f 2/20/5 16/21/5 37/21/5 36/20/5
f 70/4/11 67/22/11 18/7/11 29/4/11
f 69/19/11 70/4/11 29/4/11 19/19/11
f 66/3/6 71/17/6 30/17/6 17/3/6
f 20/1/12 19/19/12 29/4/12 30/17/12
f 11/23/5 16/21/5 28/18/5 25/11/5
f 1/24/2 14/1/2 27/17/2 21/16/2
f 6/25/5 11/23/5 25/11/5 23/10/5
f 16/21/5 2/20/5 24/8/5 28/18/5
f 12/19/3 5/26/3 22/5/3 26/4/3
f 94/27/13 91/12/13 98/27/13
f 33/1/14 34/24/14 57/24/14 56/1/14
f 72/28/15 73/29/15 39/10/15 40/30/15
f 16/21/5 11/23/5 31/23/5 37/21/5
f 11/23/5 6/25/5 32/25/5 31/23/5
f 69/19/11 19/19/11 39/19/11 73/19/11
f 14/1/2 1/24/2 34/24/2 33/1/2
f 42/9/16 41/25/16 52/3/16 81/31/16 85/14/16
f 43/14/17 42/9/17 85/14/17 95/14/17
f 74/3/6 49/3/6 52/3/6
f 36/20/18 37/21/18 97/20/18
f 8/13/5 9/12/5 47/12/5 90/27/5 46/13/5
f 67/22/11 10/7/11 44/7/11 75/32/11
f 7/6/19 45/6/19 44/7/19
f 9/12/5 13/14/5 43/14/5 47/12/5
f 42/26/20 41/25/20 78/13/20 79/6/20
f 49/3/21 50/7/21 82/7/21 52/3/21
f 48/3/22 52/3/22 41/25/22
f 91/12/23 95/14/23 85/14/23 51/12/23
f 75/15/24 50/15/24 53/15/24 76/15/24
f 83/15/25 82/7/25 53/15/25
f 2/20/5 36/20/5 59/20/5 64/20/5 79/20/5 42/26/5 4/9/5 24/8/5
f 58/15/26 61/10/26 62/1/26
f 61/10/27 56/30/27 62/1/27
f 37/21/5 31/23/5 54/23/5 60/21/5
f 61/10/28 58/25/28 35/15/28
f 31/23/5 32/25/5 55/25/5 54/23/5
f 38/10/29 72/33/29 33/30/29 56/30/29 61/10/29
f 38/10/30 61/10/30 35/15/30
f 10/7/3 7/6/3 44/7/3
f 12/19/31 35/15/31 5/26/31
f 38/10/32 35/15/32 12/19/32
f 64/20/5 65/21/5 80/21/5 79/20/5
f 56/1/33 57/24/33 63/24/33 62/1/33
f 59/20/5 60/21/5 65/21/5 64/20/5
f 62/30/34 65/34/34 55/15/34 58/15/34
f 60/15/5 54/15/5 55/15/5 65/15/5
f 44/15/35 75/15/35 76/15/35 45/15/35
f 18/7/11 67/22/11 75/32/11 50/7/11
f 48/3/36 74/3/36 52/3/36
f 12/19/11 69/19/11 73/19/11 38/19/11
f 73/29/15 72/28/15 38/10/15
f 15/3/37 27/17/37 71/17/37 66/3/37
f 12/19/11 26/4/11 70/4/11 69/19/11
f 26/4/11 10/7/11 67/22/11 70/4/11
f 27/17/38 14/1/38 68/1/38 71/17/38
f 15/3/39 66/3/39 74/3/39 48/3/39
f 20/1/6 68/1/6 72/1/6 40/1/6
f 80/34/40 77/30/40 78/13/40 79/6/40
f 62/1/41 63/24/41 78/24/41 77/1/41
f 65/34/42 62/30/42 77/30/42 80/34/42
f 21/16/43 3/2/43 41/25/43 78/24/43 63/24/43 57/24/43 34/24/43 1/24/43
f 84/13/44 93/27/44 51/12/44 89/12/44 88/13/44
f 82/7/45 86/7/45 52/3/45
f 86/7/46 81/31/46 52/3/46
f 85/14/47 51/12/47 89/12/47
f 86/7/48 87/6/48 88/13/48 89/12/48
f 82/7/49 83/15/49 87/15/49 86/7/49
f 83/15/11 84/15/11 88/15/11 87/15/11
f 89/12/50 86/7/50 81/31/50 85/14/50
f 92/13/51 94/27/51 93/27/51 84/13/51
f 46/13/52 90/27/52 94/27/52 92/13/52
f 90/27/53 47/12/53 91/12/53 94/27/53
f 47/12/54 43/14/54 95/14/54 91/12/54
f 93/27/55 94/27/55 98/27/55
f 59/20/56 36/20/56 97/20/56
f 91/12/57 51/12/57 98/12/57
f 13/14/58 28/18/58 96/14/58
f 51/12/59 93/27/59 98/12/59
f 37/21/60 60/21/60 97/21/60
f 60/21/61 59/20/61 97/21/61
f 4/9/62 13/14/62 96/9/62
f 28/18/63 24/8/63 96/18/63
f 153/1/64 157/1/64 124/1/64 108/1/64
f 101/2/65 131/2/65 136/3/65 109/3/65
f 118/4/66 104/7/66 7/6/66 22/5/66
f 116/8/58 175/8/58 102/9/58
f 23/10/5 8/13/5 103/12/5 117/11/5
f 151/3/11 159/3/11 137/3/11 111/3/11
f 107/14/5 133/14/5 132/9/5 102/9/5
f 166/7/67 53/15/67 138/15/67
f 111/3/8 137/3/8 138/7/8 112/7/8
f 115/16/65 101/2/65 109/3/65 119/17/65
f 117/11/5 103/12/5 107/14/5 120/18/5
f 113/19/9 129/19/9 130/1/9 114/1/9
f 122/17/10 111/3/10 112/7/10 121/4/10
f 156/17/11 122/17/11 114/1/11 153/1/11
f 100/20/5 126/20/5 127/21/5 110/21/5
f 155/4/6 121/4/6 112/7/6 152/22/6
f 154/19/6 113/19/6 121/4/6 155/4/6
f 151/3/11 111/3/11 122/17/11 156/17/11
f 114/1/12 122/17/12 121/4/12 113/19/12
f 105/23/5 117/11/5 120/18/5 110/21/5
f 99/24/65 115/16/65 119/17/65 108/1/65
f 6/25/5 23/10/5 117/11/5 105/23/5
f 110/21/5 120/18/5 116/8/5 100/20/5
f 106/19/66 118/4/66 22/5/66 5/26/66
f 173/27/13 177/27/13 171/12/13
f 124/1/68 142/1/68 143/24/68 125/24/68
f 157/28/15 130/30/15 129/10/15 158/29/15
f 110/21/5 127/21/5 123/23/5 105/23/5
f 105/23/5 123/23/5 32/25/5 6/25/5
f 154/19/6 158/19/6 129/19/6 113/19/6
f 108/1/65 124/1/65 125/24/65 99/24/65
f 132/9/69 167/14/69 165/31/69 140/3/69 131/25/69
f 133/14/17 174/14/17 167/14/17 132/9/17
f 159/3/11 140/3/11 137/3/11
f 126/20/18 176/20/18 127/21/18
f 8/13/5 46/13/5 170/27/5 135/12/5 103/12/5
f 152/22/6 160/32/6 134/7/6 104/7/6
f 7/6/70 134/7/70 45/6/70
f 103/12/5 135/12/5 133/14/5 107/14/5
f 132/26/71 163/6/71 162/13/71 131/25/71
f 137/3/72 140/3/72 166/7/72 138/7/72
f 136/3/73 131/25/73 140/3/73
f 171/12/74 139/12/74 167/14/74 174/14/74
f 160/15/75 76/15/75 53/15/75 138/15/75
f 83/15/76 53/15/76 166/7/76
f 100/20/5 116/8/5 102/9/5 132/26/5 163/20/5 149/20/5 144/20/5 126/20/5
f 58/15/77 147/1/77 146/10/77
f 146/10/78 147/1/78 142/30/78
f 127/21/5 145/21/5 141/23/5 123/23/5
f 146/10/79 35/15/79 58/25/79
f 123/23/5 141/23/5 55/25/5 32/25/5
f 128/10/80 146/10/80 142/30/80 124/30/80 157/33/80
f 128/10/81 35/15/81 146/10/81
f 104/7/66 134/7/66 7/6/66
f 106/19/82 5/26/82 35/15/82
f 128/10/83 106/19/83 35/15/83
f 149/20/5 163/20/5 164/21/5 150/21/5
f 142/1/84 147/1/84 148/24/84 143/24/84
f 144/20/5 149/20/5 150/21/5 145/21/5
f 147/30/85 58/15/85 55/15/85 150/34/85
f 145/15/5 150/15/5 55/15/5 141/15/5
f 134/15/86 45/15/86 76/15/86 160/15/86
f 112/7/6 138/7/6 160/32/6 152/22/6
f 136/3/87 140/3/87 159/3/87
f 106/19/6 128/19/6 158/19/6 154/19/6
f 158/29/15 128/10/15 157/28/15
f 109/3/88 151/3/88 156/17/88 119/17/88
f 106/19/6 154/19/6 155/4/6 118/4/6
f 118/4/6 155/4/6 152/22/6 104/7/6
f 119/17/89 156/17/89 153/1/89 108/1/89
f 109/3/90 136/3/90 159/3/90 151/3/90
f 114/1/11 130/1/11 157/1/11 153/1/11
f 164/34/91 163/6/91 162/13/91 161/30/91
f 147/1/92 161/1/92 162/24/92 148/24/92
f 150/34/93 164/34/93 161/30/93 147/30/93
f 115/16/43 99/24/43 125/24/43 143/24/43 148/24/43 162/24/43 131/25/43 101/2/43
f 84/13/44 88/13/44 169/12/44 139/12/44 172/27/44
f 166/7/94 140/3/94 168/7/94
f 168/7/95 140/3/95 165/31/95
f 167/14/96 169/12/96 139/12/96
f 168/7/48 169/12/48 88/13/48 87/6/48
f 166/7/97 168/7/97 87/15/97 83/15/97
f 169/12/98 167/14/98 165/31/98 168/7/98
f 92/13/99 84/13/99 172/27/99 173/27/99
f 46/13/100 92/13/100 173/27/100 170/27/100
f 170/27/53 173/27/53 171/12/53 135/12/53
f 135/12/101 171/12/101 174/14/101 133/14/101
f 172/27/57 177/27/57 173/27/57
f 144/20/60 176/20/60 126/20/60
f 171/12/55 177/12/55 139/12/55
f 107/14/4 175/14/4 120/18/4
f 139/12/59 177/12/59 172/27/59
f 127/21/56 176/21/56 145/21/56
f 145/21/61 176/21/61 144/20/61
f 102/9/62 175/9/62 107/14/62
f 120/18/63 175/18/63 116/8/63
l 63 77
l 41 81
l 148 161
l 131 165
