# Blender 3.6.1
# www.blender.org
o Cube
v 0.146891 -0.142737 0.008506
v 0.146891 -0.118555 0.008506
v 0.146891 -0.142737 -0.008506
v 0.146891 -0.118555 -0.008506
v 0.157604 -0.150223 0.025459
v 0.157604 -0.099304 0.025459
v 0.157604 -0.150223 -0.025459
v 0.157604 -0.099304 -0.025459
v 0.146891 -0.166039 0.000000
v 0.157604 -0.175229 0.000000
v 0.146891 -0.146725 -0.019664
v 0.146891 -0.146725 0.019664
v 0.146891 -0.107397 0.019664
v 0.146891 -0.107397 -0.019664
v -0.015513 -0.123245 -0.008506
v -0.015513 -0.123245 0.008506
v -0.019087 -0.097897 0.008506
v -0.019087 -0.097897 -0.008506
v 0.146891 -0.142737 -0.006633
v 0.146891 -0.142737 0.006633
v -0.015513 -0.123245 -0.006633
v -0.015513 -0.123245 0.006633
v 0.146891 -0.124186 -0.006633
v 0.146891 -0.124186 0.006633
v -0.018308 -0.103418 -0.006633
v -0.018308 -0.103418 0.006633
v 0.020166 -0.102783 -0.008506
v 0.020166 -0.102783 0.008506
v 0.020077 -0.098008 -0.008485
v 0.020077 -0.098008 0.008528
vn -0.0000 -0.0000 -1.0000
vn -0.4758 -0.0000 -0.8796
vn 1.0000 -0.0000 -0.0000
vn -0.4758 -0.0000 0.8796
vn -0.5220 -0.6085 0.5977
vn -0.6028 0.7979 -0.0000
vn -0.5220 -0.6085 -0.5977
vn -1.0000 -0.0000 -0.0000
vn -0.9902 -0.1396 -0.0000
vn -0.0000 -0.0000 1.0000
vn 0.0006 0.0045 -1.0000
vn -0.1192 -0.9929 -0.0000
vn -0.1247 -0.9922 -0.0000
vn 0.1235 0.9923 -0.0000
vn 0.9998 0.0187 -0.0000
vn 0.0028 1.0000 -0.0000
vn -0.0006 -0.0045 1.0000
vt 0.485085 0.351508
vt 0.508021 0.346002
vt 0.508021 0.658502
vt 0.484387 0.671053
vt 0.484552 0.595482
vt 0.484375 0.843488
vt 0.484375 0.968488
vt 0.468750 0.999738
vt 0.468750 0.843488
vt 0.453125 0.905988
vt 0.453125 0.999738
vt 0.406250 0.999738
vt 0.406250 0.905988
vt 0.562500 0.843488
vt 0.562500 0.999738
vt 0.546875 0.968488
vt 0.546875 0.843488
vt 0.546875 0.749738
vt 0.562500 0.749738
vt 0.468750 0.749738
vt 0.484375 0.749738
vt 0.515625 0.780988
vt 0.429688 0.859949
vt 0.531250 0.854129
vt 0.528575 0.854744
vt 0.528001 0.905248
vt 0.502634 0.905248
vt 0.502675 0.854744
vt 0.500000 0.854129
vt 0.531250 0.937238
vt 0.500000 0.937238
vt 0.454882 0.395535
vt 0.453161 0.405777
vt 0.453161 0.358757
vt 0.454882 0.358757
vt 0.586146 0.346002
vt 0.609081 0.351508
vt 0.609614 0.595482
vt 0.609779 0.671053
vt 0.586146 0.658502
vt 0.453161 0.437027
vt 0.453161 0.468277
vt 0.437536 0.468277
vt 0.570521 0.346002
vt 0.570521 0.658502
vt 0.523646 0.346002
vt 0.523646 0.658502
vt 0.554896 0.658502
vt 0.554896 0.346002
vt 0.539271 0.346002
vt 0.539271 0.658502
vt 0.468786 0.749527
vt 0.453161 0.749527
vt 0.453161 0.499527
vt 0.468786 0.499527
vt 0.468786 0.468277
vt 0.468786 0.405777
vt 0.484411 0.468277
vt 0.468786 0.437027
vt 0.467066 0.395535
vt 0.468786 0.358757
vt 0.467066 0.358757
s 0
f 4/1/1 3/2/1 15/3/1 18/4/1 27/5/1
f 11/6/2 14/7/2 8/8/2 7/9/2
f 7/10/3 8/11/3 6/12/3 5/13/3
f 5/14/4 6/15/4 13/16/4 12/17/4
f 5/14/5 12/17/5 9/18/5 10/19/5
f 8/8/6 14/7/6 13/16/6 6/15/6
f 11/6/7 7/9/7 10/20/7 9/21/7
f 12/17/8 11/6/8 9/22/8
f 7/10/3 5/13/3 10/23/3
f 1/24/8 20/25/8 24/26/8 23/27/8 19/28/8 3/29/8 11/6/8 12/17/8
f 2/30/8 1/24/8 12/17/8 13/16/8
f 4/31/8 2/30/8 13/16/8 14/7/8
f 3/29/8 4/31/8 14/7/8 11/6/8
f 25/32/9 18/33/9 15/34/9 21/35/9
f 1/36/10 2/37/10 28/38/10 17/39/10 16/40/10
f 27/41/11 18/42/11 29/43/11
f 20/44/12 1/36/12 16/40/12 22/45/12
f 3/2/12 19/46/12 21/47/12 15/3/12
f 20/44/1 22/45/1 26/48/1 24/49/1
f 23/50/13 24/49/13 26/48/13 25/51/13
f 21/47/10 19/46/10 23/50/10 25/51/10
f 2/52/14 4/53/14 27/54/14 28/55/14
f 28/55/15 27/54/15 29/42/15 30/56/15
f 17/57/16 30/56/16 29/42/16 18/33/16
f 28/58/17 30/56/17 17/59/17
f 17/57/9 18/33/9 25/32/9 26/60/9
f 16/61/9 17/57/9 26/60/9 22/62/9
