# Blender 3.6.1
# www.blender.org
mtllib battery.mtl
o Battery
v -0.313200 0.465391 0.101669
v -0.182563 0.465391 0.046180
v -0.182563 0.608374 0.046180
v -0.231134 0.465391 0.294877
v -0.100496 0.465391 0.239388
v -0.100496 0.608374 0.239388
v -0.246966 0.608374 0.073536
v -0.155208 0.608374 0.110583
v -0.127852 0.608374 0.174985
v -0.164899 0.608374 0.266744
v -0.192255 0.608374 0.202341
v -0.219610 0.608374 0.137938
v -0.225498 0.608374 0.064417
v -0.204031 0.608374 0.055299
v -0.189388 0.608374 0.096782
v -0.205810 0.608374 0.103757
v -0.196364 0.608374 0.080361
v -0.212785 0.608374 0.087336
v -0.134677 0.608374 0.225588
v -0.151099 0.608374 0.232563
v -0.141652 0.608374 0.209166
v -0.158074 0.608374 0.216141
v -0.191948 0.627125 0.095749
v -0.204776 0.627125 0.101198
v -0.197397 0.627125 0.082920
v -0.210225 0.627125 0.088369
v -0.137237 0.627125 0.224554
v -0.150065 0.627125 0.230003
v -0.142686 0.627125 0.211726
v -0.155514 0.627125 0.217175
v -0.231134 0.616469 0.294877
v -0.313200 0.616469 0.101669
v -0.246966 0.616469 0.073536
v -0.155208 0.616469 0.110583
v -0.127852 0.616469 0.174985
v -0.164899 0.616469 0.266744
v -0.192255 0.616469 0.202341
v -0.219610 0.616469 0.137938
vn -0.0000 -1.0000 -0.0000
vn -0.0000 1.0000 -0.0000
vn 0.9204 -0.0000 -0.3910
vn -0.3910 -0.0000 -0.9204
vn 0.9155 0.1035 -0.3889
vn 0.3910 -0.0000 0.9204
vn 0.3889 0.1035 0.9155
vn -0.9155 0.1035 0.3889
vn -0.3889 0.1035 -0.9155
vn -0.9204 -0.0000 0.3910
vt 0.593750 0.531250
vt 0.890625 0.531250
vt 0.890625 0.328125
vt 0.593750 0.328125
vt 0.682474 0.713652
vt 0.640625 0.812500
vt 0.640625 1.000000
vt 0.609375 1.000000
vt 0.609375 0.812500
vt 0.328125 0.640625
vt 0.171875 0.640625
vt 0.171875 0.656250
vt 0.328125 0.656250
vt 0.671875 0.812500
vt 0.671875 1.000000
vt 0.609375 0.609375
vt 0.640625 0.609375
vt 0.984375 0.859375
vt 0.984375 0.921875
vt 0.906250 0.921875
vt 0.906250 0.859375
vt 0.328125 0.828125
vt 0.390625 0.718750
vt 0.390625 0.765625
vt 0.140625 0.281250
vt 0.140625 0.296875
vt 0.281250 0.296875
vt 0.281250 -0.000000
vt 0.000000 -0.000000
vt 0.000000 0.281250
vt 0.671875 0.609375
vt 0.750000 0.625000
vt 0.812500 0.625000
vt 0.812500 0.703125
vt 0.750000 0.703125
vt 0.812500 0.765625
vt 0.750000 0.765625
vt 0.843750 0.921875
vt 0.843750 0.859375
vt 0.671875 0.765625
vt 0.671875 0.703125
vt 0.843750 0.781250
vt 0.906250 0.781250
vt 0.812500 0.843750
vt 0.750000 0.843750
vt 0.765625 0.921875
vt 0.765625 0.859375
vt 0.906250 1.000000
vt 0.843750 1.000000
vt 0.890625 0.703125
vt 0.890625 0.765625
vt 0.171875 0.828125
vt 0.000000 0.828125
vt 0.000000 1.000000
vt 0.500000 1.000000
vt 0.500000 0.828125
vt 0.718750 0.296875
vt 0.718750 -0.000000
vt 0.859375 0.296875
vt 0.859375 0.281250
vt 1.000000 0.281250
vt 1.000000 -0.000000
vt 0.437500 0.718750
vt 0.500000 0.656250
vt 0.437500 0.765625
vt 0.000000 0.640625
vt 0.500000 0.640625
vt 0.500000 0.296875
vt 0.000000 0.296875
vt 0.109375 0.718750
vt 0.062500 0.718750
vt 0.000000 0.656250
vt 0.062500 0.765625
vt 0.109375 0.765625
s 0
usemtl Material.001
f 2/1/1 5/2/1 4/3/1 1/4/1
f 14/5/2 7/5/2 13/5/2
f 12/6/3 7/7/3 33/8/3 38/9/3
f 9/10/3 8/11/3 34/12/3 35/13/3
f 11/6/3 37/14/3 36/15/3 10/7/3
f 12/6/4 38/9/4 34/16/4 8/17/4
f 19/18/5 21/19/5 29/20/5 27/21/5
f 3/22/2 7/13/2 18/23/2 17/24/2
f 10/25/6 36/26/6 31/27/6 4/28/6 5/29/6 6/30/6
f 11/6/6 9/17/6 35/31/6 37/14/6
f 16/32/7 15/33/7 23/34/7 24/35/7
f 23/34/2 25/36/2 26/37/2 24/35/2
f 27/21/2 29/20/2 30/38/2 28/39/2
f 18/40/8 16/41/8 24/35/8 26/37/8
f 20/42/7 19/43/7 27/21/7 28/39/7
f 17/44/9 18/45/9 26/37/9 25/36/9
f 22/46/8 20/47/8 28/39/8 30/38/8
f 21/48/9 22/49/9 30/38/9 29/20/9
f 15/50/5 17/51/5 25/36/5 23/34/5
f 38/52/2 33/53/2 32/54/2 31/55/2 36/56/2 37/22/2 35/13/2 34/12/2
f 4/28/10 31/27/10 32/57/10 1/58/10
f 3/5/2 7/5/2 14/5/2
f 1/58/4 32/57/4 33/59/4 7/60/4 3/61/4 2/62/4
f 16/63/2 18/23/2 7/13/2 12/64/2
f 16/63/2 12/64/2 8/56/2 15/65/2
f 15/65/2 8/56/2 3/22/2 17/24/2
f 3/66/3 8/11/3 9/10/3 6/67/3 5/68/3 2/69/3
f 10/12/2 20/70/2 22/71/2 11/72/2
f 11/72/2 22/71/2 21/73/2 9/53/2
f 6/52/2 9/53/2 21/73/2 19/74/2
f 10/12/2 6/52/2 19/74/2 20/70/2
