# Blender 3.6.1
# www.blender.org
o Base.001
v -0.020966 0.760244 -0.095588
v -0.009881 0.802794 -0.095604
v -0.020060 0.768939 -0.183687
v -0.009881 0.805309 -0.183669
v 0.020966 0.760244 -0.095588
v 0.009881 0.802794 -0.095604
v 0.021881 0.766699 -0.183687
v 0.009881 0.805309 -0.183669
v -0.020966 0.775594 -0.095594
v -0.020060 0.781974 -0.183680
v 0.020060 0.781974 -0.183680
v 0.020966 0.775594 -0.095594
v -0.008556 0.761656 -0.183687
v -0.008640 0.749698 -0.095586
v 0.008556 0.761656 -0.183687
v 0.008640 0.749698 -0.095586
v -0.011467 0.785407 -0.095600
v -0.009881 0.804052 -0.139637
v 0.009881 0.804052 -0.139637
v -0.011393 0.786895 -0.183675
v 0.011393 0.786895 -0.183675
v 0.011467 0.785407 -0.095600
v 0.021881 0.781327 -0.139637
v -0.021881 0.781327 -0.139637
v 0.011467 0.787506 -0.139637
v -0.011467 0.787506 -0.139637
v -0.021881 0.784268 -0.183678
v -0.021881 0.766699 -0.183687
v 0.021881 0.784268 -0.183678
v 0.020060 0.768939 -0.183687
v -0.011467 0.789606 -0.183673
v 0.011467 0.789606 -0.183673
v 0.008640 0.758945 -0.183687
v -0.008640 0.758945 -0.183687
v 0.020060 0.768762 -0.176294
v -0.020060 0.768762 -0.176294
v -0.020060 0.781797 -0.176287
v 0.020060 0.781797 -0.176287
v -0.011393 0.786717 -0.176283
v 0.011393 0.786717 -0.176283
v 0.008556 0.761478 -0.176294
v -0.008556 0.761478 -0.176294
v 0.021881 0.778386 -0.095595
v 0.021881 0.757452 -0.095586
v -0.021881 0.757452 -0.095586
v -0.021881 0.778386 -0.095595
v 0.020966 0.775592 -0.101187
v 0.020966 0.760242 -0.101181
v -0.020966 0.760242 -0.101181
v -0.020966 0.775592 -0.101187
vn -0.9952 0.0979 0.0037
vn -0.0000 0.0003 -1.0000
vn 0.9957 0.0931 0.0035
vn -0.0000 0.0003 1.0000
vn 0.5033 -0.8594 -0.0902
vn -0.0000 0.9996 0.0285
vn 1.0000 -0.0000 -0.0000
vn -0.0000 -0.9997 -0.0240
vn -1.0000 -0.0000 -0.0000
vn -0.0000 -0.9945 -0.1044
vn -0.0000 -0.0000 1.0000
vn -0.5033 -0.8594 -0.0902
vn -0.0000 0.0006 1.0000
vn 0.5347 0.8437 0.0483
vn 0.4833 0.8740 0.0500
vn 0.9952 0.0979 0.0037
vn 0.4936 -0.8694 -0.0209
vn -0.4833 0.8740 0.0500
vn -0.5347 0.8437 0.0483
vn -0.9957 0.0931 0.0035
vn -0.0005 0.0005 -1.0000
vn 0.0005 0.0005 -1.0000
vn -0.0000 0.0008 -1.0000
vn -0.0000 -0.0000 -1.0000
vn -0.0000 0.0005 -1.0000
vn -0.5348 0.8447 0.0203
vn -0.4936 -0.8694 -0.0209
vn 0.5348 0.8447 0.0203
vn -0.0000 0.9997 0.0240
vn -0.0000 0.0004 1.0000
vn -0.0000 -1.0000 0.0003
vn -0.0000 1.0000 -0.0003
vt 0.562500 0.125000
vt 0.625000 0.125000
vt 0.625000 0.250000
vt 0.562500 0.250000
vt 0.625000 0.500000
vt 0.562500 0.500000
vt 0.562500 0.625000
vt 0.625000 0.625000
vt 0.625000 0.750000
vt 0.562500 0.750000
vt 0.625000 1.000000
vt 0.562500 1.000000
vt 0.375000 0.500000
vt 0.375000 0.750000
vt 0.875000 0.625000
vt 0.875000 0.750000
vt 0.483328 0.994773
vt 0.391672 0.994773
vt 0.500000 0.500000
vt 0.500000 0.625000
vt 0.500000 0.750000
vt 0.530762 0.281813
vt 0.530762 0.468187
vt 0.375000 0.000000
vt 0.500000 0.000000
vt 0.500000 0.125000
vt 0.500000 0.250000
vt 0.375000 0.250000
vt 0.125000 0.500000
vt 0.125000 0.750000
vt 0.375000 1.000000
vt 0.375000 0.275831
vt 0.473148 0.279730
vt 0.875000 0.500000
vt 0.500000 1.000000
vt 0.562500 0.000000
vt 0.625000 0.000000
vt 0.375000 0.474169
vt 0.473148 0.470270
vt 0.375000 0.279552
vt 0.375000 0.470448
vt 0.483328 0.755227
vt 0.391672 0.755227
s 0
f 26/1/1 18/2/1 4/3/1 31/4/1
f 31/4/2 4/3/2 8/5/2 32/6/2
f 25/7/3 19/8/3 6/9/3 22/10/3
f 22/10/4 6/9/4 2/11/4 17/12/4
f 7/13/5 44/14/5 16/14/5 33/13/5
f 19/8/6 18/15/6 2/16/6 6/9/6
f 9/17/7 1/18/7 49/18/7 50/17/7
f 7/13/7 29/19/7 23/20/7 43/21/7 44/14/7
f 20/22/8 21/23/8 40/23/8 39/22/8
f 45/24/9 46/25/9 24/26/9 27/27/9 28/28/9
f 34/29/10 33/13/10 16/14/10 14/30/10
f 44/14/11 45/31/11 14/31/11 16/14/11
f 3/32/7 10/33/7 37/33/7 36/32/7
f 45/24/12 28/28/12 34/28/12 14/24/12
f 8/5/6 4/34/6 18/15/6 19/8/6
f 43/21/13 22/10/13 17/12/13 46/35/13
f 23/20/14 25/7/14 22/10/14 43/21/14
f 29/19/15 32/6/15 25/7/15 23/20/15
f 32/6/16 8/5/16 19/8/16 25/7/16
f 10/33/17 20/22/17 39/22/17 37/33/17
f 24/26/18 26/1/18 31/4/18 27/27/18
f 46/25/19 17/36/19 26/1/19 24/26/19
f 17/36/20 2/37/20 18/2/20 26/1/20
f 10/33/21 3/32/21 28/28/21 27/27/21
f 30/38/22 11/39/22 29/19/22 7/13/22
f 20/22/23 10/33/23 27/27/23 31/4/23
f 11/39/23 21/23/23 32/6/23 29/19/23
f 13/40/24 15/41/24 33/13/24 34/28/24
f 15/41/24 30/38/24 7/13/24 33/13/24
f 3/32/24 13/40/24 34/28/24 28/28/24
f 21/23/23 20/22/23 31/4/23 32/6/23
f 36/32/25 37/33/25 38/39/25 35/38/25
f 36/32/24 35/38/24 41/41/24 42/40/24
f 37/33/23 39/22/23 40/23/23 38/39/23
f 30/38/26 15/41/26 41/41/26 35/38/26
f 21/23/27 11/39/27 38/39/27 40/23/27
f 11/39/9 30/38/9 35/38/9 38/39/9
f 13/40/28 3/32/28 36/32/28 42/40/28
f 15/41/29 13/40/29 42/40/29 41/41/29
f 12/42/30 5/43/30 44/14/30 43/21/30
f 5/43/30 1/18/30 45/31/30 44/14/30
f 1/18/30 9/17/30 46/35/30 45/31/30
f 9/17/30 12/42/30 43/21/30 46/35/30
f 48/43/30 47/42/30 50/17/30 49/18/30
f 5/43/9 12/42/9 47/42/9 48/43/9
f 12/42/31 9/17/31 50/17/31 47/42/31
f 1/18/32 5/43/32 48/43/32 49/18/32
o Camera
v 0.009920 0.765980 -0.173912
v 0.009920 0.767387 -0.189886
v 0.015935 0.768472 -0.173912
v 0.014940 0.769467 -0.189886
v 0.018427 0.774487 -0.173912
v 0.017020 0.774487 -0.189886
v 0.015935 0.780502 -0.173912
v 0.014940 0.779507 -0.189886
v 0.009920 0.782993 -0.173912
v 0.009920 0.781586 -0.189886
v 0.003905 0.780502 -0.173912
v 0.004900 0.779507 -0.189886
v 0.001414 0.774487 -0.173912
v 0.002821 0.774487 -0.189886
v 0.003905 0.768472 -0.173912
v 0.004900 0.769467 -0.189886
v 0.015935 0.768472 -0.189886
v 0.009920 0.765980 -0.189886
v 0.018427 0.774487 -0.189886
v 0.015935 0.780502 -0.189886
v 0.009920 0.782993 -0.189886
v 0.003905 0.780502 -0.189886
v 0.001414 0.774487 -0.189886
v 0.003905 0.768472 -0.189886
v 0.014940 0.769467 -0.185006
v 0.009920 0.767387 -0.185006
v 0.017020 0.774487 -0.185006
v 0.014940 0.779507 -0.185006
v 0.009920 0.781586 -0.185006
v 0.004900 0.779507 -0.185006
v 0.002821 0.774487 -0.185006
v 0.004900 0.769467 -0.185006
v 0.009920 0.774487 -0.186938
vn 0.3827 -0.9239 -0.0000
vn 0.9239 -0.3827 -0.0000
vn 0.9239 0.3827 -0.0000
vn 0.3827 0.9239 -0.0000
vn -0.3827 0.9239 -0.0000
vn -0.9239 0.3827 -0.0000
vn -0.9239 -0.3827 -0.0000
vn -0.3827 -0.9239 -0.0000
vn -0.0000 -0.0000 1.0000
vn -0.0000 -0.0000 -1.0000
vn -0.2611 0.1082 -0.9592
vn -0.2611 -0.1082 -0.9592
vn 0.1082 0.2611 -0.9592
vn 0.1082 -0.2611 -0.9592
vn -0.1082 0.2611 -0.9592
vn 0.2611 -0.1082 -0.9592
vn -0.1082 -0.2611 -0.9592
vn 0.2611 0.1082 -0.9592
vt 1.000000 0.500000
vt 1.000000 1.000000
vt 0.875000 1.000000
vt 0.875000 0.500000
vt 0.750000 1.000000
vt 0.750000 0.500000
vt 0.625000 1.000000
vt 0.625000 0.500000
vt 0.500000 1.000000
vt 0.500000 0.500000
vt 0.375000 1.000000
vt 0.375000 0.500000
vt 0.250000 1.000000
vt 0.250000 0.500000
vt 0.108365 0.391635
vt 0.049698 0.250000
vt 0.125000 1.000000
vt 0.125000 0.500000
vt 0.000000 1.000000
vt 0.000000 0.500000
vt 0.750000 0.490000
vt 0.919706 0.419706
vt 0.990000 0.250000
vt 0.919706 0.080294
vt 0.750000 0.010000
vt 0.580294 0.080294
vt 0.510000 0.250000
vt 0.580294 0.419706
vt 0.250000 0.450302
vt 0.391635 0.391635
vt 0.419706 0.419706
vt 0.250000 0.490000
vt 0.450302 0.250000
vt 0.490000 0.250000
vt 0.391635 0.108365
vt 0.419706 0.080294
vt 0.250000 0.049698
vt 0.250000 0.010000
vt 0.108365 0.108365
vt 0.080294 0.080294
vt 0.010000 0.250000
vt 0.080294 0.419706
vt 0.250000 0.250000
s 0
f 51/44/33 68/45/33 67/46/33 53/47/33
f 53/47/34 67/46/34 69/48/34 55/49/34
f 55/49/35 69/48/35 70/50/35 57/51/35
f 57/51/36 70/50/36 71/52/36 59/53/36
f 59/53/37 71/52/37 72/54/37 61/55/37
f 61/55/38 72/54/38 73/56/38 63/57/38
f 66/58/35 64/59/35 81/59/35 82/58/35
f 63/57/39 73/56/39 74/60/39 65/61/39
f 65/61/40 74/60/40 68/62/40 51/63/40
f 51/64/41 53/65/41 55/66/41 57/67/41 59/68/41 61/69/41 63/70/41 65/71/41
f 52/72/42 54/73/42 67/74/42 68/75/42
f 54/73/42 56/76/42 69/77/42 67/74/42
f 56/76/42 58/78/42 70/79/42 69/77/42
f 58/78/42 60/80/42 71/81/42 70/79/42
f 60/80/42 62/82/42 72/83/42 71/81/42
f 62/82/42 64/59/42 73/84/42 72/83/42
f 64/59/42 66/58/42 74/85/42 73/84/42
f 66/58/42 52/72/42 68/75/42 74/85/42
f 83/86/43 81/59/43 80/82/43
f 62/82/33 60/80/33 79/80/33 80/82/33
f 58/78/39 56/76/39 77/76/39 78/78/39
f 54/73/37 52/72/37 76/72/37 75/73/37
f 52/72/36 66/58/36 82/58/36 76/72/36
f 64/59/34 62/82/34 80/82/34 81/59/34
f 60/80/40 58/78/40 78/78/40 79/80/40
f 56/76/38 54/73/38 75/73/38 77/76/38
f 82/58/44 81/59/44 83/86/44
f 83/86/45 79/80/45 78/78/45
f 75/73/46 76/72/46 83/86/46
f 79/80/47 83/86/47 80/82/47
f 77/76/48 75/73/48 83/86/48
f 76/72/49 82/58/49 83/86/49
f 77/76/50 83/86/50 78/78/50
o Light
v -0.008308 0.768456 -0.165487
v -0.008308 0.768456 -0.181462
v -0.004044 0.770222 -0.165487
v -0.004044 0.770222 -0.181462
v -0.002277 0.774487 -0.165487
v -0.002277 0.774487 -0.181462
v -0.004044 0.778751 -0.165487
v -0.004044 0.778751 -0.181462
v -0.008308 0.780517 -0.165487
v -0.008308 0.780517 -0.181462
v -0.012572 0.778751 -0.165487
v -0.012572 0.778751 -0.181462
v -0.014339 0.774487 -0.165487
v -0.014339 0.774487 -0.181462
v -0.012572 0.770222 -0.165487
v -0.012572 0.770222 -0.181462
v -0.005015 0.771194 -0.181005
v -0.008308 0.769830 -0.181005
v -0.003651 0.774487 -0.181005
v -0.005015 0.777780 -0.181005
v -0.008308 0.779144 -0.181005
v -0.011601 0.777780 -0.181005
v -0.012965 0.774487 -0.181005
v -0.011601 0.771194 -0.181005
v -0.004044 0.770222 -0.181462
v -0.008308 0.768456 -0.181462
v -0.002277 0.774487 -0.181462
v -0.004044 0.778751 -0.181462
v -0.008308 0.780517 -0.181462
v -0.012572 0.778751 -0.181462
v -0.014339 0.774487 -0.181462
v -0.012572 0.770222 -0.181462
vn 0.3827 -0.9239 -0.0000
vn 0.9239 -0.3827 -0.0000
vn 0.9239 0.3827 -0.0000
vn 0.3827 0.9239 -0.0000
vn -0.3827 0.9239 -0.0000
vn -0.9239 0.3827 -0.0000
vn -0.0000 -0.0000 -1.0000
vn -0.9239 -0.3827 -0.0000
vn -0.3827 -0.9239 -0.0000
vn -0.0000 -0.0000 1.0000
vn -0.1296 0.3130 -0.9409
vn -0.3130 0.1296 -0.9409
vn -0.3130 -0.1296 -0.9409
vn -0.1296 -0.3130 -0.9409
vn 0.1296 -0.3130 -0.9409
vn 0.3130 -0.1296 -0.9409
vn 0.3130 0.1296 -0.9409
vn 0.1296 0.3130 -0.9409
vt 1.000000 0.500000
vt 1.000000 1.000000
vt 0.875000 1.000000
vt 0.875000 0.500000
vt 0.750000 1.000000
vt 0.750000 0.500000
vt 0.625000 1.000000
vt 0.625000 0.500000
vt 0.500000 1.000000
vt 0.500000 0.500000
vt 0.375000 1.000000
vt 0.375000 0.500000
vt 0.250000 1.000000
vt 0.250000 0.500000
vt 0.125000 1.000000
vt 0.125000 0.500000
vt 0.000000 1.000000
vt 0.000000 0.500000
vt 0.750000 0.490000
vt 0.919706 0.419706
vt 0.990000 0.250000
vt 0.919706 0.080294
vt 0.750000 0.010000
vt 0.580294 0.080294
vt 0.510000 0.250000
vt 0.580294 0.419706
vt 0.381047 0.381047
vt 0.250000 0.435329
vt 0.118953 0.381047
vt 0.064671 0.250000
vt 0.118953 0.118953
vt 0.250000 0.064671
vt 0.381047 0.118953
vt 0.435329 0.250000
vt 0.419706 0.419706
vt 0.250000 0.490000
vt 0.490000 0.250000
vt 0.419706 0.080294
vt 0.250000 0.010000
vt 0.080294 0.080294
vt 0.010000 0.250000
vt 0.080294 0.419706
s 0
f 84/87/51 85/88/51 87/89/51 86/90/51
f 86/90/52 87/89/52 89/91/52 88/92/52
f 88/92/53 89/91/53 91/93/53 90/94/53
f 90/94/54 91/93/54 93/95/54 92/96/54
f 92/96/55 93/95/55 95/97/55 94/98/55
f 94/98/56 95/97/56 97/99/56 96/100/56
f 91/93/57 89/91/57 110/91/57 111/93/57
f 96/100/58 97/99/58 99/101/58 98/102/58
f 98/102/59 99/101/59 85/103/59 84/104/59
f 84/105/60 86/106/60 88/107/60 90/108/60 92/109/60 94/110/60 96/111/60 98/112/60
f 100/113/57 101/114/57 107/115/57 106/116/57 105/117/57 104/118/57 103/119/57 102/120/57
f 97/99/57 95/97/57 113/97/57 114/99/57
f 93/95/57 91/93/57 111/93/57 112/95/57
f 99/101/57 97/99/57 114/99/57 115/101/57
f 89/91/57 87/89/57 108/89/57 110/91/57
f 95/97/57 93/95/57 112/95/57 113/97/57
f 85/103/57 99/101/57 115/101/57 109/103/57
f 87/89/57 85/88/57 109/88/57 108/89/57
f 101/114/61 100/113/61 108/121/61 109/122/61
f 100/113/62 102/120/62 110/123/62 108/121/62
f 102/120/63 103/119/63 111/124/63 110/123/63
f 103/119/64 104/118/64 112/125/64 111/124/64
f 104/118/65 105/117/65 113/126/65 112/125/65
f 105/117/66 106/116/66 114/127/66 113/126/66
f 106/116/67 107/115/67 115/128/67 114/127/67
f 107/115/68 101/114/68 109/122/68 115/128/68
