# Blender 3.6.1
# www.blender.org
o Motor_Top
v 0.000000 0.545973 -0.042577
v 0.000000 0.717973 -0.042577
v 0.030106 0.545973 -0.030106
v 0.030106 0.717973 -0.030106
v 0.042577 0.545973 0.000000
v 0.042577 0.717973 0.000000
v 0.030106 0.545973 0.030106
v 0.030106 0.717973 0.030106
v 0.000000 0.545973 0.042577
v 0.000000 0.717973 0.042577
v -0.030106 0.545973 0.030106
v -0.030106 0.717973 0.030106
v -0.042577 0.545973 0.000000
v -0.042577 0.717973 0.000000
v -0.030106 0.545973 -0.030106
v -0.030106 0.717973 -0.030106
vn 0.3827 -0.0000 -0.9239
vn 0.9239 -0.0000 -0.3827
vn 0.9239 -0.0000 0.3827
vn 0.3827 -0.0000 0.9239
vn -0.3827 -0.0000 0.9239
vn -0.9239 -0.0000 0.3827
vn -0.0000 1.0000 -0.0000
vn -0.9239 -0.0000 -0.3827
vn -0.3827 -0.0000 -0.9239
vn -0.0000 -1.0000 -0.0000
vt 1.000000 0.500000
vt 1.000000 1.000000
vt 0.875000 1.000000
vt 0.875000 0.500000
vt 0.750000 1.000000
vt 0.750000 0.500000
vt 0.625000 1.000000
vt 0.625000 0.500000
vt 0.500000 1.000000
vt 0.500000 0.500000
vt 0.375000 1.000000
vt 0.375000 0.500000
vt 0.250000 1.000000
vt 0.250000 0.500000
vt 0.419706 0.419706
vt 0.250000 0.490000
vt 0.080294 0.419706
vt 0.010000 0.250000
vt 0.080294 0.080294
vt 0.250000 0.010000
vt 0.419706 0.080294
vt 0.490000 0.250000
vt 0.125000 1.000000
vt 0.125000 0.500000
vt 0.000000 1.000000
vt 0.000000 0.500000
vt 0.750000 0.490000
vt 0.919706 0.419706
vt 0.990000 0.250000
vt 0.919706 0.080294
vt 0.750000 0.010000
vt 0.580294 0.080294
vt 0.510000 0.250000
vt 0.580294 0.419706
s 0
f 1/1/1 2/2/1 4/3/1 3/4/1
f 3/4/2 4/3/2 6/5/2 5/6/2
f 5/6/3 6/5/3 8/7/3 7/8/3
f 7/8/4 8/7/4 10/9/4 9/10/4
f 9/10/5 10/9/5 12/11/5 11/12/5
f 11/12/6 12/11/6 14/13/6 13/14/6
f 4/15/7 2/16/7 16/17/7 14/18/7 12/19/7 10/20/7 8/21/7 6/22/7
f 13/14/8 14/13/8 16/23/8 15/24/8
f 15/24/9 16/23/9 2/25/9 1/26/9
f 1/27/10 3/28/10 5/29/10 7/30/10 9/31/10 11/32/10 13/33/10 15/34/10
o Gun_Pivot
v 0.095403 0.833335 -0.016930
v -0.095403 0.833335 -0.016930
v 0.095403 0.845307 -0.011971
v -0.095403 0.845307 -0.011971
v 0.095403 0.850265 0.000000
v -0.095403 0.850265 0.000000
v 0.095403 0.845307 0.011971
v -0.095403 0.845307 0.011971
v 0.095403 0.833335 0.016930
v -0.095403 0.833335 0.016930
v 0.095403 0.821364 0.011971
v -0.095403 0.821364 0.011971
v 0.095403 0.816405 0.000000
v -0.095403 0.816405 0.000000
v 0.095403 0.821364 -0.011971
v -0.095403 0.821364 -0.011971
vn -0.0000 0.3827 -0.9239
vn -0.0000 0.9239 -0.3827
vn -0.0000 0.9239 0.3827
vn -0.0000 0.3827 0.9239
vn -0.0000 -0.3827 0.9239
vn -0.0000 -0.9239 0.3827
vn -1.0000 -0.0000 -0.0000
vn -0.0000 -0.9239 -0.3827
vn -0.0000 -0.3827 -0.9239
vn 1.0000 -0.0000 -0.0000
vt 1.000000 0.500000
vt 1.000000 1.000000
vt 0.875000 1.000000
vt 0.875000 0.500000
vt 0.750000 1.000000
vt 0.750000 0.500000
vt 0.625000 1.000000
vt 0.625000 0.500000
vt 0.500000 1.000000
vt 0.500000 0.500000
vt 0.375000 1.000000
vt 0.375000 0.500000
vt 0.250000 1.000000
vt 0.250000 0.500000
vt 0.419706 0.419706
vt 0.250000 0.490000
vt 0.080294 0.419706
vt 0.010000 0.250000
vt 0.080294 0.080294
vt 0.250000 0.010000
vt 0.419706 0.080294
vt 0.490000 0.250000
vt 0.125000 1.000000
vt 0.125000 0.500000
vt 0.000000 1.000000
vt 0.000000 0.500000
vt 0.750000 0.490000
vt 0.919706 0.419706
vt 0.990000 0.250000
vt 0.919706 0.080294
vt 0.750000 0.010000
vt 0.580294 0.080294
vt 0.510000 0.250000
vt 0.580294 0.419706
s 0
f 17/35/11 18/36/11 20/37/11 19/38/11
f 19/38/12 20/37/12 22/39/12 21/40/12
f 21/40/13 22/39/13 24/41/13 23/42/13
f 23/42/14 24/41/14 26/43/14 25/44/14
f 25/44/15 26/43/15 28/45/15 27/46/15
f 27/46/16 28/45/16 30/47/16 29/48/16
f 20/49/17 18/50/17 32/51/17 30/52/17 28/53/17 26/54/17 24/55/17 22/56/17
f 29/48/18 30/47/18 32/57/18 31/58/18
f 31/58/19 32/57/19 18/59/19 17/60/19
f 17/61/20 19/62/20 21/63/20 23/64/20 25/65/20 27/66/20 29/67/20 31/68/20
o Turret_pivot
v -0.014831 0.715336 0.014831
v -0.077487 0.870309 0.040255
v -0.014831 0.715336 -0.014831
v -0.077487 0.870309 -0.040255
v 0.014831 0.715336 0.014831
v 0.077487 0.870309 0.040255
v 0.014831 0.715336 -0.014831
v 0.077487 0.870309 -0.040255
v -0.056454 0.870309 -0.040255
v 0.056454 0.870309 -0.040255
v 0.056454 0.870309 0.040255
v -0.056454 0.870309 0.040255
v -0.018412 0.732601 -0.020641
v 0.018412 0.732601 -0.020641
v 0.018412 0.732601 0.020641
v -0.018412 0.732601 0.020641
v -0.056454 0.732601 -0.072807
v 0.056454 0.732601 -0.072807
v 0.056454 0.732601 0.072807
v -0.056454 0.732601 0.072807
v -0.077487 0.715336 -0.077487
v -0.077487 0.715336 0.077487
v 0.077487 0.715336 -0.077487
v 0.077487 0.715336 0.077487
vn -1.0000 -0.0000 -0.0000
vn -0.0130 0.2319 -0.9727
vn 1.0000 -0.0000 -0.0000
vn 0.0130 0.2319 0.9727
vn -0.0000 0.3189 -0.9478
vn -0.0000 1.0000 -0.0000
vn -0.9792 0.2031 -0.0000
vn 0.0130 0.2319 -0.9727
vn -0.0000 0.2616 -0.9652
vn -0.0130 0.2319 0.9727
vn -0.0000 0.2616 0.9652
vn -0.0000 -1.0000 -0.0000
vn 0.9792 0.2031 -0.0000
vn -0.0000 0.3189 0.9478
vt 0.375000 0.000000
vt 0.625000 0.000000
vt 0.625000 0.250000
vt 0.375000 0.250000
vt 0.375000 0.500000
vt 0.625000 0.416667
vt 0.625000 0.500000
vt 0.625000 0.750000
vt 0.375000 0.750000
vt 0.375000 1.000000
vt 0.625000 0.916667
vt 0.625000 1.000000
vt 0.280520 0.655520
vt 0.219480 0.655520
vt 0.757364 0.670207
vt 0.742636 0.670207
vt 0.791667 0.500000
vt 0.875000 0.500000
vt 0.875000 0.750000
vt 0.791667 0.750000
vt 0.708333 0.500000
vt 0.708333 0.750000
vt 0.280520 0.594480
vt 0.742636 0.579793
vt 0.625000 0.333333
vt 0.625000 0.833333
vt 0.757364 0.579793
vt 0.219480 0.594480
vt 0.125000 0.750000
vt 0.125000 0.500000
s 0
f 54/69/21 34/70/21 36/71/21 53/72/21
f 55/73/22 50/74/22 42/74/22 40/75/22
f 55/73/23 40/75/23 38/76/23 56/77/23
f 54/78/24 52/79/24 44/79/24 34/80/24
f 37/81/25 33/82/25 48/83/25 47/84/25
f 41/85/26 36/86/26 34/87/26 44/88/26
f 40/75/26 42/89/26 43/90/26 38/76/26
f 43/90/21 42/89/21 50/89/21 51/90/21
f 39/91/27 37/81/27 47/84/27 46/92/27
f 41/85/23 44/88/23 52/88/23 49/85/23
f 53/72/28 36/71/28 41/93/28 49/93/28
f 55/73/29 53/72/29 49/93/29 50/74/29
f 56/77/30 38/76/30 43/94/30 51/94/30
f 54/78/31 56/77/31 51/94/31 52/79/31
f 45/95/26 46/92/26 50/89/26 49/85/26
f 47/84/26 48/83/26 52/88/26 51/90/26
f 46/92/26 47/84/26 51/90/26 50/89/26
f 48/83/26 45/95/26 49/85/26 52/88/26
f 35/96/32 33/82/32 54/97/32 53/98/32
f 39/91/32 35/96/32 53/98/32 55/73/32
f 37/81/32 39/91/32 55/73/32 56/77/32
f 33/82/32 37/81/32 56/77/32 54/97/32
f 33/82/33 35/96/33 45/95/33 48/83/33
f 35/96/34 39/91/34 46/92/34 45/95/34
