# Blender 3.6.1
# www.blender.org
mtllib gun.mtl
o Barrel
v 0.000000 0.827084 -0.098631
v 0.000000 0.829516 -0.458631
v 0.006406 0.829737 -0.098631
v 0.004686 0.831457 -0.458631
v 0.009059 0.836143 -0.098631
v 0.006627 0.836143 -0.458631
v 0.006406 0.842549 -0.098631
v 0.004686 0.840829 -0.458631
v 0.000000 0.845202 -0.098631
v 0.000000 0.842770 -0.458631
v -0.006406 0.842549 -0.098631
v -0.004686 0.840829 -0.458631
v -0.009059 0.836143 -0.098631
v -0.006627 0.836143 -0.458631
v -0.006406 0.829737 -0.098631
v -0.004686 0.831457 -0.458631
v 0.006406 0.829737 -0.458631
v 0.000000 0.827084 -0.458631
v 0.009059 0.836143 -0.458631
v 0.006406 0.842549 -0.458631
v 0.000000 0.845202 -0.458631
v -0.006406 0.842549 -0.458631
v -0.009059 0.836143 -0.458631
v -0.006406 0.829737 -0.458631
v 0.004686 0.831457 -0.433230
v 0.000000 0.829516 -0.433230
v 0.006627 0.836143 -0.433230
v 0.004686 0.840829 -0.433230
v 0.000000 0.842770 -0.433230
v -0.004686 0.840829 -0.433230
v -0.006627 0.836143 -0.433230
v -0.004686 0.831457 -0.433230
vn 0.3827 -0.9239 -0.0000
vn 0.9239 -0.3827 -0.0000
vn 0.9239 0.3827 -0.0000
vn 0.3827 0.9239 -0.0000
vn -0.3827 0.9239 -0.0000
vn -0.9239 0.3827 -0.0000
vn -0.9239 -0.3827 -0.0000
vn -0.3827 -0.9239 -0.0000
vn -0.0000 -0.0000 1.0000
vn -0.0000 -0.0000 -1.0000
vt 1.000000 0.500000
vt 1.000000 1.000000
vt 0.875000 1.000000
vt 0.875000 0.500000
vt 0.750000 1.000000
vt 0.750000 0.500000
vt 0.625000 1.000000
vt 0.625000 0.500000
vt 0.500000 1.000000
vt 0.500000 0.500000
vt 0.375000 1.000000
vt 0.375000 0.500000
vt 0.250000 1.000000
vt 0.250000 0.500000
vt 0.125858 0.374142
vt 0.074437 0.250000
vt 0.125000 1.000000
vt 0.125000 0.500000
vt 0.000000 1.000000
vt 0.000000 0.500000
vt 0.750000 0.490000
vt 0.919706 0.419706
vt 0.990000 0.250000
vt 0.919706 0.080294
vt 0.750000 0.010000
vt 0.580294 0.080294
vt 0.510000 0.250000
vt 0.580294 0.419706
vt 0.250000 0.425563
vt 0.374142 0.374142
vt 0.419706 0.419706
vt 0.250000 0.490000
vt 0.425563 0.250000
vt 0.490000 0.250000
vt 0.374142 0.125858
vt 0.419706 0.080294
vt 0.250000 0.074437
vt 0.250000 0.010000
vt 0.125858 0.125858
vt 0.080294 0.080294
vt 0.010000 0.250000
vt 0.080294 0.419706
s 0
f 1/1/1 18/2/1 17/3/1 3/4/1
f 3/4/2 17/3/2 19/5/2 5/6/2
f 5/6/3 19/5/3 20/7/3 7/8/3
f 7/8/4 20/7/4 21/9/4 9/10/4
f 9/10/5 21/9/5 22/11/5 11/12/5
f 11/12/6 22/11/6 23/13/6 13/14/6
f 16/15/3 14/16/3 31/16/3 32/15/3
f 13/14/7 23/13/7 24/17/7 15/18/7
f 15/18/8 24/17/8 18/19/8 1/20/8
f 1/21/9 3/22/9 5/23/9 7/24/9 9/25/9 11/26/9 13/27/9 15/28/9
f 2/29/10 4/30/10 17/31/10 18/32/10
f 4/30/10 6/33/10 19/34/10 17/31/10
f 6/33/10 8/35/10 20/36/10 19/34/10
f 8/35/10 10/37/10 21/38/10 20/36/10
f 10/37/10 12/39/10 22/40/10 21/38/10
f 12/39/10 14/16/10 23/41/10 22/40/10
f 14/16/10 16/15/10 24/42/10 23/41/10
f 16/15/10 2/29/10 18/32/10 24/42/10
f 25/30/10 26/29/10 32/15/10 31/16/10 30/39/10 29/37/10 28/35/10 27/33/10
f 12/39/1 10/37/1 29/37/1 30/39/1
f 8/35/7 6/33/7 27/33/7 28/35/7
f 4/30/5 2/29/5 26/29/5 25/30/5
f 2/29/4 16/15/4 32/15/4 26/29/4
f 14/16/2 12/39/2 30/39/2 31/16/2
f 10/37/8 8/35/8 28/35/8 29/37/8
f 6/33/6 4/30/6 25/30/6 27/33/6
o Turret
v -0.029462 0.850283 0.141465
v -0.029462 0.922381 0.027812
v 0.029462 0.922381 0.027812
v -0.029462 0.889687 -0.072812
v 0.029462 0.889687 -0.072812
v -0.029462 0.783885 -0.072812
v 0.029462 0.783885 -0.072812
v -0.029462 0.751191 0.027812
v 0.029462 0.751191 0.027812
v 0.013268 0.867342 -0.269525
v -0.013268 0.867342 -0.269525
v -0.013268 0.806230 -0.269525
v 0.013268 0.806230 -0.269525
v -0.029462 0.850283 0.084506
v 0.029462 0.847498 0.089480
v -0.029462 0.815889 0.141465
v 0.000000 0.922381 0.027812
v -0.000000 0.751191 0.027812
v -0.029462 0.815889 0.084506
v 0.029462 0.826074 0.089480
v 0.000000 0.793988 0.058906
v 0.000000 0.879583 0.058906
v 0.029462 0.826074 0.136491
v 0.029462 0.847498 0.136491
v 0.029462 0.879583 0.058906
v 0.029462 0.793988 0.058906
v -0.029462 0.793988 0.058906
v -0.029462 0.879583 0.058906
v -0.008403 0.835108 0.141465
v -0.008403 0.835108 0.084506
v -0.008403 0.850283 0.141465
v -0.008403 0.850283 0.084506
v 0.010894 0.847498 0.136491
v 0.010894 0.826074 0.136491
v 0.010894 0.847498 0.089480
v 0.010894 0.826074 0.089480
v 0.000000 0.818481 0.167065
v 0.000000 0.793988 0.149261
v 0.000000 0.855091 0.167065
v 0.000000 0.879583 0.149261
v 0.019443 0.855091 0.167065
v 0.029462 0.879583 0.149261
v 0.019443 0.818481 0.167065
v 0.029462 0.793988 0.149261
v -0.019443 0.818481 0.167065
v -0.029462 0.793988 0.149261
v -0.019443 0.855091 0.167065
v -0.029462 0.879583 0.149261
v -0.013268 0.856011 -0.269525
v -0.013268 0.817560 -0.269525
v 0.013268 0.817560 -0.269525
v 0.013268 0.856011 -0.269525
v -0.013268 0.856011 -0.099906
v -0.013268 0.817560 -0.099906
v 0.013268 0.817560 -0.099906
v 0.013268 0.856011 -0.099906
v 0.013268 0.800885 -0.086206
v 0.013268 0.872687 -0.086206
v -0.013268 0.872687 -0.086206
v -0.013268 0.800885 -0.086206
v -0.013268 0.815761 -0.292290
v -0.013268 0.836786 -0.300081
v -0.013268 0.857811 -0.292290
v -0.013268 0.849986 -0.284096
v -0.013268 0.836786 -0.288750
v -0.013268 0.823586 -0.284096
v 0.013268 0.849986 -0.284096
v 0.013268 0.836786 -0.288750
v 0.013268 0.823586 -0.284096
v 0.013268 0.857811 -0.292290
v 0.013268 0.836786 -0.300081
v 0.013268 0.815761 -0.292290
vn -0.0000 0.5878 0.8090
vn -0.0000 0.9511 -0.3090
vn 1.0000 -0.0000 -0.0000
vn -0.0000 -0.9511 -0.3090
vn -0.0000 -0.0000 1.0000
vn -1.0000 -0.0000 -0.0000
vn -0.0000 0.9241 0.3822
vn -0.0000 0.9996 -0.0291
vn -0.0000 -0.9996 -0.0291
vn -0.0000 -1.0000 -0.0000
vn -0.0000 1.0000 -0.0000
vn -0.0000 -0.5878 0.8090
vn -0.6741 0.7386 -0.0000
vn -0.0000 -0.0000 -1.0000
vn -0.0000 -0.5880 0.8089
vn -0.8715 -0.0000 0.4904
vn -0.0000 0.5880 0.8089
vn 0.8715 -0.0000 0.4904
vn -0.6374 -0.0000 -0.7706
vn -0.0000 -0.6189 -0.7855
vn -0.0000 0.6189 -0.7855
vn 0.6374 -0.0000 -0.7706
vn -0.0000 -0.9224 -0.3862
vn -0.0000 0.3325 0.9431
vn -0.0000 -0.3325 0.9431
vn -0.0000 -0.9241 0.3822
vn -0.0000 -0.3475 -0.9377
vn -0.0000 0.3475 -0.9377
vn -0.0000 0.9224 -0.3862
vt 0.900000 0.750000
vt 0.900000 1.000000
vt 0.800000 1.000000
vt 0.800000 0.750000
vt 0.800000 0.500000
vt 0.600000 1.000000
vt 0.600000 0.500000
vt 0.108932 0.055836
vt 0.202977 0.055836
vt 0.181835 0.407082
vt 0.318165 0.407082
vt 0.394224 0.407082
vt 0.105776 0.407082
vt 0.400000 0.500000
vt 0.400000 1.000000
vt 0.200000 1.000000
vt 0.200000 0.750000
vt 0.200000 0.500000
vt 0.795859 0.407082
vt 0.704141 0.407082
vt 0.864127 0.407082
vt 0.978254 0.324164
vt 0.891068 0.055836
vt 0.608932 0.055836
vt 0.521746 0.324164
vt 0.635873 0.407082
vt 0.466667 0.500000
vt 0.466667 1.000000
vt 0.483333 1.000000
vt 0.483333 0.500000
vt 0.797023 0.055836
vt 0.100000 0.750000
vt 0.100000 1.000000
vt 0.100000 1.000000
vt 0.900000 1.000000
vt 0.100000 0.500000
vt 0.478254 0.324164
vt 0.364127 0.407082
vt 0.135873 0.407082
vt 0.021746 0.324164
vt 0.391068 0.055836
vt 0.900000 0.500000
vt 0.900000 0.750000
vt 0.292404 0.543440
vt 0.739920 0.869248
vt 0.733225 0.726191
vt 0.707596 0.455269
vt 0.260079 0.506875
vt 0.266775 0.721038
vt 0.318165 0.407082
vt 0.181835 0.407082
vt 0.135873 0.407082
vt 0.795859 0.407082
vt 0.642735 0.407082
vt 0.870989 0.407082
vt 0.864127 0.407082
vt 0.100000 0.750000
vt 0.683351 0.407082
vt 0.816649 0.407082
vt 0.316649 0.407082
vt 0.183352 0.407082
vt 0.702977 0.055836
vt 0.726489 0.055836
vt 0.679466 0.055836
vt 0.533333 0.500000
vt 0.533333 1.000000
vt 0.179466 0.055836
vt 0.226489 0.055836
vt 0.450000 0.500000
vt 0.450000 1.000000
vt 0.750000 0.055836
vt 0.750000 0.055836
vt 0.773511 0.055836
vt 0.820534 0.055836
vt 0.500000 1.000000
vt 0.500000 0.500000
vt 0.516667 1.000000
vt 0.516667 0.500000
vt 0.250000 0.055836
vt 0.320534 0.055836
vt 0.273511 0.055836
vt 0.297023 0.055836
vt 0.550000 0.500000
vt 0.550000 1.000000
s 0
f 54/43/11 57/44/11 35/45/11 49/46/11
f 34/47/12 49/46/12 35/45/12 37/48/12 36/49/12
f 89/50/13 45/50/13 83/51/13 87/51/13
f 55/52/13 56/53/13 74/54/13 76/55/13
f 38/56/14 39/57/14 41/58/14 50/59/14 40/60/14
f 46/61/15 51/62/15 62/62/15 64/61/15
f 60/63/16 34/64/16 36/65/16 38/66/16 40/67/16 59/68/16
f 82/69/17 83/70/17 101/71/17 98/72/17
f 91/49/18 90/48/18 42/48/18 43/49/18
f 89/57/19 92/56/19 44/56/19 45/57/19
f 91/65/16 43/65/16 81/73/16 85/73/16
f 53/74/20 58/75/20 76/76/20 70/74/20
f 57/44/21 54/43/21 72/43/21 74/77/21
f 40/60/22 50/59/22 53/74/22 59/78/22
f 50/59/22 41/58/22 58/75/22 53/74/22
f 35/79/13 57/80/13 58/81/13 41/82/13 39/50/13 37/83/13
f 60/84/11 54/43/11 49/46/11 34/47/11
f 54/43/21 60/84/21 80/84/21 72/85/21
f 75/86/15 73/87/15 71/88/15 79/89/15 77/90/15 69/91/15
f 56/53/13 47/92/13 57/80/13 74/80/13
f 47/92/13 52/93/13 58/81/13 57/80/13
f 48/62/16 51/62/16 59/68/16 78/68/16
f 52/93/13 55/52/13 76/94/13 58/81/13
f 33/95/16 48/62/16 78/96/16 80/97/16
f 46/61/16 33/95/16 80/98/16 60/63/16
f 51/62/16 46/61/16 60/63/16 59/68/16
f 64/61/16 62/62/16 61/62/16 63/95/16
f 51/62/23 48/62/23 61/62/23 62/62/23
f 33/95/20 46/61/20 64/61/20 63/95/20
f 48/62/24 33/95/24 63/95/24 61/62/24
f 65/53/13 66/52/13 68/93/13 67/92/13
f 52/93/15 47/92/15 67/92/15 68/93/15
f 47/92/20 56/53/20 65/53/20 67/92/20
f 56/53/24 55/52/24 66/52/24 65/53/24
f 52/93/21 68/93/21 66/52/21 55/52/21
f 69/91/25 77/90/25 78/78/25 70/99/25
f 80/97/26 78/96/26 77/100/26 79/101/26
f 72/43/27 80/63/27 79/89/27 71/88/27
f 74/77/27 72/43/27 71/88/27 73/87/27
f 73/102/28 75/103/28 76/55/28 74/54/28
f 75/86/25 69/91/25 70/74/25 76/81/25
f 59/78/20 53/74/20 70/99/20 78/78/20
f 44/66/16 82/104/16 98/105/16 93/106/16
f 83/70/21 82/69/21 86/69/21 87/70/21
f 85/107/24 88/108/24 87/70/24 86/69/24
f 81/107/20 84/108/20 88/108/20 85/107/20
f 38/66/29 36/65/29 91/65/29 92/66/29
f 39/57/30 38/56/30 92/56/30 89/57/30
f 36/49/31 37/48/31 90/48/31 91/49/31
f 37/83/32 39/50/32 89/50/32 90/83/32
f 83/51/13 45/50/13 104/109/13 101/110/13
f 45/57/33 44/56/33 93/111/33 104/112/33
f 93/106/16 98/105/16 97/113/16 94/114/16
f 94/114/16 97/113/16 96/115/16 95/116/16
f 95/116/16 96/115/16 81/73/16 43/65/16
f 98/72/34 101/71/34 100/117/34 97/118/34
f 97/118/35 100/117/35 99/119/35 96/120/35
f 96/120/36 99/119/36 84/108/36 81/107/36
f 101/110/13 104/109/13 103/121/13 100/121/13
f 100/121/13 103/121/13 102/122/13 99/123/13
f 99/123/13 102/122/13 42/83/13 84/124/13
f 104/112/37 93/111/37 94/118/37 103/117/37
f 103/117/38 94/118/38 95/125/38 102/126/38
f 102/126/39 95/125/39 43/49/39 42/48/39
f 42/83/13 90/83/13 88/124/13 84/124/13
f 90/83/13 89/50/13 87/51/13 88/124/13
f 92/66/16 91/65/16 85/73/16 86/104/16
f 44/66/16 92/66/16 86/104/16 82/104/16
