# Blender 4.4.3
# www.blender.org
o Bullet
v 0.001626 -0.001626 -0.005154
v 0.002988 -0.002988 -0.002699
v 0.003330 -0.003330 0.000403
v 0.002300 -0.000000 -0.005154
v 0.004226 -0.000000 -0.002699
v 0.004709 0.000000 0.000403
v 0.001626 0.001626 -0.005154
v 0.002988 0.002988 -0.002699
v 0.003330 0.003330 0.000403
v 0.000000 0.002300 -0.005154
v 0.000000 0.004226 -0.002699
v 0.000000 0.004709 0.000403
v 0.000000 -0.000000 -0.005804
v -0.001626 0.001626 -0.005154
v -0.002988 0.002988 -0.002699
v -0.003330 0.003330 0.000403
v -0.002300 -0.000000 -0.005154
v -0.004226 -0.000000 -0.002699
v -0.004709 0.000000 0.000403
v -0.001626 -0.001626 -0.005154
v -0.002988 -0.002988 -0.002699
v -0.003330 -0.003330 0.000403
v 0.000000 -0.002300 -0.005154
v 0.000000 -0.004226 -0.002699
v 0.000000 -0.004709 0.000403
vn -0.0000 -0.9260 -0.3776
vn -0.0000 -0.6055 -0.7958
vn 0.4282 -0.4282 -0.7958
vn 0.6548 -0.6548 -0.3776
vn -0.0000 -0.9881 -0.1540
vn 0.6987 -0.6987 -0.1540
vn -0.0000 -0.0000 -1.0000
vn 0.9260 -0.0000 -0.3776
vn 0.9881 -0.0000 -0.1540
vn 0.6055 -0.0000 -0.7958
vn 0.6548 0.6548 -0.3776
vn 0.6987 0.6987 -0.1540
vn 0.4282 0.4282 -0.7958
vn -0.0000 0.9260 -0.3776
vn -0.0000 0.9881 -0.1540
vn -0.0000 0.6055 -0.7958
vn -0.6548 0.6548 -0.3776
vn -0.6987 0.6987 -0.1540
vn -0.4282 0.4282 -0.7958
vn -0.9260 -0.0000 -0.3776
vn -0.9881 -0.0000 -0.1540
vn -0.6055 -0.0000 -0.7958
vn -0.4282 -0.4282 -0.7958
vn -0.6548 -0.6548 -0.3776
vn -0.6987 -0.6987 -0.1540
vt 0.750000 0.666667
vt 0.750000 0.833333
vt 0.625000 0.833333
vt 0.625000 0.666667
vt 0.750000 0.500000
vt 0.625000 0.500000
vt 0.687500 1.000000
vt 0.500000 0.666667
vt 0.500000 0.500000
vt 0.562500 1.000000
vt 0.500000 0.833333
vt 0.375000 0.666667
vt 0.375000 0.500000
vt 0.437500 1.000000
vt 0.375000 0.833333
vt 0.250000 0.666667
vt 0.250000 0.500000
vt 0.312500 1.000000
vt 0.250000 0.833333
vt 0.125000 0.666667
vt 0.125000 0.500000
vt 0.187500 1.000000
vt 0.125000 0.833333
vt 0.000000 0.666667
vt 0.000000 0.500000
vt 0.062500 1.000000
vt 0.000000 0.833333
vt 1.000000 0.833333
vt 0.937500 1.000000
vt 0.875000 0.833333
vt 1.000000 0.666667
vt 0.875000 0.666667
vt 1.000000 0.500000
vt 0.875000 0.500000
vt 0.812500 1.000000
s 1
f 24/1/1 23/2/2 1/3/3 2/4/4
f 25/5/5 24/1/1 2/4/4 3/6/6
f 23/2/2 13/7/7 1/3/3
f 3/6/6 2/4/4 5/8/8 6/9/9
f 1/3/3 13/10/7 4/11/10
f 2/4/4 1/3/3 4/11/10 5/8/8
f 6/9/9 5/8/8 8/12/11 9/13/12
f 4/11/10 13/14/7 7/15/13
f 5/8/8 4/11/10 7/15/13 8/12/11
f 9/13/12 8/12/11 11/16/14 12/17/15
f 7/15/13 13/18/7 10/19/16
f 8/12/11 7/15/13 10/19/16 11/16/14
f 12/17/15 11/16/14 15/20/17 16/21/18
f 10/19/16 13/22/7 14/23/19
f 11/16/14 10/19/16 14/23/19 15/20/17
f 16/21/18 15/20/17 18/24/20 19/25/21
f 14/23/19 13/26/7 17/27/22
f 15/20/17 14/23/19 17/27/22 18/24/20
f 17/28/22 13/29/7 20/30/23
f 18/31/20 17/28/22 20/30/23 21/32/24
f 19/33/21 18/31/20 21/32/24 22/34/25
f 21/32/24 20/30/23 23/2/2 24/1/1
f 22/34/25 21/32/24 24/1/1 25/5/5
f 20/30/23 13/35/7 23/2/2
