# Blender 4.4.3
# www.blender.org
o Mag
v -0.007024 -0.053016 0.008598
v -0.007024 0.013313 0.001825
v -0.007024 -0.053016 -0.000696
v -0.007024 0.013313 -0.007469
v 0.007024 -0.053016 0.008598
v 0.007024 0.013313 0.001825
v 0.007024 -0.053016 -0.000696
v 0.007024 0.013313 -0.007469
v -0.009525 -0.088774 -0.006604
v -0.009525 -0.088774 0.025623
v 0.009525 -0.088774 -0.006604
v 0.009525 -0.088774 0.025623
v -0.009525 -0.092579 0.026123
v 0.009525 -0.092579 0.026123
v -0.009525 -0.090368 -0.012367
v -0.009525 -0.092579 -0.011831
v 0.009525 -0.090368 -0.012367
v 0.009525 -0.092579 -0.011831
v -0.007024 -0.088774 -0.001653
v -0.007024 -0.088774 0.021928
v -0.007024 0.017722 -0.012441
v 0.007024 0.017722 -0.012441
v 0.007024 -0.088774 -0.001653
v 0.007024 -0.088774 0.021928
v 0.007024 0.018325 0.011141
v -0.009110 -0.088971 -0.002588
v -0.001837 -0.081274 0.023620
v -0.001866 -0.078063 0.023293
v -0.008980 0.018116 -0.013504
v 0.009110 -0.088971 -0.002588
v 0.008980 0.018116 -0.013504
v 0.001837 -0.081274 0.023620
v 0.001866 -0.078063 0.023293
v -0.009017 -0.053578 -0.000936
v -0.009017 -0.053578 0.010304
v -0.009017 0.014229 0.003531
v -0.009017 0.014229 -0.007709
v 0.009017 0.014229 -0.007709
v 0.009017 -0.053578 -0.000936
v 0.009017 -0.053578 0.010304
v 0.009017 0.014229 0.003531
v 0.003037 -0.088971 -0.005237
v -0.003037 -0.088971 -0.005237
v -0.002993 0.016700 -0.016153
v 0.002993 0.016700 -0.016153
v 0.002341 -0.088774 -0.003682
v -0.002341 -0.088774 -0.003682
v -0.002341 0.016205 -0.014469
v 0.002341 0.016205 -0.014469
v -0.007024 0.018325 -0.005078
v 0.007024 0.018325 -0.005078
v 0.009007 0.018199 -0.004831
v -0.007024 0.018325 0.011141
v -0.009007 0.018199 -0.004831
v 0.006753 0.022562 -0.007173
v 0.006753 0.022562 0.011099
v -0.006753 0.022562 0.011099
v -0.006753 0.022562 -0.007173
v -0.001837 -0.081096 0.025368
v 0.004407 0.023507 -0.007938
v 0.004407 0.023507 0.008604
v -0.004407 0.023507 0.008604
v -0.004407 0.023507 -0.007938
v -0.008980 -0.088565 0.024364
v -0.009110 0.018522 0.013447
v 0.009110 0.018522 0.013447
v 0.008980 -0.088565 0.024364
v -0.007729 0.018522 0.013447
v 0.007729 0.018522 0.013447
v 0.001837 -0.081096 0.025368
vn 0.6523 -0.0762 -0.7541
vn 1.0000 -0.0000 -0.0000
vn -0.0000 -1.0000 -0.0000
vn 0.0062 1.0000 -0.0069
vn -0.0000 0.9963 0.0855
vn -0.0000 0.1305 0.9915
vn -0.0062 1.0000 -0.0069
vn -0.0000 -0.2354 -0.9719
vn -0.0000 0.9864 0.1641
vn -0.0000 0.9638 -0.2665
vn -1.0000 -0.0000 -0.0000
vn -0.0229 0.9995 -0.0195
vn 0.2378 0.9704 -0.0427
vn 0.1935 0.9798 -0.0515
vn 0.4179 -0.9085 -0.0000
vn 0.2716 0.9624 -0.0000
vn -0.9534 -0.0582 0.2962
vn 0.1101 0.0999 0.9889
vn -0.1101 0.0999 0.9889
vn 0.4096 -0.0928 -0.9075
vn -1.0000 0.0014 0.0034
vn -1.0000 -0.0011 -0.0038
vn -1.0000 -0.0026 -0.0034
vn -0.9320 0.3623 -0.0060
vn -0.9817 0.1906 -0.0048
vn -1.0000 0.0011 0.0031
vn 1.0000 0.0011 0.0031
vn 1.0000 0.0014 0.0034
vn 1.0000 -0.0026 -0.0034
vn 0.9817 0.1906 -0.0048
vn 0.9320 0.3623 -0.0060
vn 1.0000 -0.0011 -0.0038
vn -0.2716 0.9624 -0.0000
vn 0.7966 -0.0452 0.6028
vn 0.9534 -0.0582 0.2962
vn 0.9120 -0.0545 0.4065
vn -0.6523 -0.0762 -0.7541
vn -0.1900 0.9648 0.1821
vn -0.1613 0.9620 0.2203
vn -0.2378 0.9704 -0.0427
vn -0.4179 -0.9085 -0.0000
vn -0.0000 -0.1002 -0.9950
vn 0.4083 0.0926 0.9081
vn -0.4096 -0.0928 -0.9075
vn -0.0000 -0.1028 -0.9947
vn -0.4083 0.0926 0.9081
vn -0.0000 0.1022 0.9948
vn -0.0000 1.0000 -0.0000
vn 0.0229 0.9995 -0.0195
vn 0.0646 0.9979 -0.0098
vn -0.1935 0.9798 -0.0515
vn 0.5965 0.8026 -0.0027
vn 0.7734 0.6339 -0.0051
vn -0.7734 0.6339 -0.0051
vn -0.5965 0.8026 -0.0027
vn -0.0000 0.5025 0.8646
vn -0.0838 -0.4373 -0.8954
vn 0.7357 -0.0406 0.6761
vn 0.0838 -0.4373 -0.8954
vn -0.0000 0.9964 -0.0849
vn 0.8926 -0.4508 -0.0000
vn -0.8926 -0.4508 -0.0000
vn 0.3738 0.9275 -0.0000
vn -0.1166 -0.4341 -0.8933
vn -0.7357 -0.0406 0.6761
vn -0.3738 0.9275 -0.0000
vn 0.1166 -0.4341 -0.8933
vn 0.1613 0.9620 0.2203
vn 0.1900 0.9648 0.1821
vn -0.0646 0.9979 -0.0098
vn -0.0000 0.1014 0.9948
vn 1.0000 -0.0088 0.0009
vn -0.0000 -0.9948 0.1014
vn -1.0000 -0.0088 0.0009
vn -0.0000 0.5646 0.8253
vt 0.000000 0.000000
vt 0.375000 0.500000
vt 0.375000 0.750000
vt 0.375000 0.513823
vt 0.125000 0.513823
vt 0.375000 0.513823
vt 0.125000 0.750000
vt 0.375000 1.000000
vt 0.125000 0.500000
vt 0.375000 0.250000
vt 0.375000 0.000000
vt 0.375000 0.236177
vt 0.625000 0.833333
vt 0.375000 0.416667
vt 0.625000 0.416667
vt 0.625000 0.500000
vt 0.450140 0.096939
vt 0.450140 0.188558
vt 0.607109 0.096939
vt 0.625000 0.000000
vt 0.607109 0.188558
vt 0.625000 0.198556
vt 0.625000 0.250000
vt 0.607109 0.561441
vt 0.450140 0.561441
vt 0.450140 0.653061
vt 0.607109 0.653061
vt 0.625000 0.551444
vt 0.625000 0.750000
vt 0.625000 0.916667
vt 0.375000 0.333333
vt 0.625000 0.333333
vt 0.376749 0.989523
vt 0.623251 0.970677
vt 0.625000 1.000000
vt 0.623251 0.779323
vt 0.376749 0.760477
vt 0.623251 0.945716
vt 0.623251 0.804284
s 0
f 5/1/1 6/1/1 41/1/1 40/1/1
f 11/2/2 12/3/2 14/3/2 18/4/2 17/2/2
f 16/5/3 18/6/3 14/3/3 13/7/3
f 26/1/4 9/1/4 10/1/4 64/1/4
f 9/1/5 26/1/5 43/1/5 42/1/5 30/1/5 11/1/5
f 12/3/6 10/8/6 13/8/6 14/3/6
f 11/1/7 30/1/7 67/1/7 12/1/7
f 16/5/8 15/9/8 17/2/8 18/2/8
f 10/8/9 12/3/9 67/3/9 64/8/9
f 9/10/10 11/2/10 17/2/10 15/10/10
f 10/11/11 9/10/11 15/10/11 16/12/11 13/11/11
s 1
f 50/1/12 21/1/13 29/1/14
s 0
f 6/1/15 8/1/15 38/1/15 41/1/15
f 7/1/16 5/1/16 40/1/16 39/1/16
f 25/1/17 69/13/17 56/1/17
f 8/1/18 7/1/18 39/1/18 38/1/18
f 3/1/19 4/1/19 37/1/19 34/1/19
f 42/14/20 45/15/20 31/16/20 30/2/20
f 35/17/21 34/18/21 26/10/21 64/11/21
f 36/19/22 35/17/22 64/11/22 65/20/22
s 1
f 37/21/23 36/19/23 65/20/24 54/22/25 29/23/23
s 0
f 34/18/26 37/21/26 29/23/26 26/10/26
f 38/24/27 39/25/27 30/2/27 31/16/27
f 39/25/28 40/26/28 67/3/28 30/2/28
s 1
f 41/27/29 38/24/29 31/16/29 52/28/30 66/29/31
s 0
f 40/26/32 41/27/32 66/29/32 67/3/32
f 1/1/33 3/1/33 34/1/33 35/1/33
s 1
f 57/1/34 68/30/35 53/1/36
s 0
f 2/1/37 1/1/37 35/1/37 36/1/37
s 1
f 45/1/38 49/1/39 22/1/40
s 0
f 4/1/41 2/1/41 36/1/41 37/1/41
f 23/2/11 24/3/11 5/1/11 7/1/11
f 6/1/11 5/1/11 24/3/11 25/1/11
f 7/1/11 8/1/11 22/1/11 23/2/11
f 25/1/11 51/1/11 22/1/11 8/1/11 6/1/11
f 20/8/42 53/1/42 25/1/42 24/3/42
f 47/31/43 48/1/43 21/1/43 19/10/43
f 19/10/2 21/1/2 4/1/2 3/1/2
f 21/1/2 50/1/2 53/1/2 2/1/2 4/1/2
f 2/1/2 53/1/2 20/8/2 1/1/2
f 20/8/2 19/10/2 3/1/2 1/1/2
f 26/10/44 29/23/44 44/32/44 43/31/44
f 43/31/45 44/32/45 45/15/45 42/14/45
f 23/2/46 22/1/46 49/1/46 46/14/46
f 46/14/47 49/1/47 48/1/47 47/31/47
f 19/10/48 20/8/48 24/3/48 23/2/48 46/14/48 47/31/48
s 1
f 51/1/49 52/1/50 31/1/51
f 55/1/52 56/1/53 66/1/31 52/1/30
f 57/1/54 58/1/55 54/1/25 65/1/24
f 69/13/56 66/29/56 56/1/56
s 0
f 50/1/57 54/1/57 58/1/57
s 1
f 57/1/34 53/1/36 62/1/58
s 0
f 52/1/59 51/1/59 55/1/59
f 68/30/56 57/1/56 65/1/56
f 25/1/60 53/1/60 68/1/60 69/1/60
f 53/1/61 50/1/61 63/1/61 62/1/61
f 51/1/62 25/1/62 61/1/62 60/1/62
s 1
f 56/1/53 55/1/52 60/1/63 61/1/63
s 0
f 50/1/64 58/1/64 63/1/64
s 1
f 25/1/65 56/1/65 61/1/65
f 58/1/55 57/1/54 62/1/66 63/1/66
s 0
f 55/1/67 51/1/67 60/1/67
s 1
f 48/1/68 49/1/39 45/1/38 44/1/69
f 21/1/13 48/1/68 44/1/69
f 22/1/40 51/1/49 31/1/51
f 54/1/70 50/1/12 29/1/14
f 29/1/14 21/1/13 44/1/69
f 31/1/51 45/1/38 22/1/40
s 0
f 27/33/71 28/34/71 65/35/71 64/8/71
f 33/36/71 32/37/71 67/3/71 66/29/71
f 32/37/71 27/33/71 64/8/71 67/3/71
f 28/38/71 68/30/71 65/35/71
f 33/36/71 66/29/71 69/13/71
f 28/38/71 33/39/71 69/13/71 68/30/71
f 32/37/72 33/36/72 70/37/72
f 27/33/73 32/37/73 70/37/73 59/33/73
f 28/34/74 27/33/74 59/33/74
f 33/39/75 28/38/75 59/33/75 70/37/75
