# Blender 4.4.3
# www.blender.org
o Spring
v 0.004082 -0.088795 -0.001018
v -0.005916 -0.088788 -0.000833
v 0.004501 -0.083888 0.021546
v -0.005497 -0.083882 0.021730
v 0.004066 -0.084057 -0.001523
v -0.005932 -0.084051 -0.001339
v 0.004082 -0.084046 -0.001550
v -0.005916 -0.084039 -0.001365
v 0.004501 -0.079139 0.021014
v -0.005497 -0.079133 0.021198
v 0.004066 -0.079308 -0.002055
v -0.005932 -0.079302 -0.001870
v 0.004082 -0.079297 -0.002081
v -0.005916 -0.079290 -0.001897
v 0.004501 -0.074391 0.020482
v -0.005497 -0.074384 0.020666
v 0.004066 -0.074559 -0.002587
v -0.005932 -0.074553 -0.002402
v 0.004082 -0.074548 -0.002613
v -0.005916 -0.074541 -0.002429
v 0.004501 -0.069642 0.019950
v -0.005497 -0.069635 0.020135
v 0.004066 -0.069810 -0.003119
v -0.005932 -0.069804 -0.002934
v 0.004082 -0.069799 -0.003145
v -0.005916 -0.069793 -0.002961
v 0.004501 -0.064893 0.019418
v -0.005497 -0.064886 0.019603
v 0.004066 -0.065061 -0.003650
v -0.005932 -0.065055 -0.003466
v 0.004082 -0.065050 -0.003677
v -0.005916 -0.065044 -0.003492
v 0.004501 -0.060144 0.018887
v -0.005497 -0.060137 0.019071
v 0.004066 -0.060312 -0.004182
v -0.005932 -0.060306 -0.003998
v 0.004082 -0.060301 -0.004209
v -0.005916 -0.060295 -0.004024
v 0.004501 -0.055395 0.018355
v -0.005497 -0.055388 0.018539
v 0.004066 -0.055563 -0.004714
v -0.005932 -0.055557 -0.004529
v 0.004082 -0.055552 -0.004740
v -0.005916 -0.055546 -0.004556
v 0.004501 -0.050646 0.017823
v -0.005497 -0.050639 0.018007
v 0.004066 -0.050814 -0.005246
v -0.005932 -0.050808 -0.005061
v 0.004082 -0.050803 -0.005272
v -0.005916 -0.050797 -0.005088
v 0.004501 -0.045897 0.017291
v -0.005497 -0.045890 0.017476
v 0.004066 -0.046065 -0.005777
v -0.005932 -0.046059 -0.005593
v 0.004082 -0.046054 -0.005804
v -0.005916 -0.046048 -0.005620
v 0.004501 -0.041148 0.016759
v -0.005497 -0.041141 0.016944
v 0.004066 -0.041316 -0.006309
v -0.005932 -0.041310 -0.006125
v 0.004082 -0.041305 -0.006336
v -0.005916 -0.041299 -0.006151
v 0.004501 -0.036399 0.016228
v -0.005497 -0.036392 0.016412
v 0.004066 -0.036568 -0.006841
v -0.005932 -0.036561 -0.006657
v 0.004082 -0.036556 -0.006868
v -0.005916 -0.036550 -0.006683
v 0.004501 -0.031650 0.015696
v -0.005497 -0.031643 0.015880
v 0.004066 -0.031819 -0.007373
v -0.005932 -0.031812 -0.007188
v 0.004082 -0.031807 -0.007399
v -0.005916 -0.031801 -0.007215
v 0.004501 -0.026901 0.015164
v -0.005497 -0.026895 0.015348
v 0.004066 -0.027070 -0.007905
v -0.005932 -0.027063 -0.007720
v 0.004082 -0.027058 -0.007931
v -0.005916 -0.027052 -0.007747
v 0.004501 -0.022152 0.014632
v -0.005497 -0.022146 0.014817
v 0.004066 -0.022321 -0.008436
v -0.005932 -0.022314 -0.008252
v 0.004082 -0.022309 -0.008463
v -0.005916 -0.022303 -0.008279
v 0.004501 -0.017403 0.014100
v -0.005497 -0.017397 0.014285
v 0.004066 -0.017572 -0.008968
v -0.005932 -0.017565 -0.008784
vn -0.0033 0.9772 -0.2124
vn -0.0005 -1.0000 0.0073
vt 0.998999 0.001001
vt 0.001001 0.001001
vt 0.001001 0.998999
vt 0.998999 0.998999
vt 0.001001 0.001001
vt 0.001001 0.998999
vt 0.998999 0.001001
s 0
f 1/1/1 2/2/1 4/3/1 3/4/1
f 3/5/2 4/6/2 6/4/2 5/7/2
f 7/1/1 8/2/1 10/3/1 9/4/1
f 9/5/2 10/6/2 12/4/2 11/7/2
f 13/1/1 14/2/1 16/3/1 15/4/1
f 15/5/2 16/6/2 18/4/2 17/7/2
f 19/1/1 20/2/1 22/3/1 21/4/1
f 21/5/2 22/6/2 24/4/2 23/7/2
f 25/1/1 26/2/1 28/3/1 27/4/1
f 27/5/2 28/6/2 30/4/2 29/7/2
f 31/1/1 32/2/1 34/3/1 33/4/1
f 33/5/2 34/6/2 36/4/2 35/7/2
f 37/1/1 38/2/1 40/3/1 39/4/1
f 39/5/2 40/6/2 42/4/2 41/7/2
f 43/1/1 44/2/1 46/3/1 45/4/1
f 45/5/2 46/6/2 48/4/2 47/7/2
f 49/1/1 50/2/1 52/3/1 51/4/1
f 51/5/2 52/6/2 54/4/2 53/7/2
f 55/1/1 56/2/1 58/3/1 57/4/1
f 57/5/2 58/6/2 60/4/2 59/7/2
f 61/1/1 62/2/1 64/3/1 63/4/1
f 63/5/2 64/6/2 66/4/2 65/7/2
f 67/1/1 68/2/1 70/3/1 69/4/1
f 69/5/2 70/6/2 72/4/2 71/7/2
f 73/1/1 74/2/1 76/3/1 75/4/1
f 75/5/2 76/6/2 78/4/2 77/7/2
f 79/1/1 80/2/1 82/3/1 81/4/1
f 81/5/2 82/6/2 84/4/2 83/7/2
f 85/1/1 86/2/1 88/3/1 87/4/1
f 87/5/2 88/6/2 90/4/2 89/7/2
