# Blender 4.4.3
# www.blender.org
o Mag_Release
v -0.005665 -0.089248 0.031389
v 0.005982 -0.089248 0.031389
v -0.005665 -0.092334 0.030484
v 0.005982 -0.092334 0.030484
v -0.005665 -0.095281 0.031774
v 0.005982 -0.095281 0.031774
v -0.005665 -0.096709 0.034656
v 0.005982 -0.096709 0.034656
v -0.005665 -0.095950 0.037782
v 0.005982 -0.095950 0.037782
v -0.005665 -0.093359 0.039688
v 0.005982 -0.093359 0.039688
v -0.005665 -0.090149 0.039484
v 0.005982 -0.090149 0.039484
v -0.005665 -0.087822 0.037264
v 0.005982 -0.087822 0.037264
v -0.005665 -0.087466 0.034067
v 0.005982 -0.087466 0.034067
v -0.005665 -0.088583 0.030486
v -0.005665 -0.092406 0.029364
v 0.005982 -0.092406 0.029364
v 0.005982 -0.088583 0.030486
v -0.005665 -0.096055 0.030962
v 0.005982 -0.096055 0.030962
v -0.005665 -0.097823 0.034532
v 0.005982 -0.097823 0.034532
v -0.005665 -0.096883 0.038403
v 0.005982 -0.096883 0.038403
v -0.005665 -0.093675 0.040765
v 0.005982 -0.093675 0.040765
v -0.005665 -0.089699 0.040511
v 0.005982 -0.089699 0.040511
v -0.005665 -0.086817 0.037762
v 0.005982 -0.086817 0.037762
v -0.005665 -0.086376 0.033802
v 0.005982 -0.086376 0.033802
v 0.005982 -0.068218 0.037762
v -0.005665 -0.068218 0.037762
v -0.005665 -0.067777 0.033802
v 0.005982 -0.067777 0.033802
vn -0.0000 0.2816 -0.9595
vn -0.0000 -0.4011 -0.9160
vn -0.0000 -0.8961 -0.4439
vn -0.0000 -0.9718 0.2359
vn -0.0000 -0.5928 0.8054
vn -0.0000 0.0636 0.9980
vn -0.0000 0.6902 0.7236
vn -0.0000 -0.9939 -0.1107
vn 1.0000 -0.0000 -0.0000
vn -0.0000 0.8325 -0.5541
vn -0.0000 -0.8325 0.5541
vn -1.0000 -0.0000 -0.0000
vn -0.0000 -0.6902 -0.7236
vn -0.0000 -0.0636 -0.9980
vn -0.0000 0.5928 -0.8054
vn -0.0000 0.9718 -0.2359
vn -0.0000 0.8961 0.4439
vn -0.0000 0.4011 0.9160
vn -0.0000 -0.2816 0.9595
vn -0.0000 0.9939 0.1107
vn -0.0000 -0.0000 1.0000
vn -0.0000 -0.0000 -1.0000
vt 1.000000 0.500000
vt 1.000000 1.000000
vt 0.888889 1.000000
vt 0.888889 0.500000
vt 0.777778 1.000000
vt 0.777778 0.500000
vt 0.666667 1.000000
vt 0.666667 0.500000
vt 0.555556 1.000000
vt 0.555556 0.500000
vt 0.444444 1.000000
vt 0.444444 0.500000
vt 0.333333 1.000000
vt 0.333333 0.500000
vt 0.222222 1.000000
vt 0.222222 0.500000
vt 0.125442 0.398442
vt 0.059167 0.283649
vt 0.559167 0.283649
vt 0.625442 0.398442
vt 0.013646 0.291676
vt 0.095731 0.433851
vt 0.111111 0.500000
vt 0.111111 1.000000
vt 0.000000 1.000000
vt 0.000000 0.500000
vt 0.250000 0.443777
vt 0.750000 0.443777
vt 0.874558 0.398442
vt 0.750000 0.490000
vt 0.904269 0.433851
vt 0.374558 0.398442
vt 0.404269 0.433851
vt 0.250000 0.490000
vt 0.940833 0.283649
vt 0.986354 0.291676
vt 0.440833 0.283649
vt 0.486354 0.291676
vt 0.917816 0.153111
vt 0.957846 0.130000
vt 0.417816 0.153111
vt 0.457846 0.130000
vt 0.816276 0.067909
vt 0.832085 0.024474
vt 0.316276 0.067909
vt 0.332085 0.024474
vt 0.683724 0.067909
vt 0.667915 0.024474
vt 0.183724 0.067909
vt 0.167915 0.024474
vt 0.582184 0.153111
vt 0.542154 0.130000
vt 0.082184 0.153111
vt 0.042154 0.130000
vt 0.513646 0.291676
vt 0.595731 0.433851
s 0
f 19/1/1 22/2/1 21/3/1 20/4/1
f 20/4/2 21/3/2 24/5/2 23/6/2
f 23/6/3 24/5/3 26/7/3 25/8/3
f 25/8/4 26/7/4 28/9/4 27/10/4
f 27/10/5 28/9/5 30/11/5 29/12/5
f 29/12/6 30/11/6 32/13/6 31/14/6
f 31/14/7 32/13/7 34/15/7 33/16/7
f 18/17/8 16/18/8 15/19/8 17/20/8
f 34/21/9 36/22/9 40/22/9 37/21/9
f 35/23/10 36/24/10 22/25/10 19/26/10
f 2/27/11 18/17/11 17/20/11 1/28/11
f 3/29/12 1/28/12 19/30/12 20/31/12
f 2/27/9 4/32/9 21/33/9 22/34/9
f 5/35/12 3/29/12 20/31/12 23/36/12
f 4/32/9 6/37/9 24/38/9 21/33/9
f 7/39/12 5/35/12 23/36/12 25/40/12
f 6/37/9 8/41/9 26/42/9 24/38/9
f 9/43/12 7/39/12 25/40/12 27/44/12
f 8/41/9 10/45/9 28/46/9 26/42/9
f 11/47/12 9/43/12 27/44/12 29/48/12
f 10/45/9 12/49/9 30/50/9 28/46/9
f 13/51/12 11/47/12 29/48/12 31/52/12
f 12/49/9 14/53/9 32/54/9 30/50/9
f 15/19/12 13/51/12 31/52/12 33/55/12
f 14/53/9 16/18/9 34/21/9 32/54/9
f 17/20/12 15/19/12 33/55/12 35/56/12
f 16/18/9 18/17/9 36/22/9 34/21/9
f 1/28/12 17/20/12 35/56/12 19/30/12
f 18/17/9 2/27/9 22/34/9 36/22/9
f 16/18/13 14/53/13 13/51/13 15/19/13
f 14/53/14 12/49/14 11/47/14 13/51/14
f 12/49/15 10/45/15 9/43/15 11/47/15
f 10/45/16 8/41/16 7/39/16 9/43/16
f 8/41/17 6/37/17 5/35/17 7/39/17
f 6/37/18 4/32/18 3/29/18 5/35/18
f 4/32/19 2/27/19 1/28/19 3/29/19
f 38/16/20 37/15/20 40/24/20 39/23/20
f 33/16/21 34/15/21 37/15/21 38/16/21
f 36/24/22 35/23/22 39/23/22 40/24/22
f 35/56/12 33/55/12 38/55/12 39/56/12
