# Blender 4.4.3
# www.blender.org
o Cube
v -0.012704 -0.001362 -0.007711
v -0.012704 0.009110 -0.007711
v -0.012704 -0.001362 -0.024085
v -0.012704 0.009110 -0.024085
v -0.010768 -0.001362 -0.007711
v -0.010768 0.009110 -0.007711
v -0.010768 -0.001362 -0.024085
v -0.010768 0.009110 -0.024085
v -0.012704 0.003635 -0.007711
v -0.012704 0.003635 -0.024085
v -0.013815 -0.001025 -0.023622
v -0.013815 -0.001025 -0.008174
v -0.013815 0.003298 -0.023622
v -0.013815 0.003298 -0.008174
v -0.014692 -0.000356 -0.020773
v -0.014692 -0.000356 -0.011023
v -0.014692 0.002629 -0.020773
v -0.014692 0.002629 -0.011023
vn -1.0000 -0.0000 -0.0000
vn -0.0000 -0.0000 -1.0000
vn 1.0000 -0.0000 -0.0000
vn -0.0000 -0.0000 1.0000
vn -0.0000 -1.0000 -0.0000
vn -0.0000 1.0000 -0.0000
vn -0.3847 -0.0000 0.9230
vn -0.9557 -0.0000 0.2943
vn -0.2904 -0.9569 -0.0000
vn -0.3847 -0.0000 -0.9230
vn -0.2904 0.9569 -0.0000
vn -0.6062 -0.7953 -0.0000
vn -0.6062 0.7953 -0.0000
vn -0.9557 -0.0000 -0.2943
vt 0.500000 0.000000
vt 0.625000 0.000000
vt 0.625000 0.250000
vt 0.500000 0.250000
vt 0.375000 0.250000
vt 0.625000 0.500000
vt 0.375000 0.500000
vt 0.625000 0.750000
vt 0.375000 0.750000
vt 0.625000 1.000000
vt 0.500000 1.000000
vt 0.375000 1.000000
vt 0.125000 0.500000
vt 0.125000 0.750000
vt 0.875000 0.500000
vt 0.875000 0.750000
vt 0.375000 0.000000
s 0
f 9/1/1 2/2/1 4/3/1 10/4/1
f 3/5/2 10/4/2 4/3/2 8/6/2 7/7/2
f 7/7/3 8/6/3 6/8/3 5/9/3
f 5/9/4 6/8/4 2/10/4 9/11/4 1/12/4
f 3/13/5 7/7/5 5/9/5 1/14/5
f 8/6/6 4/15/6 2/16/6 6/8/6
f 1/12/7 9/11/7 14/11/7 12/12/7
f 12/12/8 14/11/8 18/11/8 16/12/8
f 3/13/9 1/14/9 12/14/9 11/13/9
f 10/4/10 3/5/10 11/5/10 13/4/10
f 9/1/11 10/4/11 13/4/11 14/1/11
f 16/17/1 18/1/1 17/4/1 15/5/1
f 11/13/12 12/14/12 16/14/12 15/13/12
f 14/1/13 13/4/13 17/4/13 18/1/13
f 13/4/14 11/5/14 15/5/14 17/4/14
