# Blender 4.4.3
# www.blender.org
o Plane
v 0.000971 -0.000355 0.005741
v 0.000971 -0.008981 0.000731
v 0.000971 0.003122 -0.002331
v 0.000873 -0.009047 -0.001483
v 0.000971 -0.016996 0.002583
v 0.000971 -0.016812 0.000347
v 0.000971 -0.023773 0.000164
v 0.000971 -0.022765 -0.001318
v 0.000971 -0.027765 -0.005758
v 0.000971 -0.011849 -0.000329
v 0.000971 -0.003296 0.005689
v 0.000971 -0.005147 -0.003843
v 0.000971 -0.007200 0.003837
v 0.000971 -0.010822 0.001758
v 0.000971 -0.027395 -0.006712
v 0.000971 -0.026513 -0.006421
v 0.000971 0.007688 0.002993
v 0.000971 0.008563 -0.000365
v 0.000971 0.001384 0.001705
v -0.000936 -0.000355 0.005741
v -0.000936 -0.008981 0.000731
v -0.000936 0.003122 -0.002331
v -0.001033 -0.009047 -0.001483
v -0.000936 -0.016996 0.002583
v -0.000936 -0.016812 0.000347
v -0.000936 -0.023773 0.000164
v -0.000936 -0.022765 -0.001318
v -0.000936 -0.027765 -0.005758
v -0.000936 -0.011849 -0.000329
v -0.000936 -0.003296 0.005689
v -0.000936 -0.005147 -0.003843
v -0.000936 -0.007200 0.003837
v -0.000936 -0.010822 0.001758
v -0.000936 -0.027395 -0.006712
v -0.000936 -0.026513 -0.006421
v -0.000936 0.007688 0.002993
v -0.000936 0.008563 -0.000365
v -0.000936 0.001384 0.001705
vn 1.0000 -0.0071 -0.0060
vn 1.0000 -0.0000 -0.0000
vn 0.9996 0.0093 -0.0251
vn -1.0000 0.0071 0.0060
vn -1.0000 -0.0000 -0.0000
vn -0.9996 -0.0093 0.0251
vn -0.0000 -0.2587 -0.9660
vn -0.0000 -0.2612 -0.9653
vn -0.0000 -0.4508 -0.8926
vn -0.0000 -0.4503 -0.8929
vn -0.0000 -0.4273 -0.9041
vn -0.0000 0.5872 -0.8094
vn -0.0000 -0.0176 0.9998
vn -0.0000 -0.2283 0.9736
vn -0.0000 0.3155 0.9489
vn -0.0000 -0.1048 0.9945
vn -0.0000 -0.2002 0.9798
vn -0.0000 -0.5178 -0.8555
vn -0.0000 0.3398 -0.9405
vn -0.0000 0.9184 0.3956
vn -0.0000 0.5688 -0.8225
vn -0.0000 0.0686 -0.9976
vn -0.0000 -0.6791 0.7341
vn -0.0000 -0.8674 0.4975
vn -0.0000 -0.6133 0.7898
vn -0.0000 0.9677 0.2521
vn -0.0000 0.4875 0.8731
vn -0.0000 0.1799 -0.9837
vn -0.0000 -0.9938 0.1114
vt 0.500000 0.000000
vt 0.750000 0.000000
vt 1.000000 0.000000
vt 1.000000 1.000000
vt 0.500000 1.000000
vt 0.000000 0.000000
vt 0.000000 1.000000
vt 0.000000 0.500000
vt 1.000000 0.500000
vt 0.000000 0.750000
s 0
f 11/1/1 13/2/1 2/3/1 4/4/1 12/5/1
f 10/4/2 14/3/2 5/3/2 6/4/2
f 6/4/2 5/3/2 7/3/2 8/4/2
f 4/4/3 2/3/3 14/3/3 10/4/3
f 1/6/2 11/1/2 12/5/2 3/7/2 19/8/2
f 8/4/2 7/3/2 9/3/2 15/9/2 16/4/2
f 19/8/2 3/7/2 18/7/2 17/10/2
f 30/1/4 31/5/4 23/4/4 21/3/4 32/2/4
f 29/4/5 25/4/5 24/3/5 33/3/5
f 25/4/5 27/4/5 26/3/5 24/3/5
f 23/4/6 29/4/6 33/3/6 21/3/6
f 20/6/5 38/8/5 22/7/5 31/5/5 30/1/5
f 27/4/5 35/4/5 34/9/5 28/3/5 26/3/5
f 38/8/5 36/10/5 37/7/5 22/7/5
s 1
f 10/4/7 29/4/8 23/4/9 4/4/10
f 15/9/11 34/9/11 35/4/12 16/4/12
f 1/6/13 20/6/13 30/1/14 11/1/14
f 14/3/15 33/3/15 24/3/16 5/3/16
s 0
f 17/10/17 36/10/17 38/8/17 19/8/17
s 1
f 4/4/10 23/4/9 31/5/18 12/5/18
s 0
f 3/7/19 22/7/19 37/7/19 18/7/19
f 19/8/20 38/8/20 20/6/20 1/6/20
s 1
f 8/4/21 27/4/21 25/4/22 6/4/22
f 13/2/23 32/2/23 21/3/24 2/3/24
f 11/1/14 30/1/14 32/2/23 13/2/23
f 5/3/16 24/3/16 26/3/25 7/3/25
s 0
f 18/7/26 37/7/26 36/10/26 17/10/26
s 1
f 2/3/27 21/3/27 33/3/15 14/3/15
s 0
f 12/5/28 31/5/28 22/7/28 3/7/28
s 1
f 9/3/29 28/3/29 34/9/11 15/9/11
f 16/4/12 35/4/12 27/4/21 8/4/21
f 6/4/22 25/4/22 29/4/8 10/4/7
f 7/3/25 26/3/25 28/3/29 9/3/29
