# Blender 3.6.1
# www.blender.org
mtllib Hammer.mtl
o Hammer
v 0.008436 0.000002 -0.001585
v -0.008436 0.000002 -0.001585
v 0.008436 0.001508 -0.000487
v -0.008436 0.001508 -0.000487
v 0.008436 0.000930 0.001283
v -0.008436 0.000930 0.001283
v 0.008436 -0.000933 0.001281
v -0.008436 -0.000933 0.001281
v 0.008436 -0.001506 -0.000492
v -0.008436 -0.001506 -0.000492
v -0.001359 0.020958 -0.007678
v -0.001359 0.015749 -0.008161
v -0.001359 0.008820 -0.008478
v -0.001359 0.003055 -0.008437
v -0.001359 -0.005269 -0.006275
v -0.001359 -0.005935 0.006473
v -0.001359 -0.007605 -0.001504
v -0.001054 0.020252 0.008674
v -0.001359 -0.001958 0.007677
v -0.001359 -0.002371 0.001891
v -0.001359 -0.002395 -0.002077
v -0.001359 0.011542 -0.000922
v -0.001359 0.003663 0.006250
v -0.001359 0.002194 0.002116
v -0.001359 0.002480 -0.001897
v -0.001359 0.008539 -0.002349
v -0.001359 0.014668 -0.002068
v -0.001054 0.019623 0.010607
v -0.001054 0.019037 0.005789
v -0.001359 0.018013 -0.008057
v -0.001359 0.011884 -0.008338
v -0.001359 0.008679 -0.005413
v -0.001359 0.015609 -0.005096
v -0.001359 0.011604 -0.002208
v -0.001359 0.017873 -0.004993
v -0.001359 0.011744 -0.005273
v -0.001359 0.016697 -0.008117
v 0.000014 0.015352 -0.011626
v -0.001054 0.016921 0.005489
v 0.001388 -0.002371 0.001889
v -0.001359 -0.001033 -0.007994
v -0.001359 -0.007526 0.002357
v 0.001388 -0.001958 0.007675
v 0.001388 -0.002395 -0.002079
v 0.001388 -0.007526 0.002356
v -0.001054 0.020413 0.010596
v 0.001388 -0.005935 0.006471
v 0.001388 -0.007605 -0.001506
v -0.001359 0.007883 0.001539
v 0.001388 -0.005269 -0.006277
v 0.001388 -0.001033 -0.007996
v -0.001054 0.015420 0.002227
v 0.001388 0.003055 -0.008438
v -0.001359 0.021187 -0.006132
v 0.001388 0.008820 -0.008480
v -0.001359 0.018285 -0.001811
v -0.001359 0.019605 -0.003804
v 0.001388 0.011884 -0.008339
v 0.001388 0.015749 -0.008163
v -0.001359 0.014712 -0.008208
v -0.001054 0.018191 0.002441
v -0.001359 0.017916 -0.000438
v 0.001388 0.018014 -0.008059
v 0.000014 0.018014 -0.008058
v 0.000014 0.011884 -0.008339
v 0.000014 0.008820 -0.008479
v 0.000014 0.003055 -0.008438
v 0.000014 -0.001033 -0.007995
v 0.000014 -0.005269 -0.006276
v 0.000014 -0.007605 -0.001506
v 0.000014 -0.005935 0.006472
v 0.000014 -0.007526 0.002356
v 0.000014 -0.001958 0.007676
v 0.000014 0.020944 0.011750
v 0.000014 0.020737 0.009279
v 0.000014 0.003663 0.006249
v 0.000014 0.007883 0.001538
v 0.000014 0.014528 0.000995
v 0.000014 0.021187 -0.006134
v 0.000014 0.020958 -0.007680
v 0.000014 0.019175 0.005572
v 0.000014 0.011542 -0.000923
v 0.000014 0.018285 -0.001813
v 0.000014 0.019605 -0.003805
v 0.000014 0.014712 -0.008210
v 0.000014 0.016697 -0.008119
v 0.000014 0.019928 0.011763
v 0.000014 0.016456 0.005186
v 0.000014 0.018088 0.001270
v 0.000014 0.017916 -0.000440
v 0.001388 0.002480 -0.001899
v 0.001083 0.020413 0.010595
v 0.001083 0.020252 0.008672
v 0.001388 0.003663 0.006248
v 0.001388 0.002194 0.002114
v 0.001388 0.008680 -0.005415
v 0.001388 0.007883 0.001537
v 0.001388 0.008539 -0.002351
v 0.001388 0.015609 -0.005098
v 0.001083 0.015421 0.002226
v 0.001388 0.014669 -0.002070
v 0.001388 0.021187 -0.006134
v 0.001388 0.020958 -0.007680
v 0.001083 0.019037 0.005788
v 0.001388 0.011542 -0.000924
v 0.001388 0.011604 -0.002210
v 0.001388 0.018285 -0.001813
v 0.001388 0.019605 -0.003806
v 0.001388 0.017873 -0.004994
v 0.001388 0.011744 -0.005275
v 0.001388 0.014712 -0.008210
v 0.001388 0.016698 -0.008119
v 0.001083 0.019623 0.010606
v 0.001083 0.016921 0.005487
v 0.001083 0.018191 0.002440
v 0.001388 0.017916 -0.000440
v 0.001388 0.000002 -0.001585
v -0.001359 0.000002 -0.001585
v 0.001388 0.001508 -0.000487
v 0.001388 0.001076 -0.000802
v -0.001359 0.001508 -0.000487
v -0.001359 0.001077 -0.000802
v 0.001388 0.000930 0.001283
v -0.001359 0.000930 0.001283
v 0.001388 -0.000933 0.001281
v -0.001359 -0.000933 0.001281
v -0.001359 -0.001506 -0.000492
v 0.001388 -0.001506 -0.000492
v -0.001359 -0.001066 0.000871
v 0.001388 -0.001066 0.000870
vn -0.0000 0.5890 -0.8082
vn -0.0000 0.9506 0.3104
vn -0.0000 -0.0015 1.0000
vn -1.0000 -0.0000 -0.0000
vn -0.0000 -0.9515 0.3076
vn -0.0000 -0.5866 -0.8099
vn 1.0000 -0.0000 -0.0000
vn 0.9863 -0.0075 0.1646
vn 0.9541 0.0137 -0.2992
vn -0.9289 0.0169 -0.3700
vn -0.9972 -0.0218 0.0711
vn -0.9985 0.0191 0.0521
vn 0.0009 0.2461 0.9693
vn 0.0005 0.8335 0.5525
vn -0.3753 0.9237 -0.0773
vn 0.0008 0.5582 0.8297
vn -0.0001 -0.9829 -0.1840
vn -0.1727 0.9549 -0.2413
vn 0.0005 0.8272 0.5618
vn -0.0004 0.9337 -0.3581
vn 0.1824 -0.5891 0.7872
vn -0.0010 0.0457 -0.9990
vn 0.0009 -0.2898 0.9571
vn -0.2667 -0.8756 0.4028
vn -0.2447 -0.8575 0.4527
vn 0.0001 -0.9998 0.0206
vn -0.1945 0.9039 -0.3809
vn -0.0046 0.9953 -0.0967
vn -0.0009 0.1276 -0.9918
vn 0.0004 -0.9328 0.3605
vn -0.0002 0.9893 -0.1462
vn 0.0002 0.9658 0.2593
vn -0.0004 -0.8980 -0.4399
vn 0.0006 0.7449 0.6672
vn -0.0009 -0.3761 -0.9266
vn -0.0009 -0.1076 -0.9942
vn -0.0010 -0.0072 -1.0000
vn -0.7356 0.0091 0.6774
vn 0.1724 0.9550 -0.2413
vn 0.0002 0.8272 0.5618
vn -0.0002 0.9337 -0.3581
vn -0.1813 -0.5893 0.7873
vn -0.0004 0.0457 -0.9990
vn 0.0004 -0.2898 0.9571
vn 0.2672 -0.8755 0.4027
vn 0.2453 -0.8573 0.4526
vn -0.0000 -0.9998 0.0206
vn 0.1939 0.9040 -0.3809
vn 0.0044 0.9953 -0.0967
vn -0.0004 0.1276 -0.9918
vn 0.0002 -0.9328 0.3605
vn -0.0001 0.9893 -0.1462
vn 0.0001 0.9658 0.2593
vn -0.0002 -0.8980 -0.4399
vn 0.0003 0.7449 0.6672
vn -0.0004 -0.3761 -0.9266
vn -0.0004 -0.1076 -0.9942
vn -0.0004 -0.0072 -1.0000
vn 0.7360 0.0091 0.6769
vn 0.0004 0.2461 0.9693
vn 0.0002 0.8335 0.5525
vn 0.3752 0.9237 -0.0773
vn 0.0003 0.5582 0.8297
vn 0.8584 0.0234 -0.5125
vn -0.9277 -0.0171 0.3729
vn 0.9288 0.0169 -0.3702
vn 0.9972 -0.0218 0.0711
vn 0.9985 0.0191 0.0521
vt 0.343594 0.832102
vt 0.343594 0.669968
vt 0.367682 0.669956
vt 0.377381 0.669951
vt 0.377381 0.832084
vt 0.702499 0.832086
vt 0.702499 0.669953
vt 0.741778 0.669951
vt 0.741778 0.832084
vt 0.782728 0.832088
vt 0.782728 0.669954
vt 0.824979 0.669951
vt 0.824979 0.832084
vt 0.492135 0.900598
vt 0.451385 0.887349
vt 0.451385 0.844500
vt 0.492135 0.831267
vt 0.517320 0.865937
vt 0.741778 0.832084
vt 0.741778 0.669951
vt 0.751269 0.669951
vt 0.782728 0.669951
vt 0.782728 0.832084
vt 0.308085 0.832085
vt 0.308085 0.669952
vt 0.573388 0.802248
vt 0.598568 0.767579
vt 0.639309 0.780820
vt 0.639309 0.823672
vt 0.598568 0.836915
vt 0.177469 0.000000
vt 0.158845 0.119124
vt 0.021471 0.144190
vt 0.065424 0.048676
vt 0.157856 0.231323
vt 0.007008 0.237669
vt 0.141104 0.370087
vt 0.070552 0.370087
vt 0.000000 0.370087
vt 0.070552 0.440653
vt 0.070552 0.529643
vt 0.000000 0.529643
vt 0.000000 0.440653
vt 0.070552 0.581784
vt 0.040886 0.656725
vt 0.005609 0.649849
vt 0.000000 0.581784
vt 0.358988 0.046769
vt 0.382469 0.139419
vt 0.249962 0.123843
vt 0.266106 0.005890
vt 0.231115 0.359092
vt 0.170722 0.440576
vt 0.141104 0.440653
vt 0.343778 0.267080
vt 0.250348 0.228988
vt 0.184490 0.200243
vt 0.191253 0.210476
vt 0.232545 0.199050
vt 0.234441 0.156240
vt 0.225174 0.152768
vt 0.426952 0.638389
vt 0.425878 0.656539
vt 0.381874 0.650818
vt 0.141104 0.511219
vt 0.143203 0.594580
vt 0.096045 0.622833
vt 0.452705 0.669951
vt 0.452705 0.580961
vt 0.452705 0.604832
vt 0.452705 0.580960
vt 0.452705 0.528819
vt 0.452705 0.559122
vt 0.472046 0.750674
vt 0.495690 0.753965
vt 0.472046 0.831267
vt 0.517320 0.756975
vt 0.238853 0.533015
vt 0.240857 0.596895
vt 0.175137 0.587551
vt 0.194319 0.141208
vt 0.167628 0.174727
vt 0.312207 0.570918
vt 0.316886 0.619856
vt 0.112330 0.764791
vt 0.143914 0.764787
vt 0.143941 0.886711
vt 0.112357 0.886714
vt 0.936823 0.316350
vt 0.968407 0.316380
vt 0.968411 0.359095
vt 0.936827 0.359066
vt 0.943830 0.027572
vt 0.968410 -0.000000
vt 0.968410 0.057028
vt 0.943830 0.071951
vt 0.175552 0.669954
vt 0.207136 0.669951
vt 0.207170 0.743375
vt 0.175586 0.743379
vt 0.578194 0.754486
vt 0.548908 0.681779
vt 0.578194 0.669951
vt 0.943828 0.140667
vt 0.968407 0.145327
vt 0.968406 0.246226
vt 0.943826 0.219187
vt 0.968416 0.408939
vt 0.936831 0.408909
vt 0.578194 0.669951
vt 0.607716 0.681176
vt 0.578194 0.759033
vt 0.207155 0.818522
vt 0.182564 0.843522
vt 0.639317 0.737369
vt 0.670901 0.737367
vt 0.670902 0.767577
vt 0.639318 0.767579
vt 0.112336 0.669954
vt 0.143920 0.669951
vt 0.087749 0.890692
vt 0.063170 0.919308
vt 0.063170 0.822308
vt 0.087749 0.815206
vt 0.936801 0.460817
vt 0.905217 0.460820
vt 0.905213 0.395902
vt 0.936798 0.395899
vt 0.063171 0.669951
vt 0.087750 0.696640
vt 0.000001 0.778965
vt 0.031585 0.778935
vt 0.031585 0.867783
vt 0.000001 0.867813
vt 0.968405 0.285748
vt 0.936821 0.285718
vt 0.639309 0.669953
vt 0.670893 0.669951
vt 0.031584 0.962944
vt 0.000000 0.962974
vt 0.968415 0.444840
vt 0.936831 0.444810
vt -0.000000 0.669981
vt 0.031584 0.669951
vt 0.419632 0.669950
vt 0.451216 0.669980
vt 0.451228 0.768577
vt 0.419644 0.768547
vt 0.936797 0.098665
vt 0.905212 0.098667
vt 0.905237 0.000002
vt 0.936821 -0.000000
vt 0.936792 0.192991
vt 0.905207 0.192993
vt 0.936794 0.325550
vt 0.905210 0.325553
vt 0.452705 0.646627
vt 0.451325 0.669950
vt 0.992986 0.140700
vt 0.992985 0.219220
vt 0.999995 0.359108
vt 1.000000 0.408952
vt 0.548905 0.753218
vt 0.517321 0.753205
vt 0.548908 0.669951
vt 0.207205 0.743377
vt 0.238789 0.743375
vt 0.231756 0.843520
vt 0.207189 0.818523
vt 0.607723 0.737368
vt 0.639308 0.737367
vt 0.639309 0.767577
vt 0.607725 0.767578
vt 0.143947 0.669952
vt 0.175531 0.669951
vt 0.175525 0.764787
vt 0.143941 0.764789
vt 0.112329 0.919308
vt 0.087750 0.890726
vt 0.087750 0.815239
vt 0.112329 0.822308
vt 0.936801 0.921637
vt 0.905217 0.921638
vt 0.905213 0.856720
vt 0.936798 0.856719
vt 0.087751 0.696673
vt 0.112330 0.669951
vt 0.031585 0.778948
vt 0.063170 0.778935
vt 0.063170 0.867783
vt 0.031585 0.867796
vt 0.992989 0.071985
vt 0.999990 0.285761
vt 0.607716 0.669952
vt 0.639300 0.669951
vt 0.063169 0.962944
vt 0.031585 0.962956
vt 1.000000 0.444853
vt 0.999991 0.316392
vt 0.031585 0.669963
vt 0.063169 0.669950
vt 0.670902 0.669951
vt 0.702487 0.669963
vt 0.702499 0.768560
vt 0.670915 0.768547
vt 0.936797 0.559485
vt 0.905212 0.559486
vt 0.905237 0.460821
vt 0.936821 0.460820
vt 0.936792 0.653810
vt 0.905207 0.653811
vt 0.936794 0.786370
vt 0.905210 0.786371
vt 0.905207 0.023323
vt 0.879568 0.031562
vt 0.878495 0.013412
vt 0.903828 0.000000
vt 0.175552 0.886711
vt 0.143967 0.886712
vt 0.992989 0.027605
vt 0.207170 0.669952
vt 0.238755 0.669950
vt 0.517321 0.753218
vt 0.548905 0.831588
vt 0.517321 0.831601
vt 0.630150 0.669951
vt 0.518120 0.621275
vt 0.474173 0.525761
vt 0.611529 0.550827
vt 0.459712 0.432282
vt 0.610540 0.438628
vt 0.452705 0.299864
vt 0.523247 0.299864
vt 0.593790 0.299864
vt 0.523247 0.229298
vt 0.452705 0.229298
vt 0.452705 0.140308
vt 0.523247 0.140308
vt 0.523247 0.088166
vt 0.452705 0.088167
vt 0.458313 0.020102
vt 0.493586 0.013226
vt 0.811646 0.623181
vt 0.718776 0.664061
vt 0.702633 0.546107
vt 0.835123 0.530532
vt 0.593790 0.229298
vt 0.623404 0.229374
vt 0.683789 0.310858
vt 0.703020 0.440963
vt 0.796438 0.402871
vt 0.677860 0.517195
vt 0.687157 0.513711
vt 0.685262 0.470901
vt 0.643975 0.459475
vt 0.637195 0.469736
vt 0.834496 0.019133
vt 0.593790 0.158732
vt 0.595889 0.075371
vt 0.548737 0.047118
vt 0.452705 0.669950
vt 0.452705 0.735069
vt 0.452705 0.758941
vt 0.452705 0.476677
vt 0.452705 0.498516
vt 0.452705 0.528819
vt 0.472046 0.750674
vt 0.472046 0.669951
vt 0.495690 0.747388
vt 0.517321 0.744383
vt 0.691494 0.136936
vt 0.627819 0.082400
vt 0.693498 0.073056
vt 0.620353 0.495223
vt 0.647041 0.528743
vt 0.764839 0.099033
vt 0.769517 0.050094
vt 0.864258 0.832748
vt 0.824979 0.832750
vt 0.824979 0.669953
vt 0.864258 0.669951
vt 0.274298 0.832765
vt 0.238789 0.832749
vt 0.238789 0.669952
vt 0.274298 0.669968
vt 0.419632 0.832748
vt 0.377381 0.832751
vt 0.377381 0.669954
vt 0.419632 0.669951
vt 0.308085 0.832748
vt 0.298413 0.832753
vt 0.308085 0.669951
vt 0.905207 0.832748
vt 0.873715 0.832748
vt 0.864258 0.832748
vt 0.864258 0.669951
vt 0.905207 0.669951
s 0
f 1/1/1 117/2/1 120/3/1 119/4/1 3/5/1
f 3/6/2 119/7/2 123/8/2 5/9/2
f 5/10/3 123/11/3 125/12/3 7/13/3
f 4/14/4 2/15/4 10/16/4 8/17/4 6/18/4
f 7/19/5 125/20/5 130/21/5 128/22/5 9/23/5
f 9/24/6 128/25/6 117/2/6 1/1/6
f 1/26/7 3/27/7 5/28/7 7/29/7 9/30/7
f 17/31/4 21/32/4 41/33/4 15/34/4
f 21/32/4 25/35/4 14/36/4 41/33/4
f 25/35/4 26/37/4 32/38/4 13/39/4 14/36/4
f 36/40/4 33/41/4 12/42/4 31/43/4
f 35/44/4 54/45/4 11/46/4 30/47/4
f 16/48/4 19/49/4 20/50/4 42/51/4
f 42/51/4 20/50/4 21/32/4 17/31/4
f 26/37/4 49/52/4 22/53/4 34/54/4
f 19/49/4 23/55/4 24/56/4 20/50/4
f 20/50/4 24/56/4 25/35/4 122/57/4 121/58/4 124/59/4 126/60/4 129/61/4
f 24/56/4 49/52/4 26/37/4 25/35/4
f 28/62/4 46/63/4 18/64/4
f 33/41/4 35/44/4 30/47/4 12/42/4
f 27/65/4 56/66/4 35/44/4 33/41/4
f 56/66/4 57/67/4 54/45/4 35/44/4
f 32/38/4 36/40/4 31/43/4 13/39/4
f 26/37/4 34/54/4 36/40/4 32/38/4
f 34/54/4 27/65/4 33/41/4 36/40/4
f 31/68/8 12/69/8 60/70/8
f 12/71/9 30/72/9 37/73/9
f 60/74/10 12/75/10 38/76/10
f 12/75/10 37/77/10 38/76/10
f 52/78/11 61/79/11 62/80/11 56/66/11 27/65/11
f 24/56/4 23/55/4 49/52/4
f 34/54/12 22/53/12 52/78/12 27/65/12
f 21/32/4 20/50/4 129/61/4 127/81/4 118/82/4 122/57/4 25/35/4
f 39/83/4 28/62/4 18/64/4 29/84/4
f 39/83/4 29/84/4 61/79/4 52/78/4
f 19/85/13 73/86/13 76/87/13 23/88/13
f 56/89/14 83/90/14 84/91/14 57/92/14
f 46/93/15 74/94/15 75/95/15 18/96/15
f 49/97/16 77/98/16 82/99/16 22/100/16
f 38/101/17 85/102/17 60/103/17
f 29/104/18 81/105/18 89/106/18 61/107/18
f 57/92/19 84/91/19 79/108/19 54/109/19
f 37/110/20 86/111/20 38/112/20
f 22/100/21 82/99/21 78/113/21 52/114/21
f 30/115/22 64/116/22 86/117/22 37/118/22
f 16/119/23 71/120/23 73/86/23 19/85/23
f 52/121/24 78/122/24 88/123/24 39/124/24
f 60/125/22 85/126/22 65/127/22 31/128/22
f 39/124/25 88/123/25 87/129/25 28/130/25
f 17/131/26 70/132/26 72/133/26 42/134/26
f 18/96/27 75/95/27 81/105/27 29/104/27
f 61/107/28 89/106/28 90/135/28 62/136/28
f 11/137/29 80/138/29 64/116/29 30/115/29
f 42/134/30 72/133/30 71/139/30 16/140/30
f 54/109/31 79/108/31 80/141/31 11/142/31
f 62/136/32 90/135/32 83/90/32 56/89/32
f 15/143/33 69/144/33 70/132/33 17/131/33
f 23/145/34 76/146/34 77/147/34 49/148/34
f 41/149/35 68/150/35 69/151/35 15/152/35
f 14/153/36 67/154/36 68/150/36 41/149/36
f 13/155/37 66/156/37 67/154/37 14/153/37
f 28/62/38 87/157/38 74/158/38 46/63/38
f 31/128/22 65/127/22 66/156/22 13/155/22
f 81/105/39 104/159/39 115/160/39 89/106/39
f 84/91/40 108/161/40 102/162/40 79/108/40
f 86/163/41 112/164/41 38/165/41
f 82/166/42 105/167/42 100/168/42 78/169/42
f 64/170/43 63/171/43 112/172/43 86/173/43
f 71/174/44 47/175/44 43/176/44 73/177/44
f 78/178/45 100/179/45 114/180/45 88/181/45
f 85/182/43 111/183/43 58/184/43 65/185/43
f 88/181/46 114/180/46 113/186/46 87/187/46
f 70/188/47 48/189/47 45/190/47 72/191/47
f 75/95/48 93/192/48 104/159/48 81/105/48
f 89/106/49 115/160/49 116/193/49 90/135/49
f 80/194/50 103/195/50 63/171/50 64/170/50
f 72/191/51 45/190/51 47/196/51 71/197/51
f 79/108/52 102/162/52 103/198/52 80/141/52
f 90/135/53 116/193/53 107/199/53 83/90/53
f 69/200/54 50/201/54 48/189/54 70/188/54
f 76/202/55 94/203/55 97/204/55 77/205/55
f 68/206/56 51/207/56 50/208/56 69/209/56
f 67/210/57 53/211/57 51/207/57 68/206/57
f 66/212/58 55/213/58 53/211/58 67/210/58
f 87/214/59 113/215/59 92/216/59 74/217/59
f 65/185/43 58/184/43 55/213/43 66/212/43
f 73/177/60 43/176/60 94/218/60 76/219/60
f 83/90/61 107/199/61 108/161/61 84/91/61
f 74/94/62 92/220/62 93/192/62 75/95/62
f 77/221/63 97/222/63 105/167/63 82/166/63
f 38/223/17 111/224/17 85/225/17
f 48/226/7 50/227/7 51/228/7 44/229/7
f 44/229/7 51/228/7 53/230/7 91/231/7
f 91/231/7 53/230/7 55/232/7 96/233/7 98/234/7
f 110/235/7 58/236/7 59/237/7 99/238/7
f 109/239/7 63/240/7 103/241/7 102/242/7
f 47/243/7 45/244/7 40/245/7 43/246/7
f 45/244/7 48/226/7 44/229/7 40/245/7
f 98/234/7 106/247/7 105/248/7 97/249/7
f 43/246/7 40/245/7 95/250/7 94/251/7
f 40/245/7 130/252/7 125/253/7 123/254/7 119/255/7 120/256/7 91/231/7 95/250/7
f 95/250/7 91/231/7 98/234/7 97/249/7
f 113/215/7 93/257/7 92/216/7
f 99/238/7 59/237/7 63/240/7 109/239/7
f 101/258/7 99/238/7 109/239/7 107/259/7
f 107/259/7 109/239/7 102/242/7 108/260/7
f 96/233/7 55/232/7 58/236/7 110/235/7
f 98/234/7 96/233/7 110/235/7 106/247/7
f 106/247/7 110/235/7 99/238/7 101/258/7
f 58/261/64 111/262/64 59/263/64
f 59/264/65 112/265/65 63/266/65
f 111/267/66 38/268/66 59/269/66
f 59/269/66 38/268/66 112/270/66
f 100/271/67 101/258/67 107/259/67 116/272/67 115/273/67
f 95/250/7 97/249/7 94/251/7
f 106/247/68 101/258/68 100/271/68 105/248/68
f 44/229/7 91/231/7 120/256/7 117/274/7 128/275/7 130/252/7 40/245/7
f 114/276/7 104/277/7 93/257/7 113/215/7
f 114/276/7 100/271/7 115/273/7 104/277/7
f 124/278/2 121/279/2 4/280/2 6/281/2
f 118/282/6 127/283/6 10/284/6 2/285/6
f 126/286/3 124/287/3 6/288/3 8/289/3
f 121/290/1 122/291/1 118/282/1 2/285/1 4/292/1
f 127/293/5 129/294/5 126/295/5 8/296/5 10/297/5
