# Blender 4.4.3
# www.blender.org
o Rock_1
v -0.436774 -0.881323 0.436774
v -0.436774 -0.881323 -0.436774
v 0.436774 -0.881323 0.436774
v 0.436774 1.754833 0.371500
v 0.397297 1.662520 0.436774
v -0.436774 1.807512 0.436774
v -0.436774 1.843343 0.398096
v 0.243658 1.843343 0.398096
v 0.291669 1.807626 0.436774
v 0.348264 1.843343 0.324129
v 0.383896 1.807711 0.371500
v 0.351728 1.353103 0.436774
v 0.436774 1.353103 0.302306
v 0.397297 1.438149 0.436774
v 0.411865 1.353103 0.411865
v 0.436774 0.453867 0.302306
v 0.351728 0.653338 0.436774
v 0.436774 0.368821 0.436774
v 0.411865 0.653338 0.411865
v 0.225801 -0.881323 -0.436774
v 0.436774 -0.881323 -0.225801
v 0.374982 -0.881323 -0.374982
v 0.436774 1.754833 -0.225801
v 0.351823 1.387618 -0.405411
v 0.421668 1.493464 -0.316642
v 0.403494 1.325954 -0.374982
v 0.421259 1.708294 -0.315087
v 0.367920 1.792066 -0.417368
v 0.210623 1.755585 -0.436774
v 0.225960 1.843343 -0.349017
v 0.296460 1.811749 -0.377440
v 0.214863 1.817640 -0.411071
v -0.005176 1.734354 -0.436774
v -0.005176 1.794132 -0.420808
v 0.098702 1.755585 -0.436774
v -0.220975 1.794132 -0.420808
v -0.220975 1.713863 -0.436774
v -0.262698 1.755585 -0.436774
v -0.393379 1.843343 -0.349017
v -0.436774 1.843343 -0.235618
v -0.393379 1.755585 -0.436774
v -0.436774 1.784426 -0.377857
v -0.393379 1.817640 -0.411071
v -0.398151 1.630510 -0.436774
v -0.436774 1.622827 -0.398151
v -0.436774 1.433868 -0.398151
v -0.398151 1.433868 -0.436774
v -0.436774 1.395244 -0.436774
v -0.436774 0.583566 -0.436774
v -0.436774 0.900488 -0.436774
v -0.369647 0.742027 -0.436774
v -0.436774 1.101404 -0.034840
v -0.436774 0.789699 0.436774
v -0.436774 0.686632 0.000000
v -0.436774 1.090179 0.367094
v -0.436774 1.286017 0.436774
v -0.298257 0.948161 0.436774
v -0.369647 0.931718 0.367094
v -0.422390 0.836872 -0.034840
v -0.436774 1.585699 -0.024380
v -0.356676 1.843343 -0.024380
v -0.436774 1.843343 -0.065713
v -0.356676 1.843343 0.186858
v -0.400928 1.701002 0.186858
v -0.436774 1.843343 0.266956
vn -0.0000 0.3827 -0.9239
vn 0.4925 0.3943 0.7759
vn 0.2850 0.0035 -0.9585
vn 1.0000 -0.0008 0.0077
vn 0.5434 0.8359 -0.0778
vn 0.2976 0.8568 0.4212
vn -0.0001 0.7341 0.6790
vn -1.0000 -0.0000 -0.0000
vn 0.3749 -0.2009 0.9050
vn 0.9701 0.1016 0.2206
vn 0.9940 0.0921 0.0583
vn 0.3802 0.1136 0.9179
vn 0.3827 -0.0000 0.9239
vn 0.9751 -0.0000 0.2217
vn 0.6110 0.7915 -0.0160
vn 0.5017 -0.0065 -0.8650
vn -0.0000 -1.0000 -0.0000
vn 0.6531 0.1849 -0.7343
vn 0.8417 -0.0304 -0.5392
vn 0.9568 -0.0064 -0.2906
vn 0.9274 0.2406 -0.2866
vn 0.2528 0.9672 -0.0243
vn 0.3799 0.3317 -0.8635
vn 0.2317 0.8834 -0.4073
vn -0.9634 0.2411 -0.1175
vn -0.0527 0.2577 -0.9648
vn 0.1915 0.1915 -0.9626
vn -0.0106 0.2223 -0.9749
vn -0.0000 -0.0000 -1.0000
vn -0.7071 0.6533 -0.2706
vn -0.0000 0.9239 -0.3827
vn -0.5774 0.5773 -0.5773
vn -0.7071 -0.0000 -0.7071
vn -0.7511 0.0982 -0.6529
vn -0.0000 1.0000 -0.0000
vn -0.6397 -0.2710 0.7193
vn -0.0000 -0.0000 1.0000
vn -0.6330 -0.2595 0.7294
vn -0.9819 -0.1892 0.0052
vn -0.6410 0.5603 0.5245
vn -0.9785 -0.1886 0.0838
vn -0.9635 0.2678 -0.0026
vn -0.4540 0.1411 0.8798
vn -0.6906 0.2147 -0.6906
vn -0.9549 0.2969 -0.0000
vn -0.9999 0.0086 -0.0076
vt 0.615378 0.473320
vt 0.615378 0.413273
vt 0.621355 0.398833
vt 0.621355 0.324417
vt 0.615378 0.310048
vt 0.615378 0.264969
vt 0.625000 0.264962
vt 0.625000 0.474669
vt 0.621084 0.791528
vt 0.605174 0.750000
vt 0.615295 0.750000
vt 0.621093 0.765133
vt 0.375000 0.439622
vt 0.623331 0.479025
vt 0.621952 0.482625
vt 0.574092 0.480491
vt 0.375000 0.500000
vt 0.375000 0.560378
vt 0.615295 0.560378
vt 0.615295 0.731319
vt 0.605174 0.750000
vt 0.549538 0.750000
vt 0.539658 0.725661
vt 0.458356 0.725661
vt 0.445739 0.750000
vt 0.375000 0.750000
vt 0.646071 0.503041
vt 0.650331 0.525115
vt 0.650331 0.717762
vt 0.636226 0.731319
vt 0.625000 0.775331
vt 0.625000 0.798877
vt 0.625000 0.805268
vt 0.625000 1.000000
vt 0.621071 1.000000
vt 0.621084 0.791528
vt 0.375000 0.000000
vt 0.483958 0.000000
vt 0.453633 0.125000
vt 0.423307 0.250000
vt 0.375000 0.250000
vt 0.539422 0.774339
vt 0.532073 0.757129
vt 0.528449 0.750000
vt 0.453743 0.742871
vt 0.445739 0.750000
vt 0.451725 0.750000
vt 0.458327 0.774339
vt 0.642550 0.505554
vt 0.566012 0.500000
vt 0.125000 0.500000
vt 0.314622 0.500000
vt 0.357316 0.517684
vt 0.125000 0.750000
vt 0.571488 0.514161
vt 0.615295 0.524241
vt 0.573508 0.524122
vt 0.621437 0.534826
vt 0.622178 0.474274
vt 0.624499 0.475976
vt 0.461741 0.134971
vt 0.430810 0.250000
vt 0.610803 0.398477
vt 0.619604 0.399225
vt 0.609856 0.324463
vt 0.610803 0.324105
vt 0.505748 0.262851
vt 0.444348 0.250000
vt 0.486619 0.250000
vt 0.618540 0.233139
vt 0.625000 0.192431
vt 0.625000 0.224885
vt 0.622182 0.242644
vt 0.650331 0.500000
vt 0.860038 0.500000
vt 0.860289 0.525115
vt 0.650331 0.525115
vt 0.504101 0.238946
vt 0.488972 0.250000
vt 0.614011 0.263323
vt 0.613168 0.238946
vt 0.614011 0.250000
vt 0.615378 0.250000
vt 0.875000 0.557569
vt 0.875000 0.595100
vt 0.849946 0.618023
vt 0.850703 0.678477
vt 0.875000 0.701400
vt 0.875000 0.738931
vt 0.680268 0.738931
vt 0.650331 0.717762
vt 0.498036 1.000000
vt 0.518727 1.000000
vt 0.546407 1.000000
vt 0.479489 0.134971
vt 0.461741 0.134971
vt 0.498036 0.000000
vt 0.492673 0.019942
vt 0.514631 0.019942
vt 0.492673 0.019942
vt 0.611054 0.131977
vt 0.625000 0.131977
vt 0.625000 0.154901
vt 0.625000 0.071523
vt 0.617582 0.071523
vt 0.625000 0.048600
vt 0.514631 0.019942
vt 0.546407 0.000000
vt 0.621071 0.000000
vt 0.625000 0.011069
vt 0.486619 0.250000
vt 0.483958 1.000000
vt 0.375000 1.000000
vt 0.423307 0.250000
s 0
f 29/1/1 35/2/1 34/3/1 36/4/1 38/5/1 41/6/1 43/7/1 32/8/1
f 9/9/2 5/10/2 4/11/2 11/12/2
f 20/13/3 29/1/3 31/14/3 28/15/3 24/16/3 22/17/3
f 21/18/4 23/19/4 4/20/4 5/21/4 14/22/4 13/23/4 16/24/4 18/25/4 3/26/4
f 31/27/5 30/28/5 10/29/5 11/30/5
f 10/31/6 8/32/6 9/9/6 11/12/6
f 8/33/7 7/34/7 6/35/7 9/36/7
f 1/37/8 53/38/8 54/39/8 49/40/8 2/41/8
f 12/42/9 15/43/9 14/22/9
f 15/43/10 13/44/10 14/22/10
f 16/24/11 19/45/11 18/46/11
f 19/45/12 17/47/12 18/46/12
f 12/42/13 17/48/13 19/47/13 15/44/13
f 15/44/14 19/47/14 16/24/14 13/23/14
f 28/49/15 11/30/15 4/20/15 23/19/15
f 22/17/16 24/16/16 26/50/16
f 2/51/17 20/52/17 22/53/17 21/18/17 3/26/17 1/54/17
f 24/16/18 25/55/18 26/50/18
f 27/56/19 25/57/19 24/16/19 28/15/19
f 22/17/20 26/50/20 25/57/20 27/56/20 23/19/20 21/18/20
f 27/58/21 28/49/21 23/19/21
f 28/49/22 31/27/22 11/30/22
f 29/1/23 32/59/23 31/14/23
f 32/59/24 30/60/24 31/14/24
f 59/61/25 51/62/25 49/40/25 54/39/25
f 33/63/26 34/64/26 35/2/26
f 36/4/27 37/65/27 38/5/27
f 33/63/28 37/66/28 36/4/28 34/3/28
f 47/67/29 51/62/29 50/68/29 48/69/29
f 42/70/30 40/71/30 39/72/30 43/73/30
f 32/74/31 43/75/31 39/76/31 30/77/31
f 46/78/32 47/79/32 48/69/32
f 44/80/33 47/67/33 46/78/33 45/81/33
f 44/82/34 45/81/34 42/70/34 43/73/34 41/83/34
f 30/77/35 39/76/35 40/84/35 62/85/35 61/86/35 63/87/35 65/88/35 7/89/35 8/90/35 10/91/35
f 58/92/36 57/92/36 55/93/36
f 57/92/37 17/48/37 12/42/37
f 57/92/38 56/94/38 55/93/38
f 52/95/39 50/68/39 51/62/39 59/96/39
f 57/97/40 58/98/40 53/38/40
f 55/99/41 52/95/41 59/96/41 58/100/41
f 58/98/42 59/61/42 54/39/42 53/38/42
f 60/101/43 61/102/43 62/103/43
f 63/104/44 64/105/44 65/106/44
f 60/101/45 64/105/45 63/104/45 61/102/45
f 55/107/46 56/108/46 6/109/46 7/110/46 65/106/46 64/105/46 60/101/46 62/103/46 40/71/46 42/70/46 45/81/46 46/78/46 48/111/46 50/68/46 52/95/46
f 3/26/37 18/46/37 17/48/37 57/92/37 53/112/37 1/113/37
f 56/94/37 57/92/37 12/42/37 14/22/37 5/10/37 9/36/37 6/35/37
f 20/13/29 51/62/29 47/67/29 44/80/29 41/6/29 38/5/29 37/66/29 33/63/29 35/2/29 29/1/29
f 2/41/29 49/114/29 51/62/29 20/13/29
